<?xml version="1.0" encoding="UTF-8"?>
<svg version="1.1" xmlns="http://www.w3.org/2000/svg" width="500" height="500">
<path d="M0 0 C3.87955959 1.5256106 6.17938726 1.40737449 10.0625 -0.0703125 C11.24328125 -0.60011719 12.4240625 -1.12992187 13.640625 -1.67578125 C14.89792527 -2.23032947 16.15573498 -2.78372418 17.4140625 -3.3359375 C18.56132812 -3.83996094 19.70859375 -4.34398437 20.890625 -4.86328125 C28.80917604 -8.13064454 36.72170898 -10.04113782 45.203125 -10.98828125 C45.94949219 -11.07174805 46.69585937 -11.15521484 47.46484375 -11.24121094 C65.90034611 -13.19480007 83.35126502 -9.81042282 101.203125 -5.48828125 C104.63949489 -4.67097412 108.07746018 -3.86050017 111.515625 -3.05078125 C112.34093216 -2.8556192 113.16623932 -2.66045715 114.01655579 -2.4593811 C120.22047628 -0.99952913 126.44212072 0.31858397 132.703125 1.51171875 C151.85933025 5.23217207 151.85933025 5.23217207 157.00341797 12.76660156 C158.33728503 16.32994263 158.13503749 19.86966289 158.0859375 23.62109375 C158.08169266 24.84448456 158.08169266 24.84448456 158.07736206 26.09259033 C158.06619058 28.69078403 158.04109175 31.2886297 158.015625 33.88671875 C158.00559127 35.65103668 157.99646611 37.41536003 157.98828125 39.1796875 C157.96626119 43.49883148 157.93175233 47.81771616 157.890625 52.13671875 C158.90382813 52.0903125 159.91703125 52.04390625 160.9609375 51.99609375 C162.31247032 51.95855117 163.66403528 51.92215369 165.015625 51.88671875 C165.68078125 51.85320312 166.3459375 51.8196875 167.03125 51.78515625 C172.16687407 51.68445774 174.94225293 52.92580753 178.890625 56.13671875 C181.60587655 60.11908769 181.68948453 64.48073946 180.890625 69.13671875 C178.84974833 72.98267359 175.93396389 75.55200199 171.890625 77.13671875 C169.25911725 77.38971841 169.25911725 77.38971841 166.19899178 77.39398766 C165.03127365 77.40043655 163.86355553 77.40688544 162.66045201 77.41352975 C161.37661936 77.41043255 160.09278672 77.40733535 158.77005005 77.40414429 C157.39318812 77.4078801 156.01632832 77.41248135 154.63947189 77.41787493 C150.85194305 77.43012884 147.06450238 77.42984167 143.27695823 77.42748618 C139.1936988 77.42707862 135.11046788 77.43811133 131.02722168 77.44760132 C123.02598574 77.4642252 115.02477927 77.46971148 107.02352752 77.47082607 C100.5209997 77.47177586 94.01848162 77.47588264 87.51595688 77.48222733 C69.08724402 77.49984323 50.65855448 77.50906561 32.22983314 77.50756638 C31.23601457 77.50748647 30.242196 77.50740655 29.21826172 77.50732422 C27.72571752 77.50720158 27.72571752 77.50720158 26.20302092 77.50707646 C10.07330498 77.50626337 -6.0563176 77.52540578 -22.18600653 77.55360095 C-38.74085047 77.58231139 -55.29564887 77.59614227 -71.85051835 77.5944134 C-81.14765814 77.59374888 -90.44470007 77.59926834 -99.74181747 77.6207695 C-107.65696505 77.63895707 -115.5719704 77.64334862 -123.48712979 77.62975065 C-127.52638198 77.62320879 -131.56536113 77.62314742 -135.60458755 77.64045715 C-139.30205453 77.65613951 -142.99903088 77.65337438 -146.69648553 77.63588889 C-148.66824328 77.63134841 -150.64001596 77.6465142 -152.6117152 77.66236818 C-159.0580867 77.61181878 -163.24492923 77.56038008 -168.109375 73.13671875 C-168.728125 72.57984375 -169.346875 72.02296875 -169.984375 71.44921875 C-171.79243107 67.73265905 -171.74730123 64.18159166 -171.109375 60.13671875 C-169.04845587 56.08848474 -167.38620481 53.68350553 -163.109375 52.13671875 C-160.48510995 51.99713018 -157.97644753 51.94740506 -155.359375 52.01171875 C-154.66199219 52.02074219 -153.96460938 52.02976562 -153.24609375 52.0390625 C-151.53370542 52.06251987 -149.82149496 52.09838771 -148.109375 52.13671875 C-148.13032227 51.05253662 -148.15126953 49.96835449 -148.17285156 48.85131836 C-148.24558602 44.80539301 -148.29129543 40.75952476 -148.32910156 36.71313477 C-148.34914122 34.96629091 -148.37638087 33.2195135 -148.41113281 31.47290039 C-148.45999082 28.95312043 -148.48241986 26.4342319 -148.5 23.9140625 C-148.52064514 23.14086166 -148.54129028 22.36766083 -148.56256104 21.57102966 C-148.56514939 15.22924811 -146.83498938 10.87383361 -142.2578125 6.27734375 C-139.42713079 4.7745091 -136.9073223 4.37701966 -133.734375 3.88671875 C-125.36344686 2.48277249 -117.11789621 0.58094451 -108.859375 -1.36328125 C-107.59303223 -1.66008789 -106.32668945 -1.95689453 -105.02197266 -2.26269531 C-99.26653429 -3.61947924 -93.52385198 -5.00810441 -87.796875 -6.48046875 C-82.68057498 -7.76766351 -77.57634906 -8.71928005 -72.359375 -9.48828125 C-71.57433594 -9.60945313 -70.78929687 -9.730625 -69.98046875 -9.85546875 C-44.85938065 -13.68820524 -23.03382818 -10.63305789 0 0 Z M-94.609375 21.19921875 C-96.82276339 21.72904496 -99.03648444 22.25746375 -101.25024414 22.78573608 C-102.65717062 23.12172062 -104.06391479 23.45846969 -105.47045898 23.79605103 C-109.12440877 24.67157434 -112.78221148 25.51896809 -116.453125 26.3203125 C-120.03141377 27.05412799 -120.03141377 27.05412799 -123.109375 28.13671875 C-123.109375 36.05671875 -123.109375 43.97671875 -123.109375 52.13671875 C-85.159375 52.13671875 -47.209375 52.13671875 -8.109375 52.13671875 C-8.109375 43.22671875 -8.109375 34.31671875 -8.109375 25.13671875 C-13.13107145 21.68275425 -13.13107145 21.68275425 -18.3515625 19.46875 C-19.48658203 19.08879883 -19.48658203 19.08879883 -20.64453125 18.70117188 C-21.41667969 18.45302734 -22.18882812 18.20488281 -22.984375 17.94921875 C-23.74878906 17.68947266 -24.51320313 17.42972656 -25.30078125 17.16210938 C-33.3695185 14.51134425 -41.09333294 13.94052013 -49.546875 13.88671875 C-50.32224609 13.86609375 -51.09761719 13.84546875 -51.89648438 13.82421875 C-66.29661652 13.73271672 -80.69694362 17.83766948 -94.609375 21.19921875 Z M16.890625 26.13671875 C16.890625 34.71671875 16.890625 43.29671875 16.890625 52.13671875 C55.170625 52.13671875 93.450625 52.13671875 132.890625 52.13671875 C132.890625 44.21671875 132.890625 36.29671875 132.890625 28.13671875 C129.36724522 26.72736684 126.67932636 25.77252193 123.06640625 25.05859375 C122.13256104 24.87006836 121.19871582 24.68154297 120.23657227 24.48730469 C118.73501587 24.19001465 118.73501587 24.19001465 117.203125 23.88671875 C106.9895378 21.82209423 96.83991316 19.54788485 86.71020508 17.10449219 C66.20684108 12.24898525 33.23928738 9.78805637 16.890625 26.13671875 Z " fill="#080808" transform="translate(245.109375,348.86328125)"/>
<path d="M0 0 C0.63164062 0.62132813 1.26328125 1.24265625 1.9140625 1.8828125 C1.9140625 2.5428125 1.9140625 3.2028125 1.9140625 3.8828125 C2.5740625 3.8828125 3.2340625 3.8828125 3.9140625 3.8828125 C18.63027726 18.56448215 25.69613766 40.26911103 26.2265625 60.6328125 C25.841007 82.48898974 17.66319105 102.08319395 2.828125 118.140625 C0.9140625 119.8828125 0.9140625 119.8828125 -1.0859375 119.8828125 C-1.0859375 120.5428125 -1.0859375 121.2028125 -1.0859375 121.8828125 C-1.7459375 121.8828125 -2.4059375 121.8828125 -3.0859375 121.8828125 C-3.09180374 122.4391185 -3.09766998 122.9954245 -3.10371399 123.56858826 C-3.16797637 129.39329915 -3.252478 135.21747419 -3.34838867 141.04174805 C-3.38150748 143.21127223 -3.40957943 145.38087988 -3.43237305 147.55053711 C-3.46615962 150.68118639 -3.51848728 153.81107976 -3.57421875 156.94140625 C-3.58060867 157.90114853 -3.5869986 158.86089081 -3.59358215 159.84971619 C-3.88133698 173.22808314 -9.62370616 185.43555304 -19.0859375 194.8828125 C-30.69141039 203.54295704 -40.52687183 206.416268 -54.83251953 206.32885742 C-56.95053696 206.32035425 -59.06584169 206.34917415 -61.18359375 206.38085938 C-69.47387223 206.42411532 -76.49542838 205.47118913 -84.0859375 201.8828125 C-85.63474609 201.15771484 -85.63474609 201.15771484 -87.21484375 200.41796875 C-98.61270146 193.52070975 -106.2527245 182.72888952 -109.6159668 169.85375977 C-110.28741575 165.60915595 -110.22167729 161.41963193 -110.2265625 157.12890625 C-110.24487799 155.20376409 -110.26444712 153.27863352 -110.28515625 151.35351562 C-110.31419968 148.329307 -110.33593982 145.30585169 -110.33642578 142.28149414 C-110.33975328 139.35495734 -110.37424182 136.4301443 -110.4140625 133.50390625 C-110.4069928 132.59966415 -110.3999231 131.69542206 -110.39263916 130.76377869 C-110.42859621 125.52879901 -110.42859621 125.52879901 -113.48974609 121.42993164 C-114.34648926 120.91938232 -115.20323242 120.40883301 -116.0859375 119.8828125 C-132.37234365 102.38787444 -140.9508845 80.82025321 -140.3359375 56.96484375 C-139.25179568 34.13823778 -129.17653718 14.60045126 -113.0859375 -1.1171875 C-108.44864936 -5.1171875 -108.44864936 -5.1171875 -106.0859375 -5.1171875 C-106.0859375 -5.7771875 -106.0859375 -6.4371875 -106.0859375 -7.1171875 C-71.07014911 -28.86042744 -31.6281511 -26.15930653 0 0 Z M-88.0859375 11.8828125 C-89.10880859 12.48029297 -89.10880859 12.48029297 -90.15234375 13.08984375 C-91.97924729 14.18034967 -91.97924729 14.18034967 -94.0859375 15.8828125 C-94.0859375 16.5428125 -94.0859375 17.2028125 -94.0859375 17.8828125 C-94.66859375 18.12 -95.25125 18.3571875 -95.8515625 18.6015625 C-98.56146587 20.1554931 -99.95124552 21.90210681 -101.8359375 24.3828125 C-102.44953125 25.176875 -103.063125 25.9709375 -103.6953125 26.7890625 C-105.2703591 28.74156615 -105.2703591 28.74156615 -105.0859375 30.8828125 C-105.7459375 30.8828125 -106.4059375 30.8828125 -107.0859375 30.8828125 C-107.88918237 32.52302625 -108.67784342 34.17038307 -109.4609375 35.8203125 C-109.90179688 36.73683594 -110.34265625 37.65335938 -110.796875 38.59765625 C-115.91586052 51.64331329 -116.15405652 67.93216026 -111.33984375 81.06640625 C-107.43395884 89.83943746 -102.09421725 97.27500588 -95.0859375 103.8828125 C-93.6009375 104.3778125 -93.6009375 104.3778125 -92.0859375 104.8828125 C-92.0859375 105.5428125 -92.0859375 106.2028125 -92.0859375 106.8828125 C-90.4359375 108.2028125 -88.7859375 109.5228125 -87.0859375 110.8828125 C-86.4259375 115.8328125 -85.7659375 120.7828125 -85.0859375 125.8828125 C-66.6059375 125.8828125 -48.1259375 125.8828125 -29.0859375 125.8828125 C-28.7559375 121.9228125 -28.4259375 117.9628125 -28.0859375 113.8828125 C-25.45709325 109.50140541 -23.02803845 106.81116245 -19.2734375 103.5703125 C-8.88290332 94.27621996 -1.13576694 82.87191484 0.11865234 68.54638672 C0.21733017 66.05038882 0.24326107 63.56817953 0.2265625 61.0703125 C0.22092285 60.18738525 0.2152832 59.30445801 0.20947266 58.39477539 C-0.05361534 44.24402734 -5.42103393 31.36386348 -15.0859375 20.8828125 C-18.27615676 18.00409613 -21.6168243 15.41521067 -25.0859375 12.8828125 C-26.02373047 12.15384766 -26.02373047 12.15384766 -26.98046875 11.41015625 C-44.64720823 -1.17595227 -70.36900873 1.21906864 -88.0859375 11.8828125 Z M-85.0859375 151.8828125 C-85.0859375 163.52048378 -84.22646493 167.77730267 -77.09765625 176.0859375 C-71.05973631 181.47903104 -64.99869402 181.43113772 -57.2734375 181.4453125 C-55.71012695 181.50041992 -55.71012695 181.50041992 -54.11523438 181.55664062 C-45.68604702 181.60426315 -40.50758795 179.19276383 -34.50097656 173.33789062 C-28.34150601 166.42683125 -29.0859375 161.45703795 -29.0859375 151.8828125 C-47.5659375 151.8828125 -66.0459375 151.8828125 -85.0859375 151.8828125 Z " fill="#0B0B0B" transform="translate(307.0859375,119.1171875)"/>
<path d="M0 0 C11.60305647 5.40769081 19.41418948 13.3651702 24.015625 25.1953125 C25.9114027 31.40588024 26.53058926 37.4333216 25.3671875 43.83203125 C23.61233938 47.10243002 21.93153289 49.10837373 18.9921875 51.39453125 C13.4041258 53.05025324 10.0617946 52.12431969 4.9921875 49.39453125 C2.46749299 47.39218733 1.27101867 45.33267228 -0.0078125 42.39453125 C-0.24609375 40.28125 -0.24609375 40.28125 -0.3203125 38.08203125 C-0.80267257 33.1194454 -2.38998044 29.84321792 -6.0078125 26.39453125 C-9.99519262 24.12719746 -13.73316974 23.23134426 -18.1953125 22.45703125 C-21.36392269 21.87042967 -22.85585763 21.50469853 -25.5078125 19.58203125 C-28.62713417 15.03302048 -29.41830566 11.73348862 -28.55078125 6.32421875 C-27.51459556 2.64165954 -25.41177503 0.24833287 -22.18359375 -1.71484375 C-15.10749921 -4.61134206 -6.88136305 -2.52912434 0 0 Z " fill="#101010" transform="translate(266.0078125,140.60546875)"/>
<path d="M0 0 C2.72652 2.20442043 4.43191692 4.86383384 6 8 C6.43708609 17.03311258 6.43708609 17.03311258 4 20 C-1.88426474 24.37898771 -8.76652188 25.70920203 -15.77587891 27.43505859 C-18.16732923 28.04250273 -20.54198066 28.69800458 -22.91796875 29.36328125 C-24.16852051 29.70854858 -24.16852051 29.70854858 -25.44433594 30.06079102 C-27.06537096 30.5089091 -28.6846408 30.96347982 -30.30175781 31.42553711 C-35.9385084 32.95621682 -41.48862508 33.97538192 -47.25 32.375 C-50.6619388 29.69419094 -52.69480731 26.90745432 -53.390625 22.55859375 C-53.56948799 18.27227003 -53.43788932 15.72478233 -51.1875 12 C-47.35775525 8.49851909 -44.10486684 7.36025687 -39.13671875 6.08984375 C-38.46711624 5.91747696 -37.79751373 5.74511017 -37.10762024 5.56752014 C-35.69198797 5.20432709 -34.27564054 4.84391175 -32.85864258 4.48608398 C-30.70421793 3.94172413 -28.55218822 3.38862727 -26.40039062 2.83398438 C-6.97673331 -2.13285033 -6.97673331 -2.13285033 0 0 Z " fill="#0F0F0F" transform="translate(420,130)"/>
<path d="M0 0 C5.80267215 1.80051696 11.55183352 3.04040816 17.54516602 4.07006836 C21.71039917 5.29870195 24.40921168 7.27124046 26.78735352 10.91772461 C28.078037 14.59120839 28.03608117 18.11023717 27.49829102 21.94116211 C25.78245457 25.4363845 24.53141666 27.32687119 21.18579102 29.31616211 C15.24870878 30.69687891 9.89196957 29.76002092 4.06079102 28.29663086 C3.37702393 28.12617752 2.69325684 27.95572418 1.98876953 27.78010559 C0.55246589 27.42003578 -0.88283323 27.05593707 -2.31713867 26.68798828 C-4.49330469 26.1308139 -6.67283628 25.58877968 -8.85327148 25.04858398 C-15.31471034 23.41962619 -21.42534462 21.68852731 -27.50170898 18.94116211 C-27.50170898 18.28116211 -27.50170898 17.62116211 -27.50170898 16.94116211 C-28.16170898 16.94116211 -28.82170898 16.94116211 -29.50170898 16.94116211 C-31.97563625 13.23027121 -32.19746069 9.24819648 -31.50170898 4.94116211 C-27.42665768 -2.39393024 -27.42665768 -2.39393024 -23.66967773 -3.69165039 C-15.58772284 -5.06048599 -7.63378307 -2.38454627 0 0 Z " fill="#101010" transform="translate(105.501708984375,133.058837890625)"/>
<path d="M0 0 C4.06743247 2.10903906 6.28539593 3.77809105 8 8 C9.226511 15.031104 7.06886225 19.89697471 3.375 25.75 C2.94832031 26.47832031 2.52164062 27.20664063 2.08203125 27.95703125 C-1.06512771 33.13340315 -4.47033028 37.23516514 -10 40 C-15.71972855 40.5499739 -18.51288972 39.54794766 -23 36 C-25.2832602 33.7167398 -25.41080934 32.92426361 -25.8125 29.8125 C-25.97685547 28.70841797 -25.97685547 28.70841797 -26.14453125 27.58203125 C-25.81170487 21.63613287 -22.14688384 16.28038297 -19.125 11.3125 C-18.46757812 10.21550781 -17.81015625 9.11851563 -17.1328125 7.98828125 C-12.57607621 1.60384304 -7.84069087 -1.06388556 0 0 Z " fill="#101010" transform="translate(366,74)"/>
<path d="M0 0 C3.88326331 3.38752757 6.25654781 7.20234926 8.9375 11.5625 C9.41703125 12.24957031 9.8965625 12.93664062 10.390625 13.64453125 C13.62522462 18.35700829 14.9375 21.79706329 14.9375 27.5625 C13.71065619 31.89253697 12.5576553 34.0128169 9.1875 37 C5.33247128 38.85337919 3.16739818 39.16677117 -1.0625 38.5625 C-7.34651322 35.68232727 -10.47759489 30.21497828 -14.0625 24.5625 C-14.57554687 23.79164062 -15.08859375 23.02078125 -15.6171875 22.2265625 C-18.81853112 17.07185668 -20.16506392 12.63240452 -19.0625 6.5625 C-18.03515625 4.30078125 -18.03515625 4.30078125 -17.0625 2.5625 C-16.4025 2.5625 -15.7425 2.5625 -15.0625 2.5625 C-15.0625 1.9025 -15.0625 1.2425 -15.0625 0.5625 C-9.81301886 -1.98270298 -5.3642487 -2.51791266 0 0 Z " fill="#111111" transform="translate(145.0625,75.4375)"/>
<path d="M0 0 C3.58661398 1.28876802 6.74374037 3.03278433 10 5 C10.82113281 5.46921875 11.64226562 5.9384375 12.48828125 6.421875 C17.70353593 9.59712007 20.81050118 12.22768494 23 18 C23.30897108 22.26054855 22.46829149 25.20217006 20.3125 28.875 C17.51670517 31.44410876 15.73247191 32.28221694 12 33 C5.22959982 32.71035721 0.8844213 30.67489094 -4.8125 27.125 C-5.93688477 26.45404297 -5.93688477 26.45404297 -7.08398438 25.76953125 C-15.355449 20.75786635 -15.355449 20.75786635 -17.375 15.25 C-18.36314907 10.73274709 -17.38244119 7.99635296 -15 4 C-10.83187517 -0.92596571 -6.03564487 -1.01180636 0 0 Z " fill="#0F0F0F" transform="translate(385,194)"/>
<path d="M0 0 C2.73377373 1.36688687 3.92288457 2.64957991 6 5 C6.89214652 7.67643957 7.13540211 9.25384378 7.125 12 C7.12886719 13.0209375 7.12886719 13.0209375 7.1328125 14.0625 C7 16 7 16 6 19 C5.34 19 4.68 19 4 19 C3.74041504 19.61206299 3.48083008 20.22412598 3.21337891 20.85473633 C1.1971831 24.41938675 -2.11976957 25.75676055 -5.625 27.6875 C-6.31207031 28.09033203 -6.99914062 28.49316406 -7.70703125 28.90820312 C-12.74277563 31.72840894 -18.06592747 34.02673201 -23.93920898 32.49389648 C-27.2187985 31.19154939 -29.77434116 29.72595103 -32 27 C-33.28713366 22.72313181 -33.32093063 18.98167017 -31.9375 14.75 C-24.93402693 4.80958661 -12.02316264 -1.5409969 0 0 Z " fill="#111111" transform="translate(125,194)"/>
<path d="M0 0 C0.66 0.33 1.32 0.66 2 1 C-1.4240805 4.63808553 -5.03274279 7.56181575 -9.0625 10.5078125 C-11.62195507 12.47900572 -13.78817284 14.64993364 -16 17 C-16.66 16.67 -17.32 16.34 -18 16 C-10.48128693 7.07288247 -10.48128693 7.07288247 -6 4 C-5.34 4 -4.68 4 -4 4 C-4 3.34 -4 2.68 -4 2 C-2.125 0.9375 -2.125 0.9375 0 0 Z " fill="#5C5C5C" transform="translate(205,110)"/>
<path d="M0 0 C0 0.33 0 0.66 0 1 C-2.8329581 1.1967332 -5.66596323 1.38259641 -8.5 1.5625 C-9.68722656 1.64661133 -9.68722656 1.64661133 -10.8984375 1.73242188 C-16.09519779 2.05189484 -20.85281562 1.79686914 -26 1 C-26 0.67 -26 0.34 -26 0 C-17.19039858 -1.30512614 -8.80960142 -1.30512614 0 0 Z " fill="#818181" transform="translate(208,338)"/>
<path d="M0 0 C13.6332574 -0.18451025 13.6332574 -0.18451025 20 1 C20 1.33 20 1.66 20 2 C17.41718562 2.24927162 14.83587772 2.47499275 12.25 2.6875 C11.15558594 2.79674805 11.15558594 2.79674805 10.0390625 2.90820312 C6.62073925 3.17234629 4.48441691 3.28508387 1.484375 1.51953125 C0.99453125 1.01808594 0.5046875 0.51664062 0 0 Z " fill="#656565" transform="translate(243,97)"/>
<path d="M0 0 C1.32 0.66 2.64 1.32 4 2 C-1.75 6 -1.75 6 -4 6 C-4 6.66 -4 7.32 -4 8 C-4.66 8 -5.32 8 -6 8 C-5.6875 6.125 -5.6875 6.125 -5 4 C-4.01 3.34 -3.02 2.68 -2 2 C-1.34 2.33 -0.68 2.66 0 3 C0 2.01 0 1.02 0 0 Z " fill="#4A4A4A" transform="translate(217,129)"/>
<path d="M0 0 C0.66 0.33 1.32 0.66 2 1 C-0.80804268 3.96404505 -3.18315774 6.44499019 -7 8 C-6.67 6.68 -6.34 5.36 -6 4 C-5.34 4 -4.68 4 -4 4 C-4 3.34 -4 2.68 -4 2 C-2.125 0.9375 -2.125 0.9375 0 0 Z " fill="#3A3A3A" transform="translate(205,110)"/>
<path d="M0 0 C0.66 1.32 1.32 2.64 2 4 C1.04578192 5.14926266 0.08647955 6.29430541 -0.875 7.4375 C-1.40867187 8.07558594 -1.94234375 8.71367188 -2.4921875 9.37109375 C-4 11 -4 11 -6 12 C-4.43358249 7.69235185 -2.31663844 3.93828536 0 0 Z " fill="#474747" transform="translate(350,80)"/>
<path d="M0 0 C-1.14728098 3.44184294 -2.03284654 4.08007717 -5 6 C-5.99 6.33 -6.98 6.66 -8 7 C-6.47663111 3.31852519 -4.31953005 0 0 0 Z " fill="#626262" transform="translate(377,194)"/>
<path d="M0 0 C0.33 0 0.66 0 1 0 C1 2.31 1 4.62 1 7 C1.99 7.33 2.98 7.66 4 8 C3.67 9.65 3.34 11.3 3 13 C0.95204577 11.0373772 0.05023362 9.5722693 -0.19921875 6.73046875 C-0.18858877 4.48045617 -0.12958525 2.24614438 0 0 Z " fill="#585858" transform="translate(126,82)"/>
<path d="M0 0 C0.90105469 0.02707031 1.80210937 0.05414063 2.73046875 0.08203125 C3.76107422 0.13423828 3.76107422 0.13423828 4.8125 0.1875 C4.8125 0.5175 4.8125 0.8475 4.8125 1.1875 C-3.61607143 3.47321429 -3.61607143 3.47321429 -8.1875 3.1875 C-5.67753317 0.01043235 -3.96125134 -0.15433447 0 0 Z " fill="#5C5C5C" transform="translate(410.1875,153.8125)"/>
</svg>
