<?xml version="1.0" encoding="UTF-8"?>
<svg version="1.1" xmlns="http://www.w3.org/2000/svg" width="500" height="500">
<path d="M0 0 C1.18770996 -0.0100708 2.37541992 -0.0201416 3.59912109 -0.03051758 C13.95789632 0.07118047 22.80333902 2.31999964 32.25 6.4375 C33.98056641 7.18 33.98056641 7.18 35.74609375 7.9375 C38.8125 9.4375 38.8125 9.4375 40.91015625 11.1875 C42.75861256 12.66764571 42.75861256 12.66764571 45.14453125 12.3359375 C48.46293855 11.21846506 51.40700854 9.70424463 54.5 8.0625 C60.13012469 5.14443853 65.64937813 2.93788547 71.8125 1.4375 C72.39128906 1.26694092 72.97007812 1.09638184 73.56640625 0.9206543 C94.43620645 -3.5686212 115.11518789 1.39863369 132.8125 12.4375 C135.97132187 14.58667191 139.10825628 16.7259277 141.8125 19.4375 C141.8125 20.0975 141.8125 20.7575 141.8125 21.4375 C142.4725 21.4375 143.1325 21.4375 143.8125 21.4375 C143.8125 22.0975 143.8125 22.7575 143.8125 23.4375 C144.4725 23.4375 145.1325 23.4375 145.8125 23.4375 C159.50103628 37.09456838 164.81619646 55.7159662 164.875 74.5625 C164.854375 75.84125 164.83375 77.12 164.8125 78.4375 C165.50472656 78.68242188 166.19695312 78.92734375 166.91015625 79.1796875 C173.37196288 81.64862547 179.00630067 84.60647174 184.75 88.4375 C185.37592041 88.85241699 186.00184082 89.26733398 186.64672852 89.69482422 C190.4396912 92.28730174 193.63749371 95.09042169 196.8125 98.4375 C197.740625 99.324375 198.66875 100.21125 199.625 101.125 C201.8125 103.4375 201.8125 103.4375 201.8125 105.4375 C202.8025 105.7675 203.7925 106.0975 204.8125 106.4375 C206.3911787 108.53649227 207.80325313 110.59091579 209.1875 112.8125 C209.58670654 113.44808838 209.98591309 114.08367676 210.3972168 114.73852539 C223.46148448 135.9065182 227.20755582 161.46321205 222.5625 185.875 C221.2927182 191.1849966 219.60538036 196.29354134 217.58203125 201.36328125 C216.69655605 203.38129137 216.69655605 203.38129137 216.8125 205.4375 C217.4725 205.4375 218.1325 205.4375 218.8125 205.4375 C218.8125 206.0975 218.8125 206.7575 218.8125 207.4375 C219.4725 207.4375 220.1325 207.4375 220.8125 207.4375 C220.8125 208.0975 220.8125 208.7575 220.8125 209.4375 C221.4725 209.4375 222.1325 209.4375 222.8125 209.4375 C224.3631186 211.4694501 225.75652351 213.47385494 227.125 215.625 C227.7284021 216.57197754 227.7284021 216.57197754 228.34399414 217.53808594 C232.05488362 223.53956479 234.71454726 229.69408049 236.8125 236.4375 C237.05742187 237.20707031 237.30234375 237.97664062 237.5546875 238.76953125 C242.18370762 256.87343871 238.71632694 276.41557186 229.8125 292.4375 C229.13872707 293.76725647 228.46909459 295.09917801 227.8125 296.4375 C227.1525 296.4375 226.4925 296.4375 225.8125 296.4375 C225.4721875 297.5203125 225.4721875 297.5203125 225.125 298.625 C223.54844914 302.00332327 221.50263425 303.87546738 218.8125 306.4375 C214.61691408 310.72790142 214.04778553 314.28700432 213.375 320 C211.5097007 332.8883485 206.92414262 342.229409 198.8125 352.4375 C198.11253906 353.36691406 197.41257812 354.29632813 196.69140625 355.25390625 C196.07136719 355.97449219 195.45132812 356.69507813 194.8125 357.4375 C194.1525 357.4375 193.4925 357.4375 192.8125 357.4375 C192.8125 358.0975 192.8125 358.7575 192.8125 359.4375 C185.39625405 364.88472676 177.59532001 368.72920881 168.8125 371.4375 C167.8225 371.7675 166.8325 372.0975 165.8125 372.4375 C163.75104893 372.506491 161.68748599 372.52217727 159.625 372.5 C158.53832031 372.49097656 157.45164062 372.48195313 156.33203125 372.47265625 C155.50058594 372.46105469 154.66914063 372.44945312 153.8125 372.4375 C153.52375 373.19417969 153.235 373.95085937 152.9375 374.73046875 C151.59371646 377.9639479 149.90060479 380.63160919 147.8125 383.4375 C147.1525 383.4375 146.4925 383.4375 145.8125 383.4375 C145.8125 384.0975 145.8125 384.7575 145.8125 385.4375 C145.1525 385.4375 144.4925 385.4375 143.8125 385.4375 C143.50505859 386.28828125 143.50505859 386.28828125 143.19140625 387.15625 C141.31394671 390.26230204 138.70956546 391.95899901 135.75 393.9375 C135.16653809 394.33332275 134.58307617 394.72914551 133.98193359 395.13696289 C129.48061983 398.12813851 124.94156885 400.67609379 119.8125 402.4375 C118.34490234 402.96923828 118.34490234 402.96923828 116.84765625 403.51171875 C111.38675833 405.02984837 105.74989135 404.80606788 100.125 404.8125 C99.01705078 404.83699219 97.90910156 404.86148437 96.76757812 404.88671875 C81.14736957 404.94149447 66.95330823 398.32510805 55.8125 387.4375 C55.8125 386.7775 55.8125 386.1175 55.8125 385.4375 C51.34457155 383.27559914 46.76382681 382.3328945 41.8125 382.4375 C38.44371229 383.74469263 38.44371229 383.74469263 35.8125 385.4375 C35.1525 385.4375 34.4925 385.4375 33.8125 385.4375 C33.55726563 386.03175781 33.30203125 386.62601562 33.0390625 387.23828125 C30.64207858 391.53605816 26.32950391 394.70430526 21.61328125 396.078125 C18.32746072 396.53971901 15.97220485 396.49073495 12.8125 395.4375 C12.8125 394.7775 12.8125 394.1175 12.8125 393.4375 C12.1525 393.4375 11.4925 393.4375 10.8125 393.4375 C8.48557692 386.2117915 8.48557692 386.2117915 10 382.625 C13.18257874 378.78395669 13.18257874 378.78395669 14.8125 377.4375 C15.4725 377.4375 16.1325 377.4375 16.8125 377.4375 C16.8125 376.7775 16.8125 376.1175 16.8125 375.4375 C21.26911642 370.62530249 26.60633389 366.65300498 32.8125 364.4375 C33.8025 364.4375 34.7925 364.4375 35.8125 364.4375 C35.78631592 363.25196533 35.76013184 362.06643066 35.7331543 360.8449707 C35.64250979 356.43761134 35.58519912 352.030334 35.5378418 347.62231445 C35.51273001 345.71624893 35.47863355 343.81027941 35.43530273 341.90454102 C35.37450256 339.16138002 35.34625755 336.41949414 35.32421875 333.67578125 C35.29841232 332.82663651 35.2726059 331.97749176 35.24601746 331.10261536 C35.24393181 326.68202361 35.37768209 324.98715546 38.21411133 321.40161133 C40.7231086 319.50507059 41.73577065 318.75046917 44.8125 318.8125 C45.451875 318.79960937 46.09125 318.78671875 46.75 318.7734375 C50.1535704 319.86928403 51.60615144 321.64844396 53.8125 324.4375 C54.49158797 327.52765484 54.39654974 330.52457747 54.30078125 333.67578125 C54.29016914 334.99693184 54.29016914 334.99693184 54.27934265 336.34477234 C54.25143848 339.14739285 54.18870943 341.94798735 54.125 344.75 C54.0999119 346.65426794 54.07709962 348.55856732 54.05664062 350.46289062 C54.00162503 355.12186984 53.91538151 359.77934189 53.8125 364.4375 C54.59044922 364.57631592 55.36839844 364.71513184 56.16992188 364.8581543 C62.26579901 366.19458412 68.25216422 371.31848704 72.8125 375.4375 C72.8125 376.0975 72.8125 376.7575 72.8125 377.4375 C73.8025 377.80875 73.8025 377.80875 74.8125 378.1875 C77.18367108 379.17548795 79.36135876 380.24094013 81.625 381.4375 C91.68594179 386.45860316 101.94597102 386.79850155 112.6875 383.6875 C117.31714179 382.13504527 120.93815137 380.3694395 124.8125 377.4375 C125.4725 377.4375 126.1325 377.4375 126.8125 377.4375 C126.8125 376.7775 126.8125 376.1175 126.8125 375.4375 C129.1875 372.8125 129.1875 372.8125 131.8125 370.4375 C132.4725 370.4375 133.1325 370.4375 133.8125 370.4375 C134.09222656 369.86515625 134.37195313 369.2928125 134.66015625 368.703125 C135.78849794 366.48469048 137.00575507 364.34264076 138.25 362.1875 C140.57227776 358.04450151 142.2630501 353.92274971 143.8125 349.4375 C143.1525 349.7675 142.4925 350.0975 141.8125 350.4375 C126.75713523 351.39514051 116.53451401 349.60780966 104.125 340.53515625 C100.76866221 337.49064038 98.96284752 334.91090568 98.5 330.375 C98.80814891 327.47840023 99.18879553 325.83032764 100.8125 323.4375 C104.51500875 320.96916083 107.51701345 320.757988 111.8125 321.4375 C115.3125 323.3125 115.3125 323.3125 117.8125 325.4375 C117.8125 326.0975 117.8125 326.7575 117.8125 327.4375 C125.91048769 330.48142445 133.62635092 333.13557861 141.90234375 329.43359375 C142.53269531 329.10488281 143.16304688 328.77617187 143.8125 328.4375 C144.43253906 328.11910156 145.05257813 327.80070312 145.69140625 327.47265625 C151.14847988 324.1606958 153.89261459 319.44460813 155.8125 313.4375 C156.78915718 306.74042222 156.10785629 300.407748 152.8125 294.4375 C152.090625 293.633125 151.36875 292.82875 150.625 292 C147.97272867 288.25023709 148.14654626 284.8910656 148.8125 280.4375 C149.875 277.9375 149.875 277.9375 151.8125 276.4375 C155.26692895 275.54190731 157.86675618 275.25296462 161.375 275.9375 C168.69007552 280.43908494 172.31275427 288.16322466 175.0625 296 C178.01478988 309.66105045 175.39662771 322.4585483 167.9609375 334.109375 C167.58195312 334.54765625 167.20296875 334.9859375 166.8125 335.4375 C166.1525 335.4375 165.4925 335.4375 164.8125 335.4375 C164.4825 341.0475 164.1525 346.6575 163.8125 352.4375 C169.57508753 350.28613399 174.14867138 348.51835004 178.8125 344.4375 C179.4725 344.4375 180.1325 344.4375 180.8125 344.4375 C180.8125 343.7775 180.8125 343.1175 180.8125 342.4375 C181.4725 342.4375 182.1325 342.4375 182.8125 342.4375 C183.21855469 341.56544922 183.21855469 341.56544922 183.6328125 340.67578125 C184.8076776 338.44664979 186.16351303 336.62671345 187.6875 334.625 C194.33348276 324.6886042 196.0414411 312.14775486 194.8125 300.4375 C194.18261832 297.71281183 193.43534614 295.14577703 192.46875 292.5234375 C191.8125 290.4375 191.8125 290.4375 191.8125 286.4375 C191.1525 286.4375 190.4925 286.4375 189.8125 286.4375 C188.515625 284.64453125 188.515625 284.64453125 187.0625 282.25 C182.61895255 275.35299226 182.61895255 275.35299226 175.38671875 271.90625 C174.51660156 271.7721875 173.64648438 271.638125 172.75 271.5 C169.30307932 270.92724883 167.10088989 270.40621704 164.625 267.875 C162.52526707 263.89274788 162.52510463 261.83002402 163.125 257.48828125 C163.97270131 254.95962679 164.60494593 253.95607223 166.8125 252.4375 C176.62462079 250.75206247 184.6759589 252.92099725 192.8125 258.4375 C195.41096792 260.56833192 197.82215069 262.71829038 199.8125 265.4375 C199.8125 266.0975 199.8125 266.7575 199.8125 267.4375 C200.4725 267.4375 201.1325 267.4375 201.8125 267.4375 C206.06910649 272.559656 208.75628157 278.15461036 210.8125 284.4375 C217.90229838 275.65965439 219.16002484 266.89272641 219.125 256 C219.14111328 255.00162109 219.15722656 254.00324219 219.17382812 252.97460938 C219.17794941 246.70613287 218.39058861 242.15413127 215.8125 236.4375 C215.26529297 235.12458984 215.26529297 235.12458984 214.70703125 233.78515625 C208.99113999 221.71368915 200.25944007 213.66533244 187.75 209.0625 C186.10827618 208.50850266 184.46381529 207.96221701 182.8125 207.4375 C182.38839844 208.29472656 181.96429688 209.15195312 181.52734375 210.03515625 C176.13591211 220.54548562 170.43366853 228.53163008 158.8125 232.4375 C155.18359375 232.7734375 155.18359375 232.7734375 151.25 232.8125 C149.94933594 232.84085938 148.64867187 232.86921875 147.30859375 232.8984375 C143.8125 232.4375 143.8125 232.4375 141.37890625 230.6953125 C139.63737561 228.18507631 139.27108265 226.96096671 139.3125 223.9375 C139.29703125 222.80828125 139.29703125 222.80828125 139.28125 221.65625 C140.02369843 218.55543595 141.32320005 217.39096758 143.8125 215.4375 C146.3984375 214.56640625 146.3984375 214.56640625 149.1875 214 C155.19622583 212.48781733 158.67117344 210.88778793 162.05859375 205.4296875 C164.70198563 200.17949048 165.93535668 195.26659078 164.8125 189.4375 C162.55400018 183.0079835 159.68812644 177.98504804 153.8125 174.4375 C151.25147835 173.81652328 148.69164992 173.37569999 146.09375 172.9375 C143.8125 172.4375 143.8125 172.4375 141.1875 170.875 C139.06610518 167.11434554 139.07770459 163.64517058 139.8125 159.4375 C141.25 156.9375 141.25 156.9375 143.8125 155.4375 C151.68598653 153.36471573 158.28799229 154.9915595 165.375 158.625 C172.96421546 163.10538021 178.50964068 169.21905709 181.8125 177.4375 C182.71772775 181.08198464 183.34604421 184.71281571 183.8125 188.4375 C184.54855469 188.57027344 185.28460938 188.70304688 186.04296875 188.83984375 C187.01878906 189.01644531 187.99460937 189.19304687 189 189.375 C189.96292969 189.54902344 190.92585938 189.72304687 191.91796875 189.90234375 C194.55489972 190.3898735 197.1844905 190.90421105 199.8125 191.4375 C207.55304517 174.29772142 205.73074375 153.84175236 199.5625 136.5625 C196.7983728 129.89509015 193.30536024 122.86656371 188.1015625 117.7578125 C186.8125 116.4375 186.8125 116.4375 186.8125 114.4375 C186.1525 114.4375 185.4925 114.4375 184.8125 114.4375 C182.1875 112.0625 182.1875 112.0625 179.8125 109.4375 C179.8125 108.7775 179.8125 108.1175 179.8125 107.4375 C178.8225 107.4375 177.8325 107.4375 176.8125 107.4375 C176.8125 106.7775 176.8125 106.1175 176.8125 105.4375 C176.131875 105.19 175.45125 104.9425 174.75 104.6875 C171.92330806 103.48465237 169.36686699 102.04935048 166.75390625 100.4375 C164.19878715 99.12138231 161.54923057 98.29970485 158.8125 97.4375 C158.37679688 98.22253906 157.94109375 99.00757813 157.4921875 99.81640625 C148.63575461 115.4397673 148.63575461 115.4397673 143.80078125 117.1484375 C140.93174879 117.62572571 138.33918962 117.55137884 135.5 116.9375 C132.70484367 114.4529166 131.86059949 111.98939272 130.8125 108.4375 C131.38596503 103.93170336 132.91481393 101.15159379 135.6875 97.6875 C142.27541922 89.42441306 143.99150666 79.35976973 143.9375 69.0625 C143.94136719 68.33289063 143.94523437 67.60328125 143.94921875 66.8515625 C143.94105535 62.280056 143.5621829 57.94749713 142.8125 53.4375 C125.19960237 51.74517647 125.19960237 51.74517647 108.3125 56.0625 C105.55299585 58.68402895 103.81122951 61.31266618 101.98828125 64.6328125 C100.8125 66.4375 100.8125 66.4375 97.8125 68.4375 C94.76796509 68.91969153 91.85958913 68.90034898 88.8125 68.4375 C86.31089182 66.56129387 85.19304348 65.19858697 83.8125 62.4375 C83.15035542 56.87548551 84.88437036 53.02933967 87.8125 48.4375 C90.25 45.6875 90.25 45.6875 92.8125 43.4375 C93.92625 42.4165625 93.92625 42.4165625 95.0625 41.375 C104.37810183 34.81173507 114.77302213 33.91991208 125.8125 32.4375 C111.61243161 21.68170352 97.03667733 17.55255891 79.3046875 19.90234375 C70.35907999 21.72379877 62.39492181 25.38255213 54.8125 30.4375 C54.37284738 32.2921866 54.37284738 32.2921866 54.45947266 34.44067383 C54.45398911 35.67754692 54.45398911 35.67754692 54.44839478 36.93940735 C54.4623378 38.27844368 54.4623378 38.27844368 54.4765625 39.64453125 C54.46404695 41.5293003 54.45100969 43.41406594 54.4375 45.29882812 C54.43357189 48.2746181 54.43750036 51.25007225 54.45214844 54.22583008 C54.46072544 57.0950741 54.4390197 59.96291092 54.4140625 62.83203125 C54.42740631 63.71864944 54.44075012 64.60526764 54.45449829 65.51875305 C54.40149955 69.95679473 54.24618811 71.86349565 51.49365234 75.5065918 C47.97936081 78.03750891 46.06117108 78.04445301 41.8125 77.4375 C37.2125 75.2375 37.2125 75.2375 35.8125 72.4375 C35.77667182 69.37390901 35.79719572 66.32792592 35.84765625 63.265625 C35.85368744 61.38542352 35.85685156 59.50521106 35.85742188 57.625 C35.85913967 54.65665313 35.8748958 51.69230842 35.93920898 48.72460938 C36.69363906 37.608288 36.69363906 37.608288 32.65576172 27.83300781 C30.04434655 26.24803653 27.73768116 25.28523195 24.8125 24.4375 C23.47521782 23.86327711 22.14095079 23.28186861 20.8125 22.6875 C6.6737505 17.94653043 -8.37618165 17.47391448 -22.1875 23.4375 C-29.67940167 27.23215782 -29.67940167 27.23215782 -36.1875 32.4375 C-35.00414062 32.60765625 -33.82078125 32.7778125 -32.6015625 32.953125 C-10.31733636 36.30766364 -10.31733636 36.30766364 -3.1875 43.4375 C-3.1875 44.0975 -3.1875 44.7575 -3.1875 45.4375 C-2.589375 45.664375 -1.99125 45.89125 -1.375 46.125 C1.59432076 47.90659246 2.41531777 49.24394061 3.8125 52.4375 C4.82879171 57.15433479 5.42863916 60.99984196 3.5 65.5 C0.96615949 68.40922429 -0.0330755 68.42231071 -4 68.8125 C-7.47488775 68.76843439 -8.08815046 68.51477186 -11 66.25 C-13.1875 63.4375 -13.1875 63.4375 -14.625 60.875 C-17.42830495 56.50184427 -20.99992564 54.70640772 -26 53.57421875 C-27.3934884 53.40403436 -28.78969203 53.25502122 -30.1875 53.125 C-30.92282959 53.04652832 -31.65815918 52.96805664 -32.41577148 52.88720703 C-39.42169751 52.23405471 -46.19771549 52.61777884 -53.1875 53.4375 C-55.4942208 67.66847915 -55.88792586 82.84874414 -47.5 95.125 C-44.59042513 99.39073265 -43.24722896 102.36863802 -43.68359375 107.55859375 C-44.44622789 110.40221407 -45.81936349 111.76587423 -48.1875 113.4375 C-50.9673816 114.8274408 -53.1061326 114.62238204 -56.1875 114.4375 C-59.74764233 113.11198892 -61.22913588 111.35621495 -63.25 108.1875 C-63.75917969 107.38957031 -64.26835937 106.59164062 -64.79296875 105.76953125 C-66.42144608 103.04627924 -67.85829824 100.31743715 -69.1875 97.4375 C-75.01700256 99.60340214 -80.09618136 101.87357695 -85.1875 105.4375 C-85.8475 105.4375 -86.5075 105.4375 -87.1875 105.4375 C-87.1875 106.0975 -87.1875 106.7575 -87.1875 107.4375 C-88.68359375 108.65625 -88.68359375 108.65625 -90.625 109.9375 C-93.41281847 111.7240363 -93.41281847 111.7240363 -95.1875 114.4375 C-95.8475 114.4375 -96.5075 114.4375 -97.1875 114.4375 C-97.45949219 115.02402344 -97.73148438 115.61054688 -98.01171875 116.21484375 C-99.16469136 118.39438333 -100.44192289 120.09659709 -102 122 C-112.39558339 135.75960429 -116.47410127 154.82742876 -114.86328125 171.8671875 C-114.19966421 176.12495445 -113.29379528 180.24706044 -112.0625 184.375 C-111.23270733 187.27927434 -111.11675965 189.45124673 -111.1875 192.4375 C-110.29546875 192.14875 -109.4034375 191.86 -108.484375 191.5625 C-107.31390625 191.19125 -106.1434375 190.82 -104.9375 190.4375 C-103.77734375 190.06625 -102.6171875 189.695 -101.421875 189.3125 C-98.1875 188.4375 -98.1875 188.4375 -94.1875 188.4375 C-94.11273438 187.75945312 -94.03796875 187.08140625 -93.9609375 186.3828125 C-92.46745833 175.81132266 -87.92648028 167.76020498 -79.49609375 161.1015625 C-74.28961863 157.21076252 -69.74200963 155.25600339 -63.1875 154.6875 C-61.6715625 154.54054687 -61.6715625 154.54054687 -60.125 154.390625 C-56.93727142 154.44149301 -54.99010651 154.93888402 -52.1875 156.4375 C-50.14718245 159.49797632 -49.87156476 160.37245994 -49.8125 163.875 C-49.78414063 164.63683594 -49.75578125 165.39867187 -49.7265625 166.18359375 C-50.37851228 169.37151768 -51.628053 170.46804161 -54.1875 172.4375 C-57.09765625 173.37890625 -57.09765625 173.37890625 -60.25 174 C-64.30183172 174.80635959 -66.43782697 175.34518859 -69.1875 178.4375 C-69.8475 178.4375 -70.5075 178.4375 -71.1875 178.4375 C-71.39246094 179.06398437 -71.59742188 179.69046875 -71.80859375 180.3359375 C-72.07800781 181.15320313 -72.34742188 181.97046875 -72.625 182.8125 C-72.89183594 183.62460938 -73.15867187 184.43671875 -73.43359375 185.2734375 C-74.1875 187.4375 -74.1875 187.4375 -75.1875 189.4375 C-76.29521817 196.78008901 -74.15905606 202.30869204 -70.1875 208.4375 C-66.502042 212.66493711 -62.11791031 213.41194887 -56.80859375 214.53125 C-53.65663463 215.62104808 -52.2212433 216.80725462 -50.1875 219.4375 C-49.65625 221.65625 -49.65625 221.65625 -49.6875 223.9375 C-49.67203125 225.06671875 -49.67203125 225.06671875 -49.65625 226.21875 C-50.41712837 229.39653611 -51.54523263 230.52824874 -54.1875 232.4375 C-61.12251089 233.52409157 -69.23988533 233.63443567 -75.359375 229.81640625 C-75.96265625 229.36136719 -76.5659375 228.90632812 -77.1875 228.4375 C-77.93515625 227.88964844 -78.6828125 227.34179688 -79.453125 226.77734375 C-85.42938391 221.95873764 -89.16374221 216.48107697 -92.1875 209.4375 C-92.1875 208.7775 -92.1875 208.1175 -92.1875 207.4375 C-108.02028216 212.32471725 -117.60057808 219.60310201 -125.8203125 234.37109375 C-129.01487381 241.53603841 -129.57441064 247.94997502 -129.5625 255.6875 C-129.56161377 256.71222412 -129.56072754 257.73694824 -129.55981445 258.79272461 C-129.44663624 265.99993626 -128.62603139 272.00411869 -125.1875 278.4375 C-124.87941406 279.08976562 -124.57132813 279.74203125 -124.25390625 280.4140625 C-123.60461582 281.77477643 -122.90443091 283.11117782 -122.1875 284.4375 C-121.88457031 283.75945312 -121.58164063 283.08140625 -121.26953125 282.3828125 C-118.39089592 275.9878134 -115.37245577 269.68543451 -112.1875 263.4375 C-111.5275 263.4375 -110.8675 263.4375 -110.1875 263.4375 C-109.878125 262.6021875 -109.878125 262.6021875 -109.5625 261.75 C-107.01953539 257.47319588 -102.82197218 254.21815483 -98.1875 252.4375 C-94.62109375 252.1015625 -94.62109375 252.1015625 -90.625 252.0625 C-89.95275391 252.03800781 -89.28050781 252.01351562 -88.58789062 251.98828125 C-85.44500621 251.96955503 -83.65156288 252.02687466 -81.25390625 254.1484375 C-79.36935224 258.19367065 -79.43309173 262.0851446 -80.1875 266.4375 C-82.83786309 269.75045387 -85.38430924 270.57683474 -89.375 271.5 C-93.40807573 272.0365452 -93.40807573 272.0365452 -95.1875 275.4375 C-95.8475 275.4375 -96.5075 275.4375 -97.1875 275.4375 C-97.47625 276.365625 -97.765 277.29375 -98.0625 278.25 C-99.1875 281.4375 -99.1875 281.4375 -101.1875 284.4375 C-105.35954738 299.96789647 -106.71867081 314.10688496 -101.1875 329.4375 C-99.51964357 332.31801187 -97.7434784 334.88093619 -95.67578125 337.484375 C-94.1875 339.4375 -94.1875 339.4375 -93.1875 342.4375 C-92.5275 342.4375 -91.8675 342.4375 -91.1875 342.4375 C-91.1875 343.0975 -91.1875 343.7575 -91.1875 344.4375 C-90.67703125 344.69273437 -90.1665625 344.94796875 -89.640625 345.2109375 C-84.15625 347.953125 -78.671875 350.6953125 -73.1875 353.4375 C-73.4439082 351.03932921 -73.7170484 348.64506272 -74 346.25 C-74.07025391 345.57646484 -74.14050781 344.90292969 -74.21289062 344.20898438 C-74.89780492 338.59268714 -76.7803369 335.29858668 -80.125 330.875 C-86.53377421 321.12574503 -87.94136132 309.0680118 -85.64453125 297.765625 C-84.95813943 295.56613739 -84.14912257 293.5299577 -83.1875 291.4375 C-82.89746094 290.75300781 -82.60742188 290.06851562 -82.30859375 289.36328125 C-80.07934511 284.46639616 -77.29694278 279.97448309 -73.1875 276.4375 C-68.66762019 274.83670923 -65.51305918 275.47133674 -61.1875 277.4375 C-58.47707732 281.50313402 -58.29230706 284.66063009 -59.1875 289.4375 C-60.5318006 291.95354917 -62.0375592 294.136513 -63.77734375 296.39453125 C-67.20404476 301.3589762 -66.64805982 307.63938089 -66.1875 313.4375 C-64.67238288 319.4199845 -61.18533076 323.88363163 -56.375 327.625 C-49.8140175 331.35575475 -44.4307505 331.95101503 -37.1875 330.4375 C-34.13836179 329.5583858 -31.15749123 328.55387968 -28.1875 327.4375 C-28.1875 326.7775 -28.1875 326.1175 -28.1875 325.4375 C-26.00247501 323.04102098 -24.22827527 321.62639516 -20.9921875 321.0390625 C-17.04659514 320.86977966 -14.90908179 320.89631366 -11.6875 323.3125 C-9.16114947 326.89149658 -8.76408087 329.03394104 -9.1875 333.4375 C-11.87450394 338.70402773 -15.29539423 341.35728526 -20.1875 344.4375 C-20.8475 344.4375 -21.5075 344.4375 -22.1875 344.4375 C-22.1875 345.0975 -22.1875 345.7575 -22.1875 346.4375 C-32.16390232 350.81929239 -41.49188312 351.12427119 -52.1875 350.4375 C-52.8475 350.1075 -53.5075 349.7775 -54.1875 349.4375 C-51.65443895 355.85320381 -49.21642844 361.82577825 -45.1875 367.4375 C-44.6925 368.9225 -44.6925 368.9225 -44.1875 370.4375 C-43.5275 370.4375 -42.8675 370.4375 -42.1875 370.4375 C-38.59492262 373.34732512 -35.65719467 376.49493564 -34.5546875 381.0546875 C-34.36408043 385.33699297 -34.56241202 387.64193348 -37.25 391.0625 C-40.99710713 392.81646504 -43.08453476 393.07416702 -47.1875 392.4375 C-49.78571844 391.06495185 -52.1084301 389.52288926 -54.1875 387.4375 C-54.1875 386.7775 -54.1875 386.1175 -54.1875 385.4375 C-54.8475 385.4375 -55.5075 385.4375 -56.1875 385.4375 C-56.1875 384.7775 -56.1875 384.1175 -56.1875 383.4375 C-56.8475 383.4375 -57.5075 383.4375 -58.1875 383.4375 C-59.1995717 381.81169386 -60.17209516 380.16117641 -61.125 378.5 C-63.66523504 374.63443569 -63.66523504 374.63443569 -67.671875 372.69140625 C-69.52456203 372.60305557 -71.37961023 372.55701033 -73.234375 372.546875 C-84.32260128 372.13619995 -94.24039208 365.40223861 -103.1875 359.4375 C-103.1875 358.7775 -103.1875 358.1175 -103.1875 357.4375 C-103.8475 357.4375 -104.5075 357.4375 -105.1875 357.4375 C-106.9140625 355.79296875 -106.9140625 355.79296875 -108.8125 353.625 C-109.44414063 352.91730469 -110.07578125 352.20960938 -110.7265625 351.48046875 C-112.1875 349.4375 -112.1875 349.4375 -112.1875 346.4375 C-112.8475 346.4375 -113.5075 346.4375 -114.1875 346.4375 C-120.64997968 336.26986531 -123.33219242 325.77664343 -124.9375 313.9375 C-125.83704232 308.98168816 -128.55457357 306.50878508 -132.3125 303.32421875 C-134.44558184 301.17780515 -135.24573873 299.28730885 -136.1875 296.4375 C-136.8475 296.4375 -137.5075 296.4375 -138.1875 296.4375 C-139.48685464 293.92037811 -140.77704372 291.39920913 -142.0625 288.875 C-142.60970703 287.81829102 -142.60970703 287.81829102 -143.16796875 286.74023438 C-150.80105911 271.68222884 -151.38243357 252.21230191 -147.3671875 235.921875 C-144.14317217 226.39928668 -139.38082355 217.35800454 -133.1875 209.4375 C-132.5275 209.4375 -131.8675 209.4375 -131.1875 209.4375 C-130.1975 207.4575 -130.1975 207.4575 -129.1875 205.4375 C-128.5275 205.4375 -127.8675 205.4375 -127.1875 205.4375 C-127.68843815 201.3298072 -128.78569091 198.04027179 -130.43676758 194.26489258 C-138.64833286 174.27674098 -135.67748104 147.42827985 -127.73852539 127.94360352 C-124.30365707 120.028017 -119.76866235 112.02484374 -114.1875 105.4375 C-113.5275 105.4375 -112.8675 105.4375 -112.1875 105.4375 C-111.93226562 104.86257812 -111.67703125 104.28765625 -111.4140625 103.6953125 C-104.76284651 91.45199134 -88.03424518 82.57563427 -75.1875 78.4375 C-75.21070313 77.80585937 -75.23390625 77.17421875 -75.2578125 76.5234375 C-75.62654755 58.24471422 -71.43238689 42.92833362 -60.1875 28.4375 C-59.1975 26.9525 -59.1975 26.9525 -58.1875 25.4375 C-57.5275 25.4375 -56.8675 25.4375 -56.1875 25.4375 C-56.1875 24.7775 -56.1875 24.1175 -56.1875 23.4375 C-55.5275 23.4375 -54.8675 23.4375 -54.1875 23.4375 C-54.1875 22.7775 -54.1875 22.1175 -54.1875 21.4375 C-53.5275 21.4375 -52.8675 21.4375 -52.1875 21.4375 C-52.1875 20.7775 -52.1875 20.1175 -52.1875 19.4375 C-50.09713147 17.735687 -48.016355 16.1678114 -45.8125 14.625 C-45.17054688 14.17431152 -44.52859375 13.72362305 -43.8671875 13.25927734 C-38.84047325 9.78707448 -33.87360861 6.72411554 -28.1875 4.4375 C-27.28257812 4.04691406 -26.37765625 3.65632813 -25.4453125 3.25390625 C-17.03262732 0.22240249 -8.87425488 0.04914083 0 0 Z " fill="#0F0F0F" transform="translate(205.1875,47.5625)"/>
<path d="M0 0 C0.82638977 -0.00807175 1.65277954 -0.01614349 2.50421143 -0.02445984 C4.25604148 -0.03830246 6.00789852 -0.04902382 7.75976562 -0.05688477 C10.42891196 -0.07406292 13.09680831 -0.11794164 15.765625 -0.16210938 C17.4687409 -0.17223957 19.17186733 -0.18075465 20.875 -0.1875 C21.66896179 -0.20500809 22.46292358 -0.22251617 23.28094482 -0.24055481 C29.07224711 -0.21808061 32.51536481 1.05052106 36.703125 5.23828125 C36.85894803 6.57843346 36.95356642 7.92587028 37.01953125 9.2734375 C37.06142578 10.08232422 37.10332031 10.89121094 37.14648438 11.72460938 C37.18580078 12.57474609 37.22511719 13.42488281 37.265625 14.30078125 C37.30880859 15.15478516 37.35199219 16.00878906 37.39648438 16.88867188 C37.50289202 19.00500162 37.60354231 21.12161938 37.703125 23.23828125 C41.84254754 25.70915163 41.84254754 25.70915163 46.453125 25.73828125 C48.36763432 24.85466156 50.26814151 23.93712108 52.12890625 22.9453125 C52.99902344 22.48511719 53.86914062 22.02492187 54.765625 21.55078125 C55.98958984 20.86435547 55.98958984 20.86435547 57.23828125 20.1640625 C60.32611799 19.00428864 61.62433345 19.06152005 64.703125 20.23828125 C69.03129144 23.83720904 71.76932864 28.16597746 74.640625 32.92578125 C75.07375 33.63259033 75.506875 34.33939941 75.953125 35.06762695 C76.81422549 36.47542986 77.67222501 37.88513499 78.52685547 39.296875 C79.54697347 40.98055668 80.57906097 42.65697509 81.61328125 44.33203125 C87.74283725 54.33209313 87.74283725 54.33209313 87.640625 59.23828125 C85.79755272 65.13611255 81.59148254 67.31775271 76.390625 70.05078125 C72.95604828 72.04759155 72.95604828 72.04759155 70.63671875 75.15234375 C70.23538274 77.78388874 70.38728041 78.90152276 71.703125 81.23828125 C74.60020479 83.32963824 77.5937749 84.93651219 80.76171875 86.5859375 C84.6205839 88.75366653 86.05543222 90.16240964 87.703125 94.23828125 C87.30952524 98.38794726 86.32065155 101.44720778 84.265625 105.05078125 C83.46705078 106.45650391 83.46705078 106.45650391 82.65234375 107.890625 C82.00910156 108.99535156 81.36585938 110.10007812 80.703125 111.23828125 C79.87628372 112.67707278 79.04946205 114.11587558 78.22265625 115.5546875 C77.34221052 117.0748359 76.46069949 118.59436779 75.578125 120.11328125 C75.15861572 120.83878174 74.73910645 121.56428223 74.30688477 122.31176758 C67.55550227 133.81111146 67.55550227 133.81111146 62.703125 135.23828125 C56.97329589 134.69181788 53.20402523 132.38351629 48.38671875 129.41796875 C45.22771935 128.02929653 43.92719399 128.13319271 40.703125 129.23828125 C39.713125 129.89828125 38.723125 130.55828125 37.703125 131.23828125 C37.38243077 134.80693678 37.31514466 138.27546324 37.3515625 141.85351562 C37.26210069 146.14395493 37.09344891 147.75637648 34.2890625 151.21875 C30.0019186 154.56686691 26.68122283 154.42798019 21.40625 154.4765625 C20.57986023 154.48463425 19.75347046 154.49270599 18.90203857 154.50102234 C17.15020852 154.51486496 15.39835148 154.52558632 13.64648438 154.53344727 C10.97733804 154.55062542 8.30944169 154.59450414 5.640625 154.63867188 C3.9375091 154.64880207 2.23438267 154.65731715 0.53125 154.6640625 C-0.26271179 154.68157059 -1.05667358 154.69907867 -1.87469482 154.71711731 C-7.13646512 154.69669806 -10.12181878 153.72764417 -14.296875 150.23828125 C-16.1641804 146.50367045 -15.54388262 141.60369102 -15.55078125 137.44726562 C-15.67318969 133.70736557 -15.74048076 131.76063039 -18.53125 129.140625 C-21.77418545 128.0825486 -23.09130646 128.12564507 -26.296875 129.23828125 C-28.27654284 130.26048031 -30.23418721 131.32608051 -32.171875 132.42578125 C-35.87167522 134.28020434 -37.87142712 135.23119045 -42.046875 135.30078125 C-51.06487612 129.577819 -55.61092732 118.29850298 -60.34960938 109.03295898 C-61.34284598 107.1511852 -62.39725091 105.31476262 -63.46875 103.4765625 C-65.35622187 100.13315613 -66.296875 98.07337697 -66.296875 94.23828125 C-64.15353924 88.93634541 -61.05337235 87.46996995 -56.046875 84.86328125 C-51.98299053 82.68836146 -51.98299053 82.68836146 -49.09375 79.26171875 C-48.70436245 76.60773517 -48.89232102 75.54576278 -50.296875 73.23828125 C-53.19739277 71.15518212 -56.18917216 69.53919265 -59.35546875 67.890625 C-63.2143339 65.72289597 -64.64918222 64.31415286 -66.296875 60.23828125 C-65.90445266 55.99665744 -64.84245844 52.91450305 -62.734375 49.23828125 C-62.19683594 48.29339844 -61.65929687 47.34851563 -61.10546875 46.375 C-60.21021484 44.82232422 -60.21021484 44.82232422 -59.296875 43.23828125 C-58.64014284 42.05828293 -57.98525347 40.87725746 -57.33203125 39.6953125 C-47.05887443 21.21502558 -47.05887443 21.21502558 -41.296875 19.23828125 C-36.01786108 19.63768033 -31.77617358 22.54438382 -27.234375 25.05859375 C-23.93905485 26.3819803 -22.60666888 26.39000007 -19.296875 25.23828125 C-18.306875 24.57828125 -17.316875 23.91828125 -16.296875 23.23828125 C-15.8722066 21.37461623 -15.8722066 21.37461623 -15.9609375 19.24609375 C-15.94804687 18.45847656 -15.93515625 17.67085937 -15.921875 16.859375 C-15.921875 15.20310657 -15.92961398 13.54681903 -15.9453125 11.890625 C-15.82584434 5.78779309 -15.82584434 5.78779309 -12.8828125 2.73046875 C-8.44519045 0.16978654 -5.05399582 0.04654712 0 0 Z M3.703125 19.23828125 C3.6 21.11515625 3.496875 22.99203125 3.390625 24.92578125 C3.1371412 29.53918639 2.61863423 32.5800844 -0.296875 36.23828125 C-3.2578125 38.1171875 -3.2578125 38.1171875 -6.671875 39.80078125 C-10.06647123 41.4902757 -13.02898199 43.02005599 -15.97265625 45.41796875 C-18.7079424 47.56022647 -20.71834695 47.86137527 -24.171875 47.7109375 C-27.44368388 46.9832006 -29.8541906 45.28973436 -32.53515625 43.33203125 C-34.37606095 41.97455293 -34.37606095 41.97455293 -37.296875 42.23828125 C-38.32995271 44.00199943 -39.34799549 45.77453158 -40.359375 47.55078125 C-41.21208984 49.02998047 -41.21208984 49.02998047 -42.08203125 50.5390625 C-43.66919104 53.25087525 -43.66919104 53.25087525 -42.296875 56.23828125 C-40.2717544 57.58862808 -40.2717544 57.58862808 -37.859375 58.73828125 C-34.53738881 60.40194046 -33.42272745 61.04950257 -31.296875 64.23828125 C-30.80212476 68.51402719 -30.88030008 72.81201393 -30.859375 77.11328125 C-30.81006836 78.89025391 -30.81006836 78.89025391 -30.75976562 80.703125 C-30.70572665 89.41813857 -30.70572665 89.41813857 -33.5859375 93.4140625 C-34.48054688 94.01605469 -35.37515625 94.61804688 -36.296875 95.23828125 C-36.96332031 95.68816406 -37.62976563 96.13804687 -38.31640625 96.6015625 C-39.9765625 97.48046875 -41.63671875 98.359375 -43.296875 99.23828125 C-41.88519753 104.49998819 -39.54837268 107.95999483 -36.296875 112.23828125 C-33.60455041 111.23827497 -31.34386643 110.27130226 -28.984375 108.61328125 C-25.30135785 106.72894689 -22.27490136 106.25245273 -18.296875 107.23828125 C-15.61894763 108.7965029 -13.21915068 110.54792179 -10.76171875 112.43359375 C-7.97400191 114.47467962 -5.17787478 115.82927508 -1.98828125 117.12109375 C0.50826456 118.77008244 1.42523108 120.55016711 2.703125 123.23828125 C3.36177586 127.24549296 3.47974557 131.17277567 3.703125 135.23828125 C8.323125 135.23828125 12.943125 135.23828125 17.703125 135.23828125 C17.785625 133.38203125 17.868125 131.52578125 17.953125 129.61328125 C18.44131388 124.34825689 18.7919787 121.05847066 22.703125 117.23828125 C25.65802038 115.58086118 28.63810626 114.11440847 31.73046875 112.73046875 C34.77950425 111.33340992 34.77950425 111.33340992 37.34375 109.09375 C40.10030821 106.92592691 42.09109889 106.61372803 45.578125 106.765625 C48.84993388 107.4933619 51.2604406 109.18682814 53.94140625 111.14453125 C55.78231095 112.50200957 55.78231095 112.50200957 58.703125 112.23828125 C59.73620271 110.47456307 60.75424549 108.70203092 61.765625 106.92578125 C62.33410156 105.93964844 62.90257812 104.95351563 63.48828125 103.9375 C65.07544104 101.22568725 65.07544104 101.22568725 63.703125 98.23828125 C61.6780044 96.88793442 61.6780044 96.88793442 59.265625 95.73828125 C55.94363881 94.07462204 54.82897745 93.42705993 52.703125 90.23828125 C52.20837476 85.96253531 52.28655008 81.66454857 52.265625 77.36328125 C52.23275391 76.17863281 52.19988281 74.99398437 52.16601562 73.7734375 C52.11197665 65.05842393 52.11197665 65.05842393 54.9921875 61.0625 C55.88679688 60.46050781 56.78140625 59.85851562 57.703125 59.23828125 C58.70279297 58.56345703 58.70279297 58.56345703 59.72265625 57.875 C61.3828125 56.99609375 63.04296875 56.1171875 64.703125 55.23828125 C63.29020405 50.41080135 61.27338346 46.52204535 58.703125 42.23828125 C55.69937115 42.71888187 54.09078843 43.62687946 51.453125 45.30078125 C48.32039292 47.09661492 45.56830178 48.00690682 41.87109375 47.828125 C38.07836108 46.79622836 35.25071133 44.40846306 32.16796875 42.04296875 C29.38025191 40.00188288 26.58412478 38.64728742 23.39453125 37.35546875 C20.89798544 35.70648006 19.98101892 33.92639539 18.703125 31.23828125 C18.04447414 27.23106954 17.92650443 23.30378683 17.703125 19.23828125 C13.083125 19.23828125 8.463125 19.23828125 3.703125 19.23828125 Z " fill="#0F0F0F" transform="translate(239.296875,172.76171875)"/>
<path d="M0 0 C5.25270679 3.84037678 9.71819611 9.06525446 11.12109375 15.55078125 C12.0837189 24.32136596 11.7547149 32.37532694 6.12109375 39.55078125 C3.94921875 40.81640625 3.94921875 40.81640625 2.12109375 41.55078125 C2.12109375 42.21078125 2.12109375 42.87078125 2.12109375 43.55078125 C-5.67555163 48.58087504 -12.68251537 49.84797859 -21.87890625 48.55078125 C-30.41187582 45.94730801 -35.21919652 40.89497382 -39.75390625 33.48828125 C-42.17148414 27.02198859 -41.96705126 19.16342267 -40 12.6328125 C-36.76599797 5.57777837 -31.50034534 -0.19914242 -24.08203125 -2.97265625 C-15.66763713 -4.79279115 -7.48871157 -4.3653409 0 0 Z M-20.25390625 17.11328125 C-22.49262991 20.47136674 -22.45382174 22.59823729 -21.87890625 26.55078125 C-20.41848859 28.66748482 -20.41848859 28.66748482 -17.87890625 29.55078125 C-14.48046204 29.90851222 -12.02017367 30.1398225 -8.94140625 28.55078125 C-7.2196014 25.30973682 -7.21589846 22.12655358 -7.87890625 18.55078125 C-10.06643908 15.85843315 -11.4631458 15.61141298 -14.87890625 15.11328125 C-17.92563509 15.34144095 -17.92563509 15.34144095 -20.25390625 17.11328125 Z " fill="#111111" transform="translate(264.87890625,227.44921875)"/>
<path d="M0 0 C3.23613354 1.74253345 3.82395315 2.47185944 5 6 C5.36229813 9.91281985 5.30040789 12.35821951 3.625 15.9375 C0.14950498 18.66824609 -2.31692694 18.71175634 -6.65234375 18.48828125 C-9 18 -9 18 -11.5625 15.8125 C-13.01418457 12.97224758 -13.92227332 11.1867938 -14 8 C-11.19826615 0.85557867 -7.5403184 -1.00334882 0 0 Z " fill="#1F1F1F" transform="translate(196,434)"/>
<path d="M0 0 C0.66 0.33 1.32 0.66 2 1 C0.625 3 0.625 3 -1 5 C-1.66 5 -2.32 5 -3 5 C-3.226875 5.556875 -3.45375 6.11375 -3.6875 6.6875 C-5.37550036 9.66159588 -7.46676517 11.72008865 -10 14 C-10.66 14 -11.32 14 -12 14 C-12.1546875 14.8971875 -12.1546875 14.8971875 -12.3125 15.8125 C-13.10127968 18.32225354 -14.17017086 19.17017086 -16 21 C-16.34342449 22.33076989 -16.67619874 23.66431979 -17 25 C-18.4375 27.25 -18.4375 27.25 -20 29 C-20.66 29 -21.32 29 -22 29 C-20.51217153 22.71805757 -16.73394339 18.11655923 -13 13 C-12.34 12.01 -11.68 11.02 -11 10 C-10.34 10 -9.68 10 -9 10 C-9 9.34 -9 8.68 -9 8 C-8.34 8 -7.68 8 -7 8 C-7 7.34 -7 6.68 -7 6 C-6.34 6 -5.68 6 -5 6 C-5 5.34 -5 4.68 -5 4 C-3.37373596 2.61767557 -1.7074998 1.28062485 0 0 Z " fill="#5E5E5E" transform="translate(158,63)"/>
<path d="M0 0 C0 0.33 0 0.66 0 1 C-2.31 1 -4.62 1 -7 1 C-7.33 1.99 -7.66 2.98 -8 4 C-8.99 4.66 -9.98 5.32 -11 6 C-11.33761035 9.04440276 -11.48917443 11.8948124 -11.51171875 14.9453125 C-11.53864555 16.27283035 -11.53864555 16.27283035 -11.56611633 17.62716675 C-11.62038985 20.45972904 -11.65416919 23.29212126 -11.6875 26.125 C-11.72065808 28.04299251 -11.75514631 29.96096253 -11.79101562 31.87890625 C-11.87612593 36.58581506 -11.94285537 41.29267194 -12 46 C-13.32 45.67 -14.64 45.34 -16 45 C-15.01 45 -14.02 45 -13 45 C-13.02618408 43.81446533 -13.05236816 42.62893066 -13.0793457 41.4074707 C-13.16999021 37.00011134 -13.22730088 32.592834 -13.2746582 28.18481445 C-13.29976999 26.27874893 -13.33386645 24.37277941 -13.37719727 22.46704102 C-13.43799744 19.72388002 -13.46624245 16.98199414 -13.48828125 14.23828125 C-13.51408768 13.38913651 -13.5398941 12.53999176 -13.56648254 11.66511536 C-13.56856604 7.24908331 -13.42777771 5.54520688 -10.609375 1.953125 C-6.73461189 -0.94714679 -4.69735232 -0.39808071 0 0 Z " fill="#8A8A8A" transform="translate(254,367)"/>
<path d="M0 0 C0 3 0 3 -1 5 C-3.0625 6.125 -3.0625 6.125 -5 7 C-5 7.66 -5 8.32 -5 9 C-5.66 9 -6.32 9 -7 9 C-7 9.66 -7 10.32 -7 11 C-7.66 11 -8.32 11 -9 11 C-9 11.66 -9 12.32 -9 13 C-10.65 13.33 -12.3 13.66 -14 14 C-9.72706118 8.76564995 -5.18419194 4.32893185 0 0 Z " fill="#3A3A3A" transform="translate(107,138)"/>
<path d="M0 0 C0.66 0.33 1.32 0.66 2 1 C0.625 3 0.625 3 -1 5 C-1.66 5 -2.32 5 -3 5 C-3.20625 5.556875 -3.4125 6.11375 -3.625 6.6875 C-5.55000774 9.92501302 -8.03850902 11.68231141 -11 14 C-11 12.68 -11 11.36 -11 10 C-10.34 10 -9.68 10 -9 10 C-9 9.34 -9 8.68 -9 8 C-8.34 8 -7.68 8 -7 8 C-7 7.34 -7 6.68 -7 6 C-6.34 6 -5.68 6 -5 6 C-5 5.34 -5 4.68 -5 4 C-3.37373596 2.61767557 -1.7074998 1.28062485 0 0 Z " fill="#464646" transform="translate(158,63)"/>
<path d="M0 0 C-0.33 0.66 -0.66 1.32 -1 2 C-5.29 2 -9.58 2 -14 2 C-14 2.66 -14 3.32 -14 4 C-15.32 4 -16.64 4 -18 4 C-19.7511573 5.4166747 -19.7511573 5.4166747 -21 7 C-21.66 6.34 -22.32 5.68 -23 5 C-15.71839842 -0.94416456 -8.92917894 -0.52319408 0 0 Z " fill="#676767" transform="translate(122,300)"/>
<path d="M0 0 C0.33 0.99 0.66 1.98 1 3 C0.34 3 -0.32 3 -1 3 C-1.33 3.99 -1.66 4.98 -2 6 C-3.62890625 7.38671875 -3.62890625 7.38671875 -5.5625 8.6875 C-6.52349609 9.34298828 -6.52349609 9.34298828 -7.50390625 10.01171875 C-7.99761719 10.33785156 -8.49132812 10.66398438 -9 11 C-9 8 -9 8 -6.75 5.5 C-4.56458892 3.51326265 -2.41145588 1.69695043 0 0 Z " fill="#5F5F5F" transform="translate(128,207)"/>
<path d="M0 0 C1.27617187 0.02320313 2.55234375 0.04640625 3.8671875 0.0703125 C5.78917969 0.09738281 5.78917969 0.09738281 7.75 0.125 C9.23113281 0.15980469 9.23113281 0.15980469 10.7421875 0.1953125 C10.7421875 0.5253125 10.7421875 0.8553125 10.7421875 1.1953125 C9.98292969 1.22109375 9.22367187 1.246875 8.44140625 1.2734375 C7.44753906 1.33015625 6.45367187 1.386875 5.4296875 1.4453125 C4.44355469 1.49171875 3.45742188 1.538125 2.44140625 1.5859375 C-0.89134841 2.33833942 -1.39106814 3.45815069 -3.2578125 6.1953125 C-4.2478125 6.1953125 -5.2378125 6.1953125 -6.2578125 6.1953125 C-5.40083018 1.91040088 -4.6859448 0.28093194 0 0 Z " fill="#494949" transform="translate(375.2578125,299.8046875)"/>
<path d="M0 0 C0.33 0 0.66 0 1 0 C1.77416328 9.01470128 1.77416328 9.01470128 -1.0625 12.625 C-4.59016728 14.27624851 -7.14850705 14.30207788 -11 14 C-11 13.67 -11 13.34 -11 13 C-9.6078125 12.87625 -9.6078125 12.87625 -8.1875 12.75 C-4.51160074 11.88508253 -3.97379547 11.05938298 -2 8 C-1.34 8 -0.68 8 0 8 C0 5.36 0 2.72 0 0 Z " fill="#666666" transform="translate(169,426)"/>
<path d="M0 0 C0 0.66 0 1.32 0 2 C-0.66 2 -1.32 2 -2 2 C-2.20625 2.598125 -2.4125 3.19625 -2.625 3.8125 C-4.50926082 6.81018767 -6.81132084 7.61361776 -10 9 C-10 7 -10 7 -8.3203125 5.2734375 C-7.59585938 4.64695312 -6.87140625 4.02046875 -6.125 3.375 C-5.04605469 2.42753906 -5.04605469 2.42753906 -3.9453125 1.4609375 C-2 0 -2 0 0 0 Z " fill="#6D6D6D" transform="translate(232,416)"/>
<path d="M0 0 C-0.8353125 0.1546875 -0.8353125 0.1546875 -1.6875 0.3125 C-5.41353192 1.42023922 -8.26276067 3.26276067 -11 6 C-11.66 5.01 -12.32 4.02 -13 3 C-4.738041 -1.77676538 -4.738041 -1.77676538 0 0 Z " fill="#5F5F5F" transform="translate(304,193)"/>
<path d="M0 0 C-1.52708963 3.43595166 -3.59927045 6.11912454 -6 9 C-6.66 8.67 -7.32 8.34 -8 8 C-3.45945946 0 -3.45945946 0 0 0 Z " fill="#494949" transform="translate(222,425)"/>
<path d="M0 0 C1.8871875 0.061875 1.8871875 0.061875 3.8125 0.125 C3.8125 0.455 3.8125 0.785 3.8125 1.125 C1.5025 1.125 -0.8075 1.125 -3.1875 1.125 C-3.5175 2.115 -3.8475 3.105 -4.1875 4.125 C-6.25 5.3125 -6.25 5.3125 -8.1875 6.125 C-7.875 4.25 -7.875 4.25 -7.1875 2.125 C-4.09861478 0.06574319 -3.47814073 -0.1140374 0 0 Z " fill="#525252" transform="translate(250.1875,366.875)"/>
<path d="M0 0 C1 2 1 2 0.8125 3.9375 C-0.2409732 6.61170119 -1.57061578 7.52764593 -4 9 C-4.66 9 -5.32 9 -6 9 C-5 7 -4 5 -3 3 C-2.34 3 -1.68 3 -1 3 C-0.67 2.01 -0.34 1.02 0 0 Z " fill="#545454" transform="translate(75,254)"/>
<path d="M0 0 C0.66 0.33 1.32 0.66 2 1 C0.7508258 4.45925163 -0.67527795 7.14693203 -3 10 C-3.36923077 3.47692308 -3.36923077 3.47692308 -1.5 1.0625 C-1.005 0.711875 -0.51 0.36125 0 0 Z " fill="#494949" transform="translate(227,175)"/>
<path d="M0 0 C0.99 0.33 1.98 0.66 3 1 C-0.2837938 3.48772258 -1.61198583 4.03180444 -5.8125 3.6875 C-6.864375 3.460625 -7.91625 3.23375 -9 3 C-9 2.67 -9 2.34 -9 2 C-2.25 0.875 -2.25 0.875 0 2 C0 1.34 0 0.68 0 0 Z " fill="#7A7A7A" transform="translate(350,161)"/>
<path d="M0 0 C2.475 0.99 2.475 0.99 5 2 C4.01 2.495 4.01 2.495 3 3 C3 3.66 3 4.32 3 5 C3.66 5 4.32 5 5 5 C5.33 6.65 5.66 8.3 6 10 C5.34 9.67 4.68 9.34 4 9 C4 8.01 4 7.02 4 6 C3.34 6 2.68 6 2 6 C1.34 4.02 0.68 2.04 0 0 Z " fill="#515151" transform="translate(89,388)"/>
<path d="M0 0 C0.99 0.33 1.98 0.66 3 1 C-0.96 4.465 -0.96 4.465 -5 8 C-5.33 7.34 -5.66 6.68 -6 6 C-2.25 1.125 -2.25 1.125 0 0 Z " fill="#474747" transform="translate(264,288)"/>
<path d="M0 0 C0.66 0.33 1.32 0.66 2 1 C0.41641358 4.16717283 -0.45263699 5.73268318 -3.6875 7.3125 C-4.450625 7.539375 -5.21375 7.76625 -6 8 C-2.25 2.25 -2.25 2.25 0 0 Z " fill="#666666" transform="translate(233,229)"/>
<path d="M0 0 C0.66 0 1.32 0 2 0 C2.33 0.99 2.66 1.98 3 3 C1.1875 5.6875 1.1875 5.6875 -1 8 C-1.66 8 -2.32 8 -3 8 C-1.125 2.25 -1.125 2.25 0 0 Z " fill="#585858" transform="translate(139,84)"/>
<path d="M0 0 C0.33 0.99 0.66 1.98 1 3 C-1.8125 5.0625 -1.8125 5.0625 -5 7 C-5.99 6.67 -6.98 6.34 -8 6 C-6.35 5.34 -4.7 4.68 -3 4 C-3 3.34 -3 2.68 -3 2 C-2.01 1.34 -1.02 0.68 0 0 Z " fill="#5C5C5C" transform="translate(335,421)"/>
<path d="M0 0 C-1.12073862 0.83905565 -2.24674547 1.67107831 -3.375 2.5 C-4.00148437 2.9640625 -4.62796875 3.428125 -5.2734375 3.90625 C-7 5 -7 5 -9 5 C-8.00233891 2.50584728 -7.31383315 1.21259665 -5.0625 -0.3125 C-3 -1 -3 -1 0 0 Z " fill="#4A4A4A" transform="translate(201,193)"/>
<path d="M0 0 C1.33332095 2.6666419 0.67102033 4.16680303 0 7 C-0.66 7 -1.32 7 -2 7 C-2 7.66 -2 8.32 -2 9 C-2.66 8.67 -3.32 8.34 -4 8 C-2.25 2.25 -2.25 2.25 0 0 Z " fill="#696969" transform="translate(340,147)"/>
<path d="M0 0 C5.875 3.75 5.875 3.75 7 6 C4.69 5.34 2.38 4.68 0 4 C0 2.68 0 1.36 0 0 Z " fill="#585858" transform="translate(392,138)"/>
<path d="M0 0 C0 3 0 3 -1 5 C-2.97888961 5.72693904 -4.97954558 6.39816251 -7 7 C-4.78071806 4.09197539 -3.07030857 2.04687238 0 0 Z " fill="#666666" transform="translate(107,138)"/>
<path d="M0 0 C0 3.10551666 -0.5393715 4.35261084 -2 7 C-2.99 7 -3.98 7 -5 7 C-3.75023244 3.34683329 -3.32901247 2.21934164 0 0 Z " fill="#545454" transform="translate(298,91)"/>
</svg>
