<?xml version="1.0" encoding="UTF-8"?>
<svg version="1.1" xmlns="http://www.w3.org/2000/svg" width="512" height="512">
<path d="M0 0 C1.53563599 -0.032146 1.53563599 -0.032146 3.10229492 -0.06494141 C9.70366208 -0.09430256 14.97581769 0.2695381 20.1796875 4.75 C32.50136619 21.06560212 23.50461875 59.41831494 20.83544922 78.65136719 C14.2190446 124.95610583 1.44873746 169.79121209 -20.5625 211.25 C-20.90603516 211.89984863 -21.24957031 212.54969727 -21.60351562 213.21923828 C-32.141577 232.98051151 -45.40312018 250.80220997 -60.5625 267.25 C-61.95841148 268.83326444 -63.35424279 270.41659956 -64.75 272 C-73.11930507 281.29433353 -81.99863767 290.18703577 -91.5625 298.25 C-92.51640625 299.09304688 -93.4703125 299.93609375 -94.453125 300.8046875 C-112.14606259 316.38357438 -131.38776611 329.92129417 -151.63671875 341.94921875 C-152.22187256 342.32554443 -152.80702637 342.70187012 -153.40991211 343.08959961 C-155.5625 344.25 -155.5625 344.25 -158.67016602 345.17797852 C-162.74443951 346.70714415 -164.78621918 347.8551109 -167.5625 351.25 C-169.62329998 359.47068268 -168.54061521 368.43691286 -168.125 376.8125 C-167.95527447 381.45901608 -167.81746004 386.10601593 -167.69140625 390.75390625 C-167.65799133 391.86333588 -167.62457642 392.9727655 -167.59014893 394.11581421 C-167.18229939 412.56831084 -172.9639584 425.00346075 -185.5625 438.25 C-190.48833105 443.35757729 -195.48211833 448.39707485 -200.49316406 453.42089844 C-202.82817826 455.76574427 -205.15231435 458.12105082 -207.4765625 460.4765625 C-208.96809277 461.97461299 -210.46025754 463.47203207 -211.953125 464.96875 C-212.64279358 465.67076538 -213.33246216 466.37278076 -214.04302979 467.09606934 C-218.81132143 471.84238865 -222.50809884 474.51430669 -229.4375 474.625 C-234.65047703 474.5008815 -237.40916117 473.40653751 -241.5625 470.25 C-244.64526607 466.18149048 -246.27465118 462.63428632 -247.48535156 457.69384766 C-247.6419928 457.06874298 -247.79863403 456.44363831 -247.96002197 455.79959106 C-248.46894355 453.7570037 -248.96112592 451.71078537 -249.453125 449.6640625 C-249.80510031 448.23748716 -250.15812365 446.81117003 -250.512146 445.38510132 C-251.43660778 441.64925605 -252.34687756 437.91009524 -253.25415039 434.17004395 C-254.18425915 430.34691871 -255.12786552 426.52712994 -256.0703125 422.70703125 C-257.91420419 415.22453935 -259.74310289 407.73849007 -261.5625 400.25 C-264.8130441 400.25 -266.04110346 400.90022297 -268.9375 402.25 C-278.98774459 406.00209132 -292.57592602 406.07925051 -302.75 402.625 C-313.40618442 397.542186 -321.41263099 391.01352415 -329.66796875 382.7109375 C-330.80225553 381.58190078 -331.93705692 380.45338086 -333.07234192 379.3253479 C-335.4379733 376.97006388 -337.7960689 374.60754655 -340.14916992 372.23974609 C-343.13940426 369.23234926 -346.14947464 366.2457489 -349.16582775 363.26457787 C-351.51104426 360.94150856 -353.84424709 358.60664917 -356.17428017 356.26836014 C-357.27827652 355.16355342 -358.38602949 354.06248534 -359.49785423 352.9655571 C-371.66686537 340.93476341 -379.74521913 328.67990524 -379.9375 311.25 C-379.87264047 301.95791876 -378.08969265 294.44206289 -373.5625 286.25 C-374.20696579 286.14178925 -374.85143158 286.03357849 -375.51542664 285.92208862 C-382.91527221 284.63370114 -390.17414545 282.96320242 -397.45703125 281.1328125 C-398.64801926 280.83438446 -399.83900726 280.53595642 -401.06608582 280.22848511 C-403.56501171 279.60022086 -406.0634036 278.96982912 -408.5612793 278.33740234 C-412.37867924 277.37407153 -416.19994202 276.42721303 -420.02148438 275.48046875 C-422.45858904 274.86559596 -424.89544702 274.24974442 -427.33203125 273.6328125 C-428.4696138 273.35349884 -429.60719635 273.07418518 -430.7792511 272.78640747 C-438.13501452 270.89748968 -443.26837358 269.32895914 -447.9375 263.0625 C-450.05161829 258.94041162 -450.41381974 254.78270239 -449.5625 250.25 C-447.6995934 246.05672129 -445.67720932 242.97986163 -442.46508789 239.71679688 C-441.64315445 238.87572388 -440.82122101 238.03465088 -439.97438049 237.16809082 C-439.08693649 236.27730835 -438.19949249 235.38652588 -437.28515625 234.46875 C-436.36343124 233.53703979 -435.44170624 232.60532959 -434.49205017 231.64538574 C-432.5412658 229.67668835 -430.58443058 227.71423958 -428.6237793 225.75537109 C-426.13743116 223.26932627 -423.67229378 220.76337089 -421.21215153 218.2514267 C-418.83352559 215.83098178 -416.43300965 213.43264647 -414.03515625 211.03125 C-413.16593033 210.14046753 -412.29670441 209.24968506 -411.40113831 208.33190918 C-400.86613811 197.91126456 -389.53881579 193.02151792 -374.77394104 193.02340698 C-372.89230507 193.03889084 -372.89230507 193.03889084 -370.97265625 193.0546875 C-369.67299423 193.0575174 -368.37333221 193.06034729 -367.0342865 193.06326294 C-363.60000745 193.07085345 -360.16590093 193.09046177 -356.73168945 193.1126709 C-353.21893649 193.13322879 -349.70615531 193.1422858 -346.19335938 193.15234375 C-339.31633594 193.17371264 -332.43942628 193.20779236 -325.5625 193.25 C-325.25728424 192.30798737 -324.95206848 191.36597473 -324.63760376 190.39541626 C-323.66391752 187.54671585 -322.57342478 185.2750092 -321.0234375 182.7109375 C-320.52956543 181.88932129 -320.03569336 181.06770508 -319.52685547 180.22119141 C-319.00236816 179.36444824 -318.47788086 178.50770508 -317.9375 177.625 C-317.39625488 176.73345215 -316.85500977 175.8419043 -316.29736328 174.92333984 C-312.22068692 168.24370381 -308.03189745 161.67531198 -303.5625 155.25 C-302.81871094 154.16976562 -302.07492187 153.08953125 -301.30859375 151.9765625 C-294.84885521 142.69759821 -287.82932173 133.90688002 -280.5625 125.25 C-279.95671112 124.52083878 -279.95671112 124.52083878 -279.33868408 123.77694702 C-271.83347266 114.75937927 -263.91816058 106.26143618 -255.60888672 97.98071289 C-253.68694988 96.06195079 -251.7788104 94.13015455 -249.87109375 92.19726562 C-241.89914203 84.18486952 -233.60530353 77.02298839 -224.5625 70.25 C-223.24668549 69.2313857 -221.93141447 68.212068 -220.6171875 67.19140625 C-165.74979181 26.14196648 -96.14403203 6.75676548 -28.5625 1.25 C-27.29019531 1.13914062 -26.01789063 1.02828125 -24.70703125 0.9140625 C-16.47893072 0.29339029 -8.24917476 0.09581212 0 0 Z M-95.5625 46.25 C-94.25566301 49.13330643 -92.86527863 51.19564108 -90.6265564 53.42645264 C-90.02640213 54.02935623 -89.42624786 54.63225983 -88.8079071 55.25343323 C-87.82283928 56.22771523 -87.82283928 56.22771523 -86.81787109 57.22167969 C-86.12507553 57.9147673 -85.43227997 58.60785492 -84.7184906 59.32194519 C-82.42901526 61.61002799 -80.1325387 63.89094651 -77.8359375 66.171875 C-76.24652291 67.7575592 -74.65754952 69.34368574 -73.06900024 70.93023682 C-68.88782415 75.10377854 -64.70067654 79.27127917 -60.51226807 83.43756104 C-56.23893937 87.69042719 -51.97127027 91.94896419 -47.703125 96.20703125 C-39.32845419 104.56025559 -30.94746557 112.90711048 -22.5625 121.25 C-20.34630741 117.92571111 -19.80821431 115.53902594 -18.9765625 111.64453125 C-18.76374634 110.64912323 -18.76374634 110.64912323 -18.54663086 109.63360596 C-18.0839018 107.44513026 -17.63411372 105.25431857 -17.1875 103.0625 C-17.03287292 102.31024139 -16.87824585 101.55798279 -16.71893311 100.78292847 C-12.17841576 78.52686808 -9.14827033 55.9778887 -8.5625 33.25 C-37.63117619 33.25 -67.42939551 39.46530851 -95.5625 46.25 Z M-207.5625 99.25 C-208.11228516 99.6826416 -208.66207031 100.1152832 -209.22851562 100.56103516 C-218.00670016 107.53588691 -225.93354652 115.41765413 -233.875 123.3125 C-234.64336182 124.07282532 -234.64336182 124.07282532 -235.42724609 124.84851074 C-242.27864682 131.64550911 -248.54785394 138.68755287 -254.5625 146.25 C-255.42587571 147.27756057 -256.29428251 148.30096064 -257.171875 149.31640625 C-281.4373381 177.61135319 -308.38628978 216.72162469 -317.5625 253.25 C-317.09290606 256.77562961 -315.72950902 258.46708852 -313.26242065 260.9646759 C-312.55595901 261.68682281 -311.84949738 262.40896973 -311.12162781 263.15299988 C-309.95129753 264.32600395 -309.95129753 264.32600395 -308.75732422 265.52270508 C-307.53039101 266.76957092 -307.53039101 266.76957092 -306.27867126 268.04162598 C-303.56646222 270.79259513 -300.84277545 273.53182065 -298.1171875 276.26953125 C-296.7064884 277.69122574 -295.29579064 279.11292156 -293.88530266 280.5348255 C-289.44979188 285.00512927 -285.00504306 289.46611133 -280.55566406 293.92260742 C-275.96656121 298.5195862 -271.39857002 303.13684301 -266.83962429 307.7637127 C-262.92332106 311.7363122 -258.99178374 315.69340003 -255.04825032 319.63896865 C-252.69364349 321.99541701 -250.34789381 324.3596421 -248.01369858 326.73633766 C-245.40894649 329.38486843 -242.78025769 332.00710396 -240.14404297 334.62426758 C-239.37596817 335.41639145 -238.60789337 336.20851532 -237.81654358 337.02464294 C-233.54263057 341.36519612 -233.54263057 341.36519612 -227.7098999 342.29164124 C-224.63388031 341.27362352 -221.67201241 340.23147517 -218.7109375 338.9140625 C-217.62288818 338.43251709 -216.53483887 337.95097168 -215.41381836 337.45483398 C-214.2666333 336.93348877 -213.11944824 336.41214355 -211.9375 335.875 C-210.14421265 335.06687866 -210.14421265 335.06687866 -208.31469727 334.24243164 C-180.08902542 321.43452917 -153.8344848 305.52296202 -129.5625 286.25 C-128.62921875 285.51136719 -127.6959375 284.77273438 -126.734375 284.01171875 C-120.26664898 278.80981911 -114.13651597 273.28717398 -108.06542969 267.63525391 C-106.61307929 266.29661905 -105.1388905 264.98179801 -103.6640625 263.66796875 C-75.30437984 238.31152326 -54.13635839 207.53357256 -38.875 172.75 C-38.4526709 171.78876221 -38.0303418 170.82752441 -37.59521484 169.8371582 C-34.79080861 163.2599823 -34.79080861 163.2599823 -33.5625 156.25 C-34.91919698 153.8577436 -34.91919698 153.8577436 -37.14924622 151.80801392 C-37.96956833 150.97517883 -38.78989044 150.14234375 -39.6350708 149.28427124 C-40.55189636 148.38947052 -41.46872192 147.4946698 -42.41333008 146.57275391 C-43.37693357 145.60785069 -44.33901034 144.64142074 -45.29966736 143.67358398 C-47.91220336 141.0504909 -50.54595688 138.44969237 -53.18429399 135.85258532 C-55.93927387 133.1339115 -58.67522433 130.3962171 -61.41349792 127.66073608 C-66.01321366 123.0711614 -70.62576573 118.49483026 -75.24731445 113.92724609 C-81.18553762 108.05824891 -87.1028481 102.1686301 -93.01358509 96.27196693 C-98.08920484 91.20861408 -103.17352952 86.15402916 -108.25967956 81.10125685 C-109.89760706 79.4735058 -111.53447801 77.84469744 -113.17127419 76.21580887 C-115.73940706 73.66132433 -118.31287495 71.11233436 -120.8906498 68.56758118 C-122.29147492 67.18252985 -123.68746877 65.79259763 -125.08334351 64.40255737 C-125.91212509 63.58664124 -126.74090668 62.7707251 -127.59480286 61.93008423 C-128.31694379 61.21519144 -129.03908472 60.50029865 -129.78310871 59.76374245 C-142.20351883 49.1975999 -196.70463275 90.6046684 -207.5625 99.25 Z M-389.2109375 233.6328125 C-389.82324219 234.24253906 -390.43554688 234.85226563 -391.06640625 235.48046875 C-391.68386719 236.10566406 -392.30132812 236.73085937 -392.9375 237.375 C-393.57816406 238.00792969 -394.21882813 238.64085937 -394.87890625 239.29296875 C-395.48347656 239.90011719 -396.08804688 240.50726563 -396.7109375 241.1328125 C-397.25927246 241.68340332 -397.80760742 242.23399414 -398.37255859 242.80126953 C-399.77407055 244.19512056 -399.77407055 244.19512056 -399.5625 246.25 C-393.35239749 247.82151786 -387.1409268 249.38753491 -380.9284668 250.94970703 C-378.81453944 251.48196403 -376.70093036 252.01548678 -374.58764648 252.55029297 C-371.5527461 253.31809926 -368.51673603 254.08136954 -365.48046875 254.84375 C-364.0600251 255.20466736 -364.0600251 255.20466736 -362.61088562 255.57287598 C-361.73019913 255.79310425 -360.84951263 256.01333252 -359.94213867 256.24023438 C-359.16714523 256.43564819 -358.39215179 256.63106201 -357.59367371 256.83239746 C-355.41835357 257.35069223 -355.41835357 257.35069223 -352.5625 257.25 C-351.15624975 253.31744686 -349.7504175 249.38474463 -348.3449707 245.4519043 C-347.86689527 244.1142982 -347.38870608 242.77673276 -346.91040039 241.43920898 C-346.22251887 239.51556937 -345.53504793 237.59178345 -344.84765625 235.66796875 C-344.43394775 234.51063232 -344.02023926 233.3532959 -343.59399414 232.16088867 C-342.89811958 230.19712243 -342.22133376 228.22650129 -341.5625 226.25 C-346.86436559 226.15081414 -352.16568618 226.07838245 -357.46826172 226.03027344 C-359.27044081 226.01020967 -361.07255521 225.98295187 -362.87451172 225.94824219 C-365.47119136 225.89949171 -368.06700729 225.87697918 -370.6640625 225.859375 C-371.4642984 225.83872986 -372.2645343 225.81808472 -373.08901978 225.79681396 C-380.17716627 225.79399745 -384.24230486 228.68437169 -389.2109375 233.6328125 Z M-338 295.5 C-338.59876953 296.08652344 -339.19753906 296.67304688 -339.81445312 297.27734375 C-340.67780273 298.13779297 -340.67780273 298.13779297 -341.55859375 299.015625 C-342.35027954 299.80114746 -342.35027954 299.80114746 -343.15795898 300.60253906 C-345.8031771 303.70525622 -346.86550291 306.50906384 -346.9375 310.5625 C-346.96585937 311.28050781 -346.99421875 311.99851562 -347.0234375 312.73828125 C-345.45961807 321.25977188 -338.17982078 327.07238182 -332.3203125 332.890625 C-331.30863398 333.904328 -330.29740085 334.91847567 -329.28659058 335.93304443 C-327.17490085 338.04913787 -325.05793006 340.15975909 -322.93701172 342.26660156 C-320.22792324 344.95857744 -317.53255819 347.6638301 -314.84100533 350.37332535 C-312.75828041 352.46692227 -310.66842402 354.55328285 -308.57638168 356.63756561 C-307.57989594 357.63205993 -306.58560666 358.62876044 -305.59363174 359.62775421 C-304.20398627 361.02507241 -302.80359755 362.41168107 -301.40283203 363.79785156 C-300.61103546 364.58726135 -299.81923889 365.37667114 -299.00344849 366.19000244 C-294.22462929 370.22300679 -289.93310228 371.8588646 -283.78125 371.58203125 C-275.47409341 370.33888282 -270.02756925 363.01196436 -264.5625 357.25 C-266.2191738 352.96019932 -269.44894916 350.09013854 -272.64868164 346.92089844 C-273.27159592 346.29608582 -273.89451019 345.67127319 -274.53630066 345.02752686 C-276.59356701 342.96655987 -278.65793759 340.91287396 -280.72265625 338.859375 C-282.15266244 337.43056081 -283.58229929 336.00137688 -285.01158142 334.57183838 C-288.00536933 331.57961395 -291.00248629 328.59077849 -294.00219727 325.60449219 C-297.85674505 321.7669724 -301.70463863 317.92286401 -305.55030155 314.07644272 C-308.50012338 311.12689206 -311.45253838 308.17994905 -314.40585136 305.23389435 C-315.82630141 303.81663672 -317.24613756 302.39876355 -318.6653614 300.98027802 C-320.64297116 299.0048236 -322.62383039 297.03268993 -324.60571289 295.06152344 C-325.19742279 294.46936035 -325.78913269 293.87719727 -326.39877319 293.26708984 C-332.20400265 287.50796776 -332.7560088 290.26161734 -338 295.5 Z M-215.62133789 371.41259766 C-217.61801119 372.12251513 -219.61839039 372.82120027 -221.61914062 373.51953125 C-222.88305608 373.96806421 -224.14673631 374.41726067 -225.41015625 374.8671875 C-226.56523682 375.27565918 -227.72031738 375.68413086 -228.91040039 376.10498047 C-231.68933882 376.96709573 -231.68933882 376.96709573 -232.5625 379.25 C-232.29632839 381.23404129 -232.29632839 381.23404129 -231.69799805 383.484375 C-231.37722542 384.79583496 -231.37722542 384.79583496 -231.04997253 386.13378906 C-230.81047379 387.07963867 -230.57097504 388.02548828 -230.32421875 389 C-230.08339066 389.96905273 -229.84256256 390.93810547 -229.59443665 391.93652344 C-229.08246469 393.98850036 -228.56691452 396.03958727 -228.0480957 398.08984375 C-227.25392865 401.23444403 -226.47484428 404.38251213 -225.69726562 407.53125 C-225.19882176 409.52106028 -224.69950197 411.51065138 -224.19921875 413.5 C-223.96579269 414.44584961 -223.73236664 415.39169922 -223.49186707 416.36621094 C-223.26856216 417.24051758 -223.04525726 418.11482422 -222.81518555 419.015625 C-222.62119675 419.78680664 -222.42720795 420.55798828 -222.2273407 421.35253906 C-221.64356632 423.4579384 -221.64356632 423.4579384 -219.5625 425.25 C-216.93728448 422.77135638 -214.34166315 420.26366813 -211.75 417.75 C-211.01201172 417.05390625 -210.27402344 416.3578125 -209.51367188 415.640625 C-203.91014197 410.16387179 -200.99315359 405.70521393 -200.234375 397.85546875 C-200.26015625 396.72753906 -200.2859375 395.59960938 -200.3125 394.4375 C-200.33828125 393.16132813 -200.3640625 391.88515625 -200.390625 390.5703125 C-200.67588567 382.79147335 -201.09414285 375.01971059 -201.5625 367.25 C-206.30637984 367.25 -211.15861644 369.82132498 -215.62133789 371.41259766 Z " fill="#ffffff" transform="translate(470.5625,16.75)"/>
<path d="M0 0 C0.85851562 0.2784375 1.71703125 0.556875 2.6015625 0.84375 C9.16429798 3.20064571 14.47621042 6.79690706 20 11 C21.010625 11.721875 22.02125 12.44375 23.0625 13.1875 C30.90829297 19.98570129 36.41335398 29.3793495 40 39 C40.31839844 39.77859375 40.63679688 40.5571875 40.96484375 41.359375 C46.28324148 56.75086705 44.01440904 75.7362625 37.25 90.1875 C34.37487081 95.62539867 31.04939031 100.37851039 27 105 C26.20142578 105.92232422 26.20142578 105.92232422 25.38671875 106.86328125 C14.24838147 118.85227914 -1.78698626 124.98916835 -17.859375 126.21875 C-37.27870656 126.83523672 -54.11294334 119.31706113 -68.1875 106.3125 C-81.10531679 92.67996793 -85.75987599 76.71785992 -85.52392578 58.37646484 C-84.89711904 41.0367374 -78.03751703 26.49319591 -66 14 C-47.65754045 -1.91883126 -23.20159375 -7.89262427 0 0 Z M-45.65625 40.8984375 C-51.22771366 48.46361119 -53.73871796 56.82565081 -52.5 66.1875 C-50.2965591 76.30749502 -45.33197306 82.91565541 -37 89 C-29.21028568 93.48451681 -20.58813941 94.11767849 -12 91.875 C-1.99309091 88.57517568 3.54138316 81.64907417 8.875 72.9375 C11.60695393 65.82133258 11.26709854 56.07551362 8.4375 49.0625 C3.74039099 40.31104427 -2.92238047 34.90068205 -11.75 30.6875 C-24.29189678 28.03440645 -37.05079065 31.03463268 -45.65625 40.8984375 Z " fill="#ffffff" transform="translate(330,142)"/>
<path d="M0 0 C4.49025528 2.85485704 6.48482387 5.86391997 7.98046875 11.0546875 C8.73059261 16.50629186 7.7672001 20.32987214 4.98046875 25.0546875 C3.01014097 27.43150541 0.85364835 29.59194257 -1.33935547 31.76269531 C-1.97549774 32.40409454 -2.61164001 33.04549377 -3.26705933 33.70632935 C-5.36198618 35.81440943 -7.46763586 37.91138492 -9.57421875 40.0078125 C-11.03812825 41.47374382 -12.50159225 42.94012015 -13.96463013 44.40692139 C-17.02804369 47.47475178 -20.09680253 50.53710553 -23.16943359 53.59570312 C-27.10612036 57.5152836 -31.02916576 61.44819828 -34.94831657 65.3853035 C-37.96605394 68.41388293 -40.9909021 71.43527876 -44.01794815 74.4545517 C-45.46742069 75.90202421 -46.91467135 77.35172523 -48.35964584 78.80368805 C-50.37956387 80.83122879 -52.40885682 82.84889722 -54.44091797 84.86425781 C-55.33260681 85.76505569 -55.33260681 85.76505569 -56.24230957 86.68405151 C-60.53074851 90.90746132 -63.70170473 92.82670456 -69.83203125 93.4296875 C-74.5323597 93.28752256 -78.20643681 91.76866381 -82.01953125 89.0546875 C-85.55098902 85.16102893 -86.56177392 81.652468 -87.234375 76.59375 C-86.59707753 69.06205264 -83.01454891 64.31310643 -77.83911133 59.22729492 C-77.2175415 58.5969635 -76.59597168 57.96663208 -75.95556641 57.31719971 C-73.91239939 55.25215741 -71.85164289 53.20579473 -69.7890625 51.16015625 C-68.35446791 49.72219017 -66.92061596 48.28348283 -65.48747253 46.84407043 C-62.48693046 43.83617301 -59.47757333 40.83746334 -56.46166992 37.8449707 C-52.60573875 34.01752512 -48.77269256 30.16806797 -44.94598866 26.31142712 C-41.99097462 23.33830471 -39.02410416 20.3772442 -36.05356407 17.41964149 C-34.63578411 16.00518569 -33.22167783 14.58703727 -31.8114109 13.16509056 C-29.83513247 11.17604633 -27.84340908 9.20384156 -25.84692383 7.23510742 C-24.98543983 6.3584417 -24.98543983 6.3584417 -24.10655212 5.46406555 C-17.3604921 -1.11017974 -8.94128885 -4.18528414 0 0 Z " fill="#ffffff" transform="translate(104.01953125,401.9453125)"/>
<path d="M0 0 C4.45146251 2.18526342 7.18885145 4.9394521 10 9 C11.72720885 14.18162655 11.82213376 18.86401605 9.44067383 23.77612305 C6.92310342 28.56287283 3.45853063 32.11827818 -0.36328125 35.89453125 C-1.07348923 36.60856613 -1.7836972 37.32260101 -2.51542664 38.05827332 C-4.01082632 39.55638063 -5.51123186 41.04950622 -7.01635742 42.5378418 C-9.3093366 44.8093662 -11.58014648 47.10149156 -13.84960938 49.39648438 C-15.31121899 50.85545113 -16.77406873 52.31317678 -18.23828125 53.76953125 C-18.91143875 54.45078568 -19.58459625 55.1320401 -20.27815247 55.8339386 C-25.22768876 60.68705561 -29.39459031 63.54112968 -36.4375 64.4375 C-42.22749312 63.72644821 -46.41479334 61.66649931 -50.4375 57.4375 C-52.54310548 54.15275546 -53.17057106 51.51994622 -53.25 47.6875 C-53.28867187 46.57955078 -53.28867187 46.57955078 -53.328125 45.44921875 C-52.35841731 38.21104347 -47.12714239 33.70222889 -42.19140625 28.828125 C-41.42827621 28.06449646 -40.66514618 27.30086792 -39.87889099 26.51409912 C-38.26945379 24.90699573 -36.65633876 23.3035681 -35.03979492 21.70361328 C-32.56576935 19.25323809 -30.10539019 16.78975631 -27.64648438 14.32421875 C-26.07891649 12.76222612 -24.51058291 11.20100145 -22.94140625 9.640625 C-22.20588028 8.90418762 -21.47035431 8.16775024 -20.71253967 7.40899658 C-20.02179855 6.72778748 -19.33105743 6.04657837 -18.61938477 5.34472656 C-18.01554459 4.74549377 -17.41170441 4.14626099 -16.78956604 3.52886963 C-11.73533072 -0.78908607 -6.38990616 -0.75120813 0 0 Z " fill="#ffffff" transform="translate(70,357)"/>
<path d="M0 0 C4.1796989 2.8497947 7.11864324 5.98092971 8.75 10.875 C9.36684728 18.15379788 7.7986624 23.11775205 3.16073608 28.83364868 C1.28414679 30.86620556 -0.64547153 32.82517927 -2.61328125 34.76953125 C-3.32348923 35.48356613 -4.0336972 36.19760101 -4.76542664 36.93327332 C-6.26082632 38.43138063 -7.76123186 39.92450622 -9.26635742 41.4128418 C-11.5593366 43.6843662 -13.83014648 45.97649156 -16.09960938 48.27148438 C-17.56121899 49.73045113 -19.02406873 51.18817678 -20.48828125 52.64453125 C-21.16143875 53.32578568 -21.83459625 54.0070401 -22.52815247 54.7089386 C-27.48713947 59.57132221 -31.65956143 62.49031015 -38.75 63.25 C-44.29237722 62.65617387 -48.44943079 61.12091616 -52.125 56.875 C-54.63878774 53.32612319 -55.41181277 50.81753389 -55.5 46.5625 C-55.53867188 45.45455078 -55.53867188 45.45455078 -55.578125 44.32421875 C-54.6105943 37.10229319 -49.39277624 32.5786877 -44.4765625 27.703125 C-43.71580414 26.93949646 -42.95504578 26.17586792 -42.17123413 25.38909912 C-40.56608455 23.78191377 -38.95716303 22.17848782 -37.34472656 20.57861328 C-34.87992078 18.12988868 -32.43154529 15.66555363 -29.984375 13.19921875 C-28.42023201 11.63705784 -26.85515885 10.07582762 -25.2890625 8.515625 C-24.55869781 7.77918762 -23.82833313 7.04275024 -23.07583618 6.28399658 C-22.0398378 5.26218292 -22.0398378 5.26218292 -20.98291016 4.21972656 C-20.38129059 3.62049377 -19.77967102 3.02126099 -19.15982056 2.40386963 C-13.51137217 -2.11788565 -6.61890204 -2.2911584 0 0 Z " fill="#ffffff" transform="translate(146.25,432.125)"/>
</svg>
