<svg width="64" height="64" viewBox="0 0 64 64" fill="none" xmlns="http://www.w3.org/2000/svg">
<path d="M31.9536 -0.0390762C32.0808 -0.0388069 32.2081 -0.0385375 32.3392 -0.0382599C34.1653 -0.0320511 35.9568 -0.00068897 37.7505 0.374986C37.8723 0.399821 37.9942 0.424655 38.1197 0.450243C44.1675 1.71532 49.666 4.45489 54.1255 8.74999C54.2491 8.86851 54.2491 8.86851 54.3752 8.98943C55.5613 10.1325 56.6538 11.2947 57.6255 12.625C57.7327 12.7689 57.84 12.9127 57.9473 13.0566C58.702 14.0805 59.3718 15.1447 60.0005 16.25C60.046 16.329 60.0916 16.4079 60.1385 16.4893C62.8393 21.2078 64.0601 26.5537 64.0395 31.9531C64.0393 32.0803 64.039 32.2076 64.0387 32.3387C64.0325 34.1648 64.0012 35.9563 63.6255 37.75C63.5882 37.9328 63.5882 37.9328 63.5502 38.1192C62.2851 44.167 59.5456 49.6655 55.2505 54.125C55.1715 54.2074 55.0924 54.2898 55.011 54.3747C53.868 55.5608 52.7058 56.6533 51.3755 57.625C51.2316 57.7322 51.0877 57.8395 50.9438 57.9468C49.9201 58.7015 48.8573 59.3743 47.7505 60C47.6621 60.0503 47.5737 60.1005 47.4826 60.1523C44.5907 61.7805 41.4443 62.8741 38.1958 63.539C38.1059 63.5575 38.0161 63.5759 37.9235 63.5949C36.089 63.9435 34.2734 64.0436 32.4096 64.0394C32.0421 64.0391 31.6748 64.042 31.3074 64.0452C29.6357 64.0507 28.0237 63.9 26.3755 63.625C26.1623 63.5897 26.1623 63.5897 25.9448 63.5537C20.5363 62.5822 15.4051 60.0839 11.2505 56.5C11.1573 56.4207 11.0642 56.3414 10.9682 56.2598C9.28013 54.7834 7.6962 53.1895 6.37548 51.375C6.26841 51.2312 6.16132 51.0875 6.05419 50.9438C5.29918 49.9201 4.62627 48.857 4.00047 47.75C3.9502 47.6616 3.89993 47.5732 3.84813 47.4821C2.21995 44.5902 1.12635 41.4438 0.461412 38.1953C0.442993 38.1054 0.424573 38.0156 0.405595 37.923C0.0338632 35.9672 -0.0461509 34.033 -0.038588 32.0469C-0.0383186 31.9196 -0.0380492 31.7924 -0.0377716 31.6613C-0.0315628 29.8352 -0.000200684 28.0436 0.375475 26.25C0.400309 26.1281 0.425144 26.0063 0.450731 25.8807C1.71581 19.833 4.45537 14.3345 8.75048 9.87499C8.82949 9.79257 8.90851 9.71015 8.98992 9.62523C10.133 8.4392 11.2951 7.34671 12.6255 6.37499C12.7694 6.26773 12.9132 6.16047 13.0571 6.05321C14.0808 5.29851 15.1436 4.62566 16.2505 3.99999C16.3389 3.94971 16.4273 3.89944 16.5184 3.84764C19.4103 2.21946 22.5567 1.12586 25.8052 0.460924C25.895 0.442504 25.9849 0.424085 26.0775 0.405107C28.0333 0.0333749 29.9674 -0.0466392 31.9536 -0.0390762ZM13.1255 18.125C13.6244 18.6292 13.6244 18.6292 14.1514 19.0864C14.2236 19.1443 14.2959 19.2023 14.3704 19.262C14.4468 19.3225 14.5233 19.383 14.602 19.4453C14.6834 19.5101 14.7648 19.5748 14.8486 19.6416C15.5185 20.1719 16.2002 20.6855 16.8855 21.1955C17.5117 21.6621 18.1278 22.1401 18.7405 22.6243C19.4219 23.1628 20.11 23.6924 20.7994 24.2208C21.1375 24.4801 21.4752 24.7401 21.813 25C22.2117 25.3068 22.6106 25.6136 23.0098 25.9199C23.7902 26.5192 24.568 27.1217 25.3442 27.7265C26.1672 28.3677 26.9939 29.0037 27.8236 29.6362C28.5849 30.2173 29.3411 30.8048 30.0957 31.3945C30.2695 31.5301 30.4438 31.6651 30.6187 31.7992C30.796 31.9379 30.9702 32.0806 31.1415 32.2266C31.38 32.4235 31.6045 32.601 31.8755 32.75C32.395 32.6775 32.7327 32.3353 33.1255 32C33.6331 31.5747 34.146 31.16 34.6724 30.7578C34.7742 30.6799 34.7742 30.6799 34.8782 30.6003C35.0165 30.4946 35.1549 30.3889 35.2933 30.2833C35.6339 30.0231 35.9734 29.7615 36.313 29.5C36.4484 29.3958 36.5838 29.2916 36.7192 29.1875C36.7863 29.1359 36.8533 29.0844 36.9224 29.0312C37.5317 28.5625 37.5317 28.5625 37.7347 28.4064C37.8706 28.3018 38.0066 28.1972 38.1425 28.0926C38.4731 27.8383 38.8038 27.584 39.1348 27.3301C39.9152 26.7308 40.693 26.1282 41.4692 25.5234C42.293 24.8816 43.1206 24.2451 43.951 23.6119C44.5954 23.12 45.2361 22.6235 45.8755 22.125C46.615 21.5485 47.3568 20.9753 48.102 20.4062C48.2326 20.3065 48.2326 20.3065 48.3657 20.2047C48.7815 19.887 49.1979 19.5701 49.6152 19.2544C49.7645 19.1409 49.9137 19.0275 50.063 18.914C50.1932 18.8156 50.3234 18.7171 50.4575 18.6157C50.7582 18.4019 50.7582 18.4019 50.8755 18.125C38.418 18.125 25.9605 18.125 13.1255 18.125ZM11.7505 20.375C11.7505 27.6762 11.7505 34.9775 11.7505 42.5C12.2795 42.1473 12.6273 41.9005 13.0474 41.4609C13.4647 41.0256 13.9037 40.6291 14.3589 40.2345C14.8021 39.8446 15.2287 39.4375 15.6567 39.0312C16.3898 38.3383 17.1274 37.6515 17.8725 36.9717C18.3142 36.5678 18.751 36.1588 19.188 35.75C19.8735 35.1089 20.5626 34.4721 21.2554 33.8389C21.6508 33.4772 22.0444 33.1137 22.438 32.75C23.2069 32.0395 23.9783 31.3318 24.7505 30.625C24.5601 30.1134 24.1996 29.8584 23.7739 29.5469C23.6259 29.4359 23.478 29.3249 23.3301 29.2139C23.2544 29.1576 23.1787 29.1013 23.1008 29.0433C22.7519 28.7827 22.4076 28.5162 22.063 28.25C21.9268 28.1451 21.7905 28.0403 21.6543 27.9355C21.5872 27.8839 21.52 27.8322 21.4509 27.779C21.2561 27.6293 21.0611 27.4797 20.8662 27.3301C20.0857 26.7308 19.3079 26.1282 18.5317 25.5234C17.7949 24.9494 17.0557 24.3789 16.313 23.8125C15.3801 23.1011 14.4531 22.3823 13.5278 21.6611C13.4426 21.5948 13.3573 21.5284 13.2695 21.4601C13.0754 21.3085 12.8818 21.1563 12.6885 21.0038C12.5865 20.9236 12.4845 20.8434 12.3794 20.7607C12.286 20.687 12.1926 20.6133 12.0964 20.5373C11.9044 20.3627 11.9044 20.3627 11.7505 20.375ZM51.7285 20.6909C51.6464 20.7584 51.5643 20.826 51.4796 20.8956C51.3911 20.9687 51.3026 21.0418 51.2114 21.1172C50.4832 21.7141 49.7475 22.2931 48.9907 22.8535C48.5976 23.1457 48.2086 23.443 47.8208 23.7422C47.7528 23.7946 47.6848 23.8471 47.6147 23.9011C47.4774 24.007 47.3401 24.113 47.2029 24.2189C46.878 24.4694 46.5524 24.719 46.227 24.9687C45.5765 25.4686 44.9289 25.9723 44.2817 26.4765C43.5347 27.0586 42.7849 27.6368 42.0317 28.2109C41.0974 28.9232 40.172 29.6462 39.2505 30.375C39.414 30.7399 39.5833 30.9846 39.8779 31.2539C39.9533 31.3235 40.0288 31.3932 40.1065 31.4649C40.1875 31.5383 40.2686 31.6118 40.352 31.6875C40.436 31.7646 40.5199 31.8418 40.6064 31.9213C40.7792 32.0801 40.9523 32.2386 41.1257 32.3968C41.4201 32.6657 41.7128 32.9364 42.0055 33.2073C42.2704 33.4524 42.5359 33.6969 42.8014 33.9415C43.2068 34.3151 43.6117 34.6891 44.0167 35.0631C44.352 35.3726 44.6873 35.682 45.0229 35.9912C45.8302 36.7352 46.6341 37.4826 47.436 38.2323C48.0323 38.7893 48.6329 39.3413 49.2358 39.8911C49.5295 40.1602 49.8196 40.4327 50.1089 40.7065C50.192 40.785 50.2752 40.8635 50.3608 40.9443C50.5224 41.097 50.6836 41.2502 50.8442 41.4038C50.9187 41.474 50.9931 41.5443 51.0698 41.6167C51.1349 41.6786 51.2 41.7406 51.267 41.8044C51.5748 42.0623 51.9164 42.2773 52.2505 42.5C52.2505 35.1987 52.2505 27.8975 52.2505 20.375C52.0306 20.375 51.8924 20.5553 51.7285 20.6909ZM26.5359 32.2591C26.4297 32.3636 26.4297 32.3636 26.3213 32.4702C26.241 32.5475 26.1607 32.6248 26.078 32.7044C25.9507 32.8314 25.9507 32.8314 25.8208 32.9609C25.6405 33.1355 25.4602 33.3099 25.2798 33.4844C25.1903 33.5719 25.1008 33.6593 25.0085 33.7495C24.65 34.0976 24.2831 34.436 23.9145 34.7734C23.7825 34.895 23.6505 35.0166 23.5185 35.1382C23.4215 35.2274 23.4215 35.2274 23.3226 35.3185C22.9857 35.6287 22.6494 35.9394 22.313 36.25C21.9098 36.6222 21.5066 36.9944 21.103 37.3662C20.3764 38.0359 19.652 38.7079 18.9302 39.3828C18.253 40.0159 17.5715 40.6441 16.8872 41.2695C16.3626 41.7504 15.8436 42.2373 15.324 42.7236C14.7033 43.3039 14.0775 43.8782 13.4487 44.4497C13.1247 44.7508 12.8113 45.0603 12.5005 45.375C12.6566 45.4352 12.8129 45.495 12.9692 45.5547C13.0562 45.588 13.1432 45.6214 13.2329 45.6557C13.7066 45.8226 14.1171 45.8907 14.6204 45.8914C14.7459 45.8919 14.8715 45.8924 15.0008 45.8929C15.1385 45.8928 15.2762 45.8927 15.4181 45.8925C15.5645 45.8929 15.711 45.8933 15.8619 45.8937C16.2686 45.8946 16.6752 45.8949 17.0819 45.895C17.5205 45.8952 17.9591 45.8962 18.3977 45.897C19.3569 45.8987 20.3161 45.8995 21.2753 45.9C21.8745 45.9004 22.4737 45.9009 23.0729 45.9014C24.7325 45.903 26.3921 45.9043 28.0518 45.9047C28.158 45.9047 28.2642 45.9047 28.3736 45.9048C28.4801 45.9048 28.5866 45.9048 28.6963 45.9048C28.912 45.9049 29.1278 45.905 29.3435 45.905C29.4505 45.905 29.5576 45.9051 29.6678 45.9051C31.4007 45.9056 33.1336 45.9078 34.8665 45.9107C36.6464 45.9136 38.4263 45.9152 40.2063 45.9154C41.2053 45.9155 42.2043 45.9162 43.2033 45.9185C44.0543 45.9204 44.9053 45.921 45.7563 45.92C46.1901 45.9195 46.6239 45.9196 47.0578 45.9214C47.5291 45.923 48.0004 45.9222 48.4718 45.9209C48.6754 45.9224 48.6754 45.9224 48.8831 45.924C49.7473 45.9184 50.5674 45.8267 51.3755 45.5C51.4167 45.4175 51.458 45.335 51.5005 45.25C51.4395 45.1973 51.3786 45.1447 51.3158 45.0904C50.7083 44.5627 50.1164 44.0215 49.5317 43.4687C48.8203 42.7989 48.1043 42.1349 47.3828 41.4761C46.9399 41.0705 46.5015 40.6602 46.063 40.25C45.5031 39.7263 44.9414 39.2047 44.3755 38.6875C43.8096 38.1702 43.2479 37.6487 42.688 37.125C42.0026 36.4841 41.3137 35.8474 40.6211 35.2143C40.2922 34.9136 39.9646 34.6114 39.6375 34.3087C39.5005 34.1822 39.3634 34.0559 39.226 33.9298C38.8919 33.6229 38.5608 33.3137 38.2349 32.998C38.1729 32.9391 38.111 32.8801 38.0471 32.8194C37.8781 32.6584 37.7105 32.496 37.543 32.3335C37.2776 32.1034 37.2776 32.1034 37.0098 32.1181C36.6306 32.3109 36.3123 32.5679 35.9849 32.8359C35.8303 32.9599 35.6757 33.0837 35.521 33.2075C35.3966 33.3076 35.3966 33.3076 35.2696 33.4097C34.7771 33.8036 34.2793 34.1907 33.7817 34.5781C33.6834 34.6551 33.5851 34.7321 33.4838 34.8114C33.392 34.8829 33.3002 34.9545 33.2056 35.0283C33.1237 35.0922 33.0419 35.1561 32.9576 35.222C32.5719 35.5069 32.252 35.5511 31.7714 35.5436C31.2786 35.4643 30.9549 35.1706 30.5786 34.8594C30.4946 34.7933 30.4106 34.7273 30.3241 34.6593C30.0478 34.4416 29.7742 34.2208 29.5005 34C29.195 33.7573 28.8887 33.5155 28.5817 33.2747C28.3847 33.1199 28.1884 32.9641 27.993 32.8073C27.9033 32.7363 27.8136 32.6654 27.7212 32.5923C27.6423 32.5292 27.5634 32.466 27.482 32.401C27.1416 32.179 26.9033 32.0294 26.5359 32.2591Z" fill="#2628D8"/>
</svg>
