<svg width="64" height="64" viewBox="0 0 64 64" fill="none" xmlns="http://www.w3.org/2000/svg">
<g clip-path="url(#clip0_180_1120)">
<path d="M31.9536 -0.0390762C32.0808 -0.0388069 32.2081 -0.0385375 32.3392 -0.0382599C34.1653 -0.0320511 35.9568 -0.00068897 37.7505 0.374986C37.8723 0.399821 37.9942 0.424655 38.1197 0.450243C44.1675 1.71532 49.666 4.45489 54.1255 8.74999C54.2491 8.86851 54.2491 8.86851 54.3752 8.98943C55.5613 10.1325 56.6538 11.2947 57.6255 12.625C57.7327 12.7689 57.84 12.9127 57.9473 13.0566C58.702 14.0805 59.3718 15.1447 60.0005 16.25C60.046 16.329 60.0916 16.4079 60.1385 16.4893C62.8393 21.2078 64.0601 26.5537 64.0395 31.9531C64.0393 32.0803 64.039 32.2076 64.0387 32.3387C64.0325 34.1648 64.0012 35.9563 63.6255 37.75C63.5882 37.9328 63.5882 37.9328 63.5502 38.1192C62.2851 44.167 59.5456 49.6655 55.2505 54.125C55.1715 54.2074 55.0924 54.2898 55.011 54.3747C53.868 55.5608 52.7058 56.6533 51.3755 57.625C51.2316 57.7322 51.0877 57.8395 50.9438 57.9468C49.9201 58.7015 48.8573 59.3743 47.7505 60C47.6621 60.0503 47.5737 60.1005 47.4826 60.1523C44.5907 61.7805 41.4443 62.8741 38.1958 63.539C38.1059 63.5575 38.0161 63.5759 37.9235 63.5949C36.089 63.9435 34.2734 64.0436 32.4096 64.0394C32.0421 64.039 31.6748 64.042 31.3074 64.0452C29.6357 64.0507 28.0237 63.9 26.3755 63.625C26.1623 63.5897 26.1623 63.5897 25.9448 63.5537C20.5363 62.5822 15.4051 60.0839 11.2505 56.5C11.1573 56.4207 11.0642 56.3414 10.9682 56.2598C9.28013 54.7834 7.6962 53.1895 6.37548 51.375C6.26841 51.2312 6.16132 51.0875 6.05419 50.9438C5.29918 49.9201 4.62627 48.857 4.00047 47.75C3.9502 47.6616 3.89993 47.5732 3.84813 47.4821C2.21995 44.5902 1.12635 41.4438 0.461412 38.1953C0.442993 38.1054 0.424573 38.0156 0.405595 37.923C0.0338632 35.9672 -0.0461509 34.033 -0.038588 32.0469C-0.0383186 31.9196 -0.0380492 31.7924 -0.0377716 31.6613C-0.0315628 29.8352 -0.000200685 28.0436 0.375475 26.25C0.400309 26.1281 0.425144 26.0063 0.450731 25.8807C1.71581 19.833 4.45537 14.3345 8.75048 9.87499C8.82949 9.79257 8.90851 9.71015 8.98992 9.62523C10.133 8.4392 11.2951 7.34671 12.6255 6.37499C12.7694 6.26773 12.9132 6.16047 13.0571 6.05321C14.0808 5.29851 15.1437 4.62566 16.2505 3.99999C16.3389 3.94971 16.4273 3.89944 16.5184 3.84764C19.4103 2.21946 22.5567 1.12586 25.8052 0.460924C25.895 0.442504 25.9849 0.424085 26.0775 0.405107C28.0333 0.0333749 29.9674 -0.0466392 31.9536 -0.0390762Z" fill="#2628D8"/>
<path d="M40.4596 13.9941C40.6034 14.1208 40.6034 14.1208 40.7501 14.25C40.8524 14.3344 40.9547 14.4189 41.0602 14.5059C43.4653 16.5493 45.1395 19.7408 45.5001 22.875C45.8006 27.2533 44.2894 30.4108 42.2502 34.1459C42.0713 34.4736 41.8932 34.8018 41.715 35.1299C41.4755 35.5701 41.2351 36.0098 40.9942 36.4492C40.5784 37.2089 40.1681 37.9716 39.7579 38.7344C38.8587 40.4065 37.9545 42.0759 37.0495 43.7449C36.8481 44.1164 36.6468 44.4879 36.4454 44.8594C36.3788 44.9823 36.3122 45.1053 36.2435 45.2319C35.7414 46.1589 35.2416 47.0872 34.7423 48.0156C34.1742 49.0715 33.6045 50.1265 33.0314 51.1797C32.9687 51.2952 32.906 51.4106 32.8414 51.5296C32.7546 51.6887 32.7546 51.6887 32.6661 51.8511C32.6157 51.9436 32.5653 52.0362 32.5134 52.1316C32.3932 52.3432 32.2601 52.5475 32.1251 52.75C31.665 52.5966 31.6493 52.5014 31.4381 52.0806C31.3794 51.9655 31.3206 51.8503 31.2601 51.7317C31.1662 51.5435 31.1662 51.5435 31.0704 51.3516C30.9352 51.0865 30.7998 50.8215 30.6642 50.5566C30.5952 50.4215 30.5262 50.2864 30.4552 50.1472C30.1488 49.5539 29.8295 48.968 29.5079 48.3828C29.3828 48.1545 29.2576 47.9261 29.1324 47.6978C29.0697 47.5835 29.007 47.4692 28.9424 47.3514C28.6109 46.7457 28.282 46.1385 27.9532 45.5313C27.8861 45.4074 27.819 45.2835 27.7499 45.1559C27.1715 44.0871 26.5958 43.0167 26.0202 41.9464C25.4978 40.976 24.9712 40.008 24.4425 39.041C23.8831 38.0169 23.3303 36.9893 22.7778 35.9615C22.363 35.1901 21.946 34.42 21.5258 33.6516C21.2815 33.2049 21.0381 32.7577 20.7947 32.3105C20.632 32.0126 20.468 31.7155 20.3038 31.4185C18.675 28.4455 17.8763 24.986 18.7623 21.6299C18.7995 21.5045 18.8368 21.3792 18.8751 21.25C18.9251 21.0542 18.9251 21.0542 18.9762 20.8545C19.9131 17.4315 22.2424 14.6167 25.2345 12.7813C29.9305 10.151 36.292 10.4397 40.4596 13.9941Z" fill="#F0F2F2"/>
<path d="M35.7619 19.7993C35.8796 19.8986 35.8796 19.8986 35.9997 20C36.0743 20.0598 36.1489 20.1195 36.2258 20.1811C37.2264 21.0658 37.9099 22.572 38.0373 23.8882C38.0441 25.6772 37.5827 27.3327 36.342 28.6728C34.9812 29.9388 33.4926 30.4688 31.6553 30.4402C30.8209 30.4052 30.1167 30.2756 29.3747 29.875C29.2584 29.8128 29.1421 29.7506 29.0222 29.6865C27.4558 28.7688 26.5424 27.4424 26.0779 25.6875C25.7801 23.9911 26.1044 22.4933 27.0305 21.0473C27.969 19.7744 29.203 18.8593 30.7654 18.5468C32.6292 18.3665 34.2706 18.6032 35.7619 19.7993Z" fill="#2628D8"/>
</g>
<defs>
<clipPath id="clip0_180_1120">
<rect width="64" height="64" fill="white"/>
</clipPath>
</defs>
</svg>
