<?xml version="1.0" encoding="UTF-8"?>
<svg version="1.1" xmlns="http://www.w3.org/2000/svg" width="512" height="512">
<path d="M0 0 C0.77114136 -0.00133942 1.54228271 -0.00267883 2.33679199 -0.00405884 C38.33620021 0.00932213 76.05826538 2.08047669 104.125 27.25 C104.75921875 27.80171875 105.3934375 28.3534375 106.046875 28.921875 C121.47611756 43.21869609 131.42637501 66.28322032 132.23901367 87.18212891 C132.3069928 90.79872382 132.34234441 94.41407204 132.36328125 98.03125 C132.36735678 98.68907974 132.3714323 99.34690948 132.37563133 100.02467346 C132.39638138 103.50163445 132.41073475 106.97855718 132.42016602 110.45556641 C132.43125516 114.0298328 132.46571453 117.60348098 132.50533772 121.17752838 C132.53155695 123.94347234 132.53986208 126.70926926 132.54344749 129.47532654 C132.55063499 131.4289947 132.57703644 133.38256201 132.60383606 135.33605957 C132.58708804 142.19507787 132.35020064 146.73050229 128.125 152.25 C124.26394249 155.8285411 121.30751745 157.37231778 116.05568218 157.38142776 C115.22436108 157.38526891 114.39303998 157.38911005 113.53652734 157.3930676 C112.16670566 157.39176787 112.16670566 157.39176787 110.76921082 157.39044189 C109.79899547 157.39341302 108.82878013 157.39638414 107.82916433 157.3994453 C104.56342839 157.40814822 101.29772905 157.40964189 98.03198242 157.41113281 C95.69647645 157.41575984 93.36097124 157.42078434 91.02546692 157.42617798 C84.67007277 157.43931464 78.3146892 157.44574934 71.95928359 157.45018864 C67.99108153 157.45311717 64.02288238 157.45722154 60.05468178 157.46169281 C49.06826884 157.473803 38.08185844 157.48418473 27.09543896 157.4875679 C26.39226221 157.48778747 25.68908547 157.48800703 24.96460034 157.48823325 C24.25973978 157.48845153 23.55487921 157.48866981 22.82865924 157.4888947 C21.40033988 157.48933817 19.97202053 157.48978473 18.54370117 157.49023438 C17.83520522 157.4904558 17.12670927 157.49067723 16.39674375 157.49090537 C4.91640755 157.49485344 -6.56386517 157.51230778 -18.04417685 157.5355939 C-29.83033267 157.55930745 -41.61645664 157.57176975 -53.40263671 157.57293582 C-60.02035097 157.57385257 -66.63799214 157.5799233 -73.25568581 157.59775543 C-79.47973511 157.61420026 -85.70362726 157.61640902 -91.92769051 157.60761642 C-94.21339589 157.60684414 -96.49910961 157.61121382 -98.78479385 157.62107468 C-101.90280436 157.63373851 -105.02025363 157.6279474 -108.13825989 157.61749268 C-109.49804332 157.62957728 -109.49804332 157.62957728 -110.88529712 157.64190602 C-116.67195221 157.59646312 -121.07040362 156.80811166 -125.51953125 152.75 C-129.07448355 148.18444253 -129.99827233 145.26795036 -130.03613281 139.5637207 C-130.04574036 138.39432449 -130.0553479 137.22492828 -130.06524658 136.02009583 C-130.06949646 134.75147202 -130.07374634 133.48284821 -130.078125 132.17578125 C-130.08382507 130.86401413 -130.08952515 129.55224701 -130.09539795 128.20072937 C-130.10591077 125.41400772 -130.11174868 122.62731486 -130.11523438 119.84057617 C-130.11958878 117.01166671 -130.13335858 114.18306744 -130.15625 111.35424805 C-130.3981103 80.87381964 -127.12471427 54.94572455 -105.875 31.25 C-105.32328125 30.61578125 -104.7715625 29.9815625 -104.203125 29.328125 C-78.22309664 1.29027262 -35.49638557 0.03689753 0 0 Z M-38.875 35.25 C-39.67196289 35.35183594 -40.46892578 35.45367187 -41.29003906 35.55859375 C-58.59516546 37.89575963 -73.54699208 43.92859217 -85.02734375 57.6484375 C-99.52066347 78.05552192 -96.875 99.03329917 -96.875 124.25 C-32.195 124.25 32.485 124.25 99.125 124.25 C100.44147411 84.71853831 100.44147411 84.71853831 82.53515625 52.53515625 C70.72686746 41.33929086 56.8889404 37.26431669 41.125 35.25 C39.90635254 35.09337891 39.90635254 35.09337891 38.66308594 34.93359375 C13.20481789 31.84774308 -13.4468334 31.98196114 -38.875 35.25 Z " fill="#ffffff" transform="translate(254.875,254.75)"/>
<path d="M0 0 C13.04940947 10.13546367 23.15569723 24.04927014 26.6953125 40.40625 C29.08519449 60.21428088 26.78117564 79.26647991 14.86083984 95.75390625 C3.90937315 109.52565032 -10.68042527 118.42807696 -27.87109375 122 C-31.81996163 122.41171303 -35.71555836 122.47820273 -39.68359375 122.4375 C-40.73458252 122.42920166 -41.78557129 122.42090332 -42.8684082 122.41235352 C-62.26688207 121.99211058 -77.57683597 113.77622483 -90.87109375 100 C-103.97768522 85.77795394 -107.62233973 67.94429203 -107.1484375 49.21875 C-106.39743089 31.69318486 -97.84923165 16.48298218 -85.2734375 4.53125 C-61.17779448 -16.27074397 -26.18122898 -18.23780849 0 0 Z M-65.87109375 32 C-73.13170147 42.326572 -75.52912547 51.99151762 -73.44140625 64.59375 C-70.81293774 73.80961489 -63.97405221 81.15380753 -55.87109375 86 C-47.09611411 90.43972184 -38.22184306 90.78855409 -28.87109375 88 C-19.52335282 84.56963636 -12.27895335 77.88710155 -7.87109375 69 C-4.50845269 60.99371177 -4.48021436 50.75530818 -7.49609375 42.625 C-11.51213148 34.08917068 -16.60486254 28.56705718 -24.87109375 24 C-25.79341797 23.48759766 -25.79341797 23.48759766 -26.734375 22.96484375 C-39.59578243 17.04363904 -56.80094898 21.30604414 -65.87109375 32 Z " fill="#ffffff" transform="translate(295.87109375,112)"/>
<path d="M0 0 C0.61488281 0.51949219 1.22976563 1.03898437 1.86328125 1.57421875 C13.69602804 12.37330031 21.91345439 29.59528514 23.20243835 45.4974823 C23.29442212 48.17055635 23.32946033 50.83707294 23.3359375 53.51171875 C23.3459227 54.96950493 23.3459227 54.96950493 23.35610962 56.45674133 C23.36617113 58.49628828 23.37092867 60.53586771 23.37060547 62.57543945 C23.37500284 65.68951139 23.41145759 68.80219142 23.44921875 71.91601562 C23.45508352 73.90624519 23.45905519 75.89648143 23.4609375 77.88671875 C23.47530853 78.81183762 23.48967957 79.73695648 23.50448608 80.69010925 C23.46510157 86.26778788 22.93412989 89.72413594 19 94 C13.34977623 97.94785025 9.19848463 98.5807091 2.39624023 98.51757812 C1.45875946 98.5245874 0.52127869 98.53159668 -0.4446106 98.53881836 C-3.52718179 98.55634811 -6.60882658 98.54479417 -9.69140625 98.53125 C-11.84179357 98.53394612 -13.99217971 98.53782955 -16.14256287 98.54284668 C-20.6422795 98.54873475 -25.14167787 98.54019999 -29.64135742 98.52148438 C-35.40389837 98.49868178 -41.16569463 98.51183098 -46.92820835 98.53577423 C-51.36607967 98.55023901 -55.80377486 98.54562327 -60.24165154 98.53526306 C-62.36629258 98.53259838 -64.49094972 98.5358564 -66.61557198 98.54518127 C-69.586023 98.55535932 -72.55527302 98.53982827 -75.52563477 98.51757812 C-76.40008743 98.52567505 -77.2745401 98.53377197 -78.17549133 98.54211426 C-83.59913243 98.466989 -86.69815026 97.60601031 -91 94 C-94.60464151 89.71339929 -96.24258915 85.61119246 -96 80 C-94.96421675 74.19961378 -92.3026375 70.81223258 -87.81640625 67.12890625 C-83.74148933 64.59632348 -79.54005267 64.87837922 -74.84472656 64.88647461 C-74.13213181 64.88632858 -73.41953705 64.88618256 -72.68534851 64.8860321 C-70.33707605 64.88672709 -67.98888355 64.89450006 -65.640625 64.90234375 C-64.00966434 64.9042094 -62.37870312 64.90563261 -60.7477417 64.90663147 C-56.46025031 64.91044506 -52.17279292 64.92026546 -47.88531494 64.93133545 C-43.50818339 64.94157447 -39.13104633 64.94613443 -34.75390625 64.95117188 C-26.16925525 64.96188877 -17.58463186 64.97895128 -9 65 C-9.29018376 62.12548492 -9.58816532 59.25213395 -9.890625 56.37890625 C-9.97135254 55.57118774 -10.05208008 54.76346924 -10.13525391 53.93127441 C-11.3767964 42.2992037 -15.52832459 31.89128215 -24.1875 23.75 C-39.93820674 11.38911928 -62.53115756 11.81875104 -81.60644531 11.86962891 C-83.99550724 11.87498992 -86.38438124 11.86965337 -88.7734375 11.86328125 C-96.91547929 11.85989814 -104.89680822 12.1365891 -113 13 C-125.83146871 13.74718519 -125.83146871 13.74718519 -131 10 C-134.52442669 6.27977183 -136.81727496 2.93375206 -137.140625 -2.2578125 C-136.95181109 -8.43202721 -135.19791114 -11.87227847 -131.08203125 -16.40625 C-102.53196305 -38.26071121 -23.97135964 -20.91820884 0 0 Z " fill="#ffffff" transform="translate(489,264)"/>
<path d="M0 0 C0.83983429 0.00027191 1.67966858 0.00054382 2.54495239 0.00082397 C12.19563651 0.01521132 21.82345313 0.06414445 31.4375 1 C32.18515625 1.07001221 32.9328125 1.14002441 33.703125 1.2121582 C39.7468813 1.92565721 45.70371363 3.56018356 49.875 8.25 C53.23679541 12.53357802 54.00407568 16.81909402 53.5 22.1875 C51.9192901 27.54537136 49.23927943 31.14950036 44.5 34.1875 C41.40147779 35.22034074 39.24696313 35.32104464 36 35.3125 C34.56140625 35.31636719 34.56140625 35.31636719 33.09375 35.3203125 C30.24681579 35.21509971 27.49669626 34.99118319 24.66796875 34.6953125 C16.8946375 33.96108399 9.11349236 33.9434992 1.3125 33.9375 C0.52230469 33.93682526 -0.26789063 33.93615051 -1.08203125 33.93545532 C-33.59658748 33.54419541 -33.59658748 33.54419541 -61.5 48.1875 C-70.60300036 58.17963063 -72.72715677 69.30518455 -74.0246582 82.39282227 C-74.11391068 83.29130386 -74.20316315 84.18978546 -74.29512024 85.11549377 C-74.36273056 85.79925583 -74.43034088 86.48301788 -74.5 87.1875 C-73.15149208 87.17750725 -73.15149208 87.17750725 -71.77574158 87.16731262 C-63.28673558 87.10710073 -54.79780173 87.0614744 -46.30863094 87.03206348 C-41.94467465 87.01643451 -37.58089542 86.99524708 -33.21704102 86.96118164 C-29.00248547 86.92848907 -24.78809981 86.91062617 -20.5734272 86.90286827 C-18.96872854 86.89734248 -17.36403874 86.88655197 -15.75941277 86.87030983 C-13.5046903 86.84840338 -11.25066206 86.8455385 -8.99584961 86.84692383 C-7.71455673 86.84026199 -6.43326385 86.83360016 -5.11314392 86.82673645 C0.48863857 87.38606068 4.25693241 88.94443241 8.3125 93 C11.82954461 98.12483643 13.04703726 102.13982732 12.03515625 108.234375 C10.82342008 112.65676977 8.39755301 115.43512936 4.94761658 118.32702637 C0.46005146 120.74869838 -2.95851873 120.75152195 -7.97436523 120.70507812 C-8.91009369 120.7120874 -9.84582214 120.71909668 -10.80990601 120.72631836 C-13.89310671 120.74387665 -16.97538422 120.73228207 -20.05859375 120.71875 C-22.20801468 120.72144576 -24.35743443 120.72532887 -26.5068512 120.73034668 C-31.00834786 120.736239 -35.50952666 120.72768794 -40.01098633 120.70898438 C-45.77233695 120.68620902 -51.5329416 120.69931104 -57.29426479 120.72327423 C-61.73217861 120.73775094 -66.16991656 120.73311733 -70.60783577 120.72276306 C-72.7316503 120.72010026 -74.85548095 120.72334979 -76.97927666 120.73268127 C-79.95202593 120.74287593 -82.92357966 120.72730386 -85.89624023 120.70507812 C-87.20488289 120.71722351 -87.20488289 120.71722351 -88.53996277 120.72961426 C-94.34697907 120.64945628 -97.72034803 119.52866771 -102.5 116.1875 C-107.06780643 111.18879469 -107.08877325 106.72378902 -107.03125 100.28515625 C-107.0350769 99.33039902 -107.03890381 98.37564178 -107.04284668 97.39195251 C-107.04556284 95.37221217 -107.03822244 93.35243648 -107.02148438 91.33276367 C-107.00028345 88.29067126 -107.02118523 85.25099851 -107.046875 82.20898438 C-107.07909349 60.66706415 -102.25785288 42.60487047 -87.5 26.1875 C-86.98179688 25.57648438 -86.46359375 24.96546875 -85.9296875 24.3359375 C-71.58650462 8.5512287 -50.86053143 3.32668912 -30.5 1.1875 C-29.19869141 1.04501831 -29.19869141 1.04501831 -27.87109375 0.8996582 C-18.58984902 -0.00295248 -9.31580488 -0.01128774 0 0 Z " fill="#ffffff" transform="translate(106.5,241.8125)"/>
<path d="M0 0 C11.56024163 10.81617584 17.65499146 25.70149875 18.1875 41.375 C17.94475547 54.61171656 14.33842914 65.8860937 6.8125 76.8125 C5.7296875 78.3903125 5.7296875 78.3903125 4.625 80 C-7.79469077 92.41969077 -21.60468066 98.91390912 -39 99.125 C-54.06574626 99.03572606 -68.09437942 94.49616241 -79.28125 83.94921875 C-85.87093944 76.56282505 -91.27504409 68.32223173 -94.1875 58.8125 C-94.41050781 58.12285156 -94.63351562 57.43320313 -94.86328125 56.72265625 C-99.08511421 41.30004198 -95.52402823 26.00475802 -88.26171875 12.2109375 C-80.67357632 -0.22161224 -69.16579564 -9.05801828 -55.1875 -13.1875 C-34.73744919 -18.10620503 -15.93269851 -13.45748291 0 0 Z M-56.71875 25.1328125 C-61.72384044 30.85671912 -63.58393076 36.88861654 -63.4609375 44.37890625 C-62.67894455 51.33864348 -59.12481631 56.73249825 -54.0234375 61.37109375 C-47.68949003 66.34391634 -40.94040284 66.71183673 -33.1875 65.8125 C-26.49809406 64.00976179 -22.04173685 59.4001238 -18.1875 53.8125 C-15.44435662 48.79313126 -14.21941186 43.52422001 -15.1875 37.8125 C-17.49611171 30.52672004 -21.11282348 24.29148696 -27.9375 20.5 C-38.03858146 15.99801988 -48.59476155 17.43035175 -56.71875 25.1328125 Z " fill="#ffffff" transform="translate(444.1875,133.1875)"/>
<path d="M0 0 C11.45976238 12.26868679 15.91521229 27.07192273 15.6328125 43.55078125 C14.53019943 57.61956578 8.81890752 71.75474573 -1.67578125 81.48828125 C-16.68471573 93.96762003 -31.55840893 97.84168401 -50.67578125 96.48828125 C-65.15068721 94.37735746 -78.44198669 86.15262709 -87.42578125 74.80078125 C-97.15004239 61.2071806 -100.5591726 45.94596856 -98.24609375 29.41796875 C-94.78395181 13.38953383 -86.08008062 0.00073287 -72.30078125 -8.94921875 C-47.96036179 -22.9234831 -20.3896787 -19.04530428 0 0 Z M-59.20703125 22.73828125 C-63.57304015 27.9403344 -66.07411577 34.38138314 -65.94921875 41.17578125 C-65.09759327 48.37809956 -61.88138008 54.27878989 -56.51171875 59.08203125 C-50.11191952 63.98400513 -43.45557779 64.38155562 -35.67578125 63.48828125 C-28.53553659 61.64484459 -23.91202261 56.26497402 -19.67578125 50.48828125 C-16.70435212 44.54542299 -16.74659968 37.63522026 -18.80078125 31.36328125 C-21.61135659 24.80091463 -25.99072424 20.08469618 -32.546875 17.2109375 C-42.15742021 13.94864234 -51.73876292 15.69274509 -59.20703125 22.73828125 Z " fill="#ffffff" transform="translate(148.67578125,135.51171875)"/>
</svg>
