<svg width="64" height="64" viewBox="0 0 64 64" fill="none" xmlns="http://www.w3.org/2000/svg">
<path d="M52.9852 7.84837C53.5345 8.33363 54.0684 8.83376 54.5994 9.33886C54.7207 9.45178 54.8421 9.5647 54.9671 9.68104C57.2619 11.8784 59.051 14.6332 60.522 17.4295C60.5756 17.5313 60.6293 17.6331 60.6845 17.738C62.9756 22.1588 64.0243 27.0418 63.9996 31.9967C63.9992 32.1187 63.9989 32.2408 63.9986 32.3666C63.9597 41.2132 60.2778 48.9226 54.1805 55.2282C53.2456 56.1499 52.2241 56.9467 51.1705 57.7274C51.0863 57.7898 51.0021 57.8522 50.9153 57.9165C49.561 58.9087 48.1363 59.7492 46.6506 60.528C46.5487 60.5815 46.4467 60.6351 46.3417 60.6903C41.9092 62.9795 37.0161 64.0237 32.0487 63.9996C31.9263 63.9993 31.8038 63.999 31.6777 63.9987C29.725 63.9911 27.8379 63.8831 25.9215 63.4842C25.7908 63.4583 25.66 63.4325 25.5252 63.4058C17.8858 61.8669 10.9045 57.4688 6.28345 51.1926C6.1617 51.0277 6.03994 50.8629 5.9145 50.693C4.99837 49.4114 4.21075 48.0735 3.47801 46.6805C3.42436 46.5787 3.37072 46.4769 3.31545 46.372C1.02444 41.9512 -0.0243066 37.0682 0.000427157 32.1134C0.000763056 31.9913 0.00109895 31.8692 0.00144503 31.7434C0.0386707 23.2743 3.42194 15.5948 9.24475 9.49445C9.35786 9.37331 9.47097 9.25217 9.58751 9.12736C11.7887 6.83653 14.5482 5.05045 17.3494 3.58203C17.4513 3.52848 17.5533 3.47493 17.6583 3.41975C20.8478 1.77255 24.2553 0.860317 27.7918 0.314638C27.9574 0.288501 27.9574 0.288501 28.1263 0.261837C37.0201 -0.934177 46.2444 2.03111 52.9852 7.84837ZM17.9728 18.3631C16.1001 20.8687 15.7822 23.659 16.2224 26.6901C16.946 30.9692 19.4828 34.4991 22.3368 37.6562C22.4156 37.7437 22.4944 37.8311 22.5756 37.9212C23.8808 39.364 25.212 40.7869 26.6954 42.0498C26.9187 42.2429 27.138 42.4407 27.3541 42.6418C30.9641 45.9963 35.0036 48.1046 40.0334 47.9732C42.5275 47.844 45.0094 46.6824 46.8065 44.969C47.5681 44.0893 47.9974 43.2116 47.9412 42.0211C47.7734 40.7941 47.2766 40.0091 46.3998 39.1599C46.2993 39.0594 46.1987 38.9589 46.0952 38.8553C45.8835 38.6447 45.6707 38.4353 45.4569 38.227C45.1313 37.9094 44.8102 37.5878 44.4893 37.2655C44.2822 37.0604 44.0748 36.8556 43.8671 36.651C43.7719 36.5557 43.6768 36.4604 43.5787 36.3622C42.7087 35.5218 41.9036 35.1003 40.6599 35.0987C40.4142 35.0942 40.4142 35.0942 40.1637 35.0896C38.5942 35.3197 37.7505 36.3935 36.7722 37.5517C35.9727 38.4186 35.9727 38.4186 35.3172 38.4626C34.425 38.3193 33.5959 37.997 32.7988 37.5785C32.6413 37.4977 32.6413 37.4977 32.4807 37.4153C31.3925 36.8368 30.4415 36.1198 29.5063 35.3224C29.403 35.2352 29.2997 35.1479 29.1933 35.058C27.4639 33.464 25.838 30.9274 25.5664 28.5657C25.6245 28.0302 25.8156 27.8783 26.2071 27.5149C26.3315 27.396 26.456 27.2771 26.5842 27.1545C26.7159 27.0324 26.8476 26.9102 26.9833 26.7844C28.3561 25.528 28.3561 25.528 28.9559 23.8154C28.9712 22.4208 28.696 21.4585 27.7066 20.4465C27.3953 20.1563 27.0756 19.8771 26.7532 19.5993C26.1038 19.0378 25.5099 18.4232 24.9149 17.8053C23.932 16.8024 22.9944 16.2493 21.5673 16.1362C19.9357 16.2048 18.9626 17.1565 17.9728 18.3631Z" fill="#2628D8"/>
</svg>
