<?xml version="1.0" encoding="UTF-8"?>
<svg version="1.1" xmlns="http://www.w3.org/2000/svg" width="512" height="512">
<path d="M0 0 C1.03706534 -0.07835832 2.07413067 -0.15671665 3.14262223 -0.23744947 C6.59139474 -0.49093971 10.04122954 -0.71814654 13.49205017 -0.94192505 C15.31560392 -1.06664072 15.31560392 -1.06664072 17.17599714 -1.19387591 C50.03069085 -3.43447269 82.92685765 -4.75614522 115.84429461 -5.61832327 C118.19802704 -5.68056985 120.5516809 -5.7452996 122.905334 -5.81047106 C264.68993353 -9.68630265 264.68993353 -9.68630265 310.51245517 33.51013017 C317.13012414 39.94143091 323.11764367 46.86700166 328.95274353 54.00680542 C329.47090212 54.63696218 329.98906072 55.26711893 330.52292109 55.91637135 C366.25818582 99.53617069 366.25818582 99.53617069 366.26887798 116.22023869 C366.27210243 117.48800083 366.27532688 118.75576298 366.27864903 120.06194216 C366.27717774 121.47683666 366.27561001 122.89173107 366.2739563 124.30662537 C366.27582349 125.80351552 366.27812383 127.30040519 366.28082162 128.79729408 C366.28695771 132.92138831 366.2868039 137.04546232 366.28562725 141.16956007 C366.28542369 145.6135061 366.29093783 150.05744556 366.29568481 154.50138855 C366.30400264 163.21330421 366.3067402 171.92521311 366.30729719 180.63713241 C366.30777197 187.71935673 366.30982481 194.80157881 366.31299782 201.88380241 C366.32180873 221.95828281 366.3264167 242.03275786 366.32566734 262.10724021 C366.32560741 263.73165463 366.32560741 263.73165463 366.32554626 265.3888855 C366.32550538 266.47314967 366.3254645 267.55741383 366.32542238 268.67453449 C366.32501615 286.23714972 366.33457891 303.79974348 366.34868463 321.3623525 C366.36305021 339.39071513 366.36995466 357.4190673 366.36909086 375.4474358 C366.36875887 385.57076131 366.37150639 395.69406435 366.38226891 405.81738472 C366.39137646 414.43947821 366.39354718 423.06153903 366.38675948 431.68363524 C366.38349512 436.08177152 366.38343451 440.47984515 366.39211273 444.87797546 C366.3999827 448.90802167 366.3985412 452.9379556 366.3898286 456.96799909 C366.38829467 458.42231779 366.39010574 459.87664488 366.39568868 461.33095367 C366.44689047 475.62049688 364.69813126 487.75250685 355.89024353 499.50680542 C344.71999141 510.42318817 333.24167226 513.80815164 317.86985779 513.70223999 C316.45339078 513.70685745 315.03692857 513.71321601 313.62047625 513.72114897 C309.75569361 513.73774968 305.89130926 513.72963856 302.02652574 513.71720409 C297.84784727 513.7081177 293.66923516 513.72214105 289.49057007 513.73312378 C281.31544986 513.75087542 273.14047687 513.74708401 264.96535099 513.73547322 C258.31905149 513.72642593 251.67279315 513.72522049 245.02648926 513.72956848 C244.07920669 513.73018141 243.13192413 513.73079435 242.15593603 513.73142585 C240.23132494 513.7327048 238.30671386 513.73400166 236.38210279 513.73531622 C218.35084169 513.74671219 200.31966204 513.73362375 182.2884143 513.71211475 C166.8293153 513.69424467 151.37033646 513.69734905 135.91123962 513.71578979 C117.94285527 513.73721388 99.97454225 513.74561364 82.00614691 513.73334074 C80.08876388 513.73206659 78.17138085 513.73080911 76.2539978 513.72956848 C74.83905212 513.72864283 74.83905212 513.72864283 73.39552167 513.72769848 C66.76008291 513.72425019 60.12468954 513.73006266 53.48925781 513.73948669 C45.3987393 513.75072515 37.30837595 513.74762787 29.21787512 513.72636372 C25.09290635 513.7158781 20.96819594 513.71168876 16.84322929 513.72496033 C13.06188155 513.73694202 9.2810299 513.73022762 5.49972671 513.70905012 C3.4952282 513.70251577 1.49069482 513.71546832 -0.51376677 513.72927904 C-14.20402294 513.61125255 -25.02306562 509.14697267 -34.70741272 499.31930542 C-44.90794629 486.79691127 -45.0052464 472.42245715 -45.17616272 457.10055542 C-45.19676533 455.54256684 -45.21776259 453.98458343 -45.23913574 452.42660522 C-45.29401526 448.34966249 -45.34357325 444.2726722 -45.39198303 440.19564819 C-45.44244912 436.02588733 -45.49800339 431.8561945 -45.55311584 427.68649292 C-45.66027931 419.52248815 -45.76181496 411.35842601 -45.85975647 403.19430542 C-46.39571945 402.91788712 -46.93168243 402.64146881 -47.48388672 402.35667419 C-49.95405951 401.07933469 -52.42057234 399.7950744 -54.88710022 398.51071167 C-56.15136841 397.8589093 -56.15136841 397.8589093 -57.44117737 397.19393921 C-68.25849673 391.545912 -77.69104832 384.61141041 -86.62147522 376.28024292 C-88.71430013 374.32986159 -90.86274188 372.47799175 -93.04725647 370.63180542 C-118.42478847 348.40108738 -135.14790512 312.25514668 -139.85975647 279.19430542 C-139.95111877 278.57192993 -140.04248108 277.94955444 -140.13661194 277.30831909 C-145.78661364 234.02688898 -134.47161371 189.8905496 -107.85975647 155.19430542 C-104.71832938 151.34373762 -101.30481696 147.77233316 -97.85975647 144.19430542 C-96.70700584 142.82509944 -95.56064362 141.45047656 -94.42225647 140.06930542 C-90.11417687 135.12709261 -85.01694901 131.21003934 -79.85975647 127.19430542 C-78.95483459 126.46211792 -78.04991272 125.72993042 -77.11756897 124.97555542 C-67.49063661 117.40201307 -56.79849236 111.64760579 -45.85975647 106.19430542 C-45.85166962 105.4044072 -45.84358276 104.61450897 -45.83525085 103.80067444 C-45.75692658 96.31344551 -45.66952587 88.82640097 -45.57222939 81.33939648 C-45.52253459 77.49134529 -45.47620507 73.64331806 -45.43788147 69.7951355 C-45.40068624 66.07321856 -45.35423976 62.35151625 -45.30169296 58.62978554 C-45.28332897 57.21825279 -45.2681566 55.80667437 -45.25641251 54.39507103 C-45.13002659 39.71311227 -43.65116076 26.97991223 -34.60975647 14.88180542 C-24.73797642 5.23438401 -13.65789465 0.87574136 0 0 Z M-15.85975647 23.19430542 C-16.74663147 23.73055542 -17.63350647 24.26680542 -18.54725647 24.81930542 C-24.45441068 30.88611244 -26.99133605 38.66770011 -26.97328186 46.97262573 C-26.97320633 48.13352722 -26.9731308 49.29442871 -26.97305298 50.49050903 C-26.96789169 51.73854309 -26.96273041 52.98657715 -26.95741272 54.27243042 C-26.95599777 55.55414124 -26.95458282 56.83585205 -26.953125 58.15640259 C-26.94931548 61.55614182 -26.93949861 64.95583802 -26.92842102 68.3555603 C-26.91817321 71.82784442 -26.91362017 75.30013552 -26.90858459 78.77243042 C-26.89787488 85.57973971 -26.88081731 92.3870205 -26.85975647 99.19430542 C-26.29120941 99.07967957 -25.72266235 98.96505371 -25.1368866 98.84695435 C-22.52646346 98.32120105 -19.91576906 97.79680668 -17.30506897 97.27243042 C-16.41086243 97.0921228 -15.51665588 96.91181519 -14.59535217 96.7260437 C22.04201463 89.37507409 59.40377577 92.59757479 93.14024353 109.19430542 C93.77123962 109.50094116 94.40223572 109.8075769 95.05235291 110.12350464 C107.99251333 116.48476087 119.48431438 124.39637887 130.03477478 134.24118042 C131.75281814 135.83491266 133.48889689 137.30889468 135.32774353 138.75680542 C163.82255373 163.45230759 180.25245721 204.27113349 183.14024353 241.19430542 C184.44621709 271.27211417 180.23597261 298.85667926 167.11997986 326.08053589 C165.72538604 329.08935555 164.44299479 332.14480279 163.14024353 335.19430542 C163.53670389 335.58707861 163.93316425 335.9798518 164.34163857 336.38452721 C174.01909062 345.97337071 183.68511867 355.57360216 193.3391819 365.1859951 C198.00829508 369.83427612 202.68103771 374.47878009 207.3624115 379.11471558 C211.88405712 383.59274893 216.39572577 388.08061769 220.90078354 392.57533646 C222.61717405 394.28436329 224.33706865 395.9898787 226.06058121 397.69172287 C228.48287098 400.0847759 230.89214883 402.49026342 233.29893494 404.89889526 C234.00672089 405.59230011 234.71450684 406.28570496 235.44374084 407.00012207 C244.62577367 416.25812916 251.1418286 427.89337503 251.45274353 441.13180542 C251.33033494 453.25025567 247.30300473 463.44344772 239.17539978 472.34664917 C229.70536682 481.54268479 218.37000802 484.53985827 205.48789978 484.40914917 C184.4744808 483.06056335 170.42994238 464.63006093 156.63243103 450.78414917 C155.05510563 449.20495522 153.47755673 447.62598449 151.89979553 446.04722595 C147.7778693 441.92150894 143.65895686 437.79279615 139.54069519 433.66342163 C135.32571746 429.43815526 131.10785436 425.2157713 126.89024353 420.99313354 C118.63743986 412.72965332 110.38782175 404.46300082 102.14024353 396.19430542 C101.5818428 396.44959518 101.02344208 396.70488495 100.44812012 396.96791077 C97.86920903 398.14452803 95.28795563 399.31592051 92.70664978 400.48727417 C91.82867737 400.88877686 90.95070496 401.29027954 90.04612732 401.70394897 C54.77332096 417.67638701 17.49295462 419.72441313 -20.15492249 411.63497925 C-21.41168289 411.36510696 -22.6684433 411.09523468 -23.96328735 410.81718445 C-24.91912216 410.61163437 -25.87495697 410.40608429 -26.85975647 410.19430542 C-26.92960368 418.10536036 -26.98274239 426.0162841 -27.01519299 433.92757225 C-27.03077625 437.6020442 -27.05187812 441.27630348 -27.08607483 444.95065308 C-27.11893313 448.50387251 -27.13666451 452.0568888 -27.1443882 455.61024857 C-27.15253963 457.60972043 -27.17591571 459.60911182 -27.199646 461.60845947 C-27.20147937 471.6456617 -26.28868192 481.72738035 -18.85975647 489.19430542 C-13.4883735 493.2412378 -9.04122694 495.31659745 -2.24990559 495.3285265 C-0.48748979 495.33521326 -0.48748979 495.33521326 1.31053036 495.34203511 C2.60758446 495.34185075 3.90463855 495.34166639 5.24099731 495.34147644 C6.62794371 495.34477522 8.01488915 495.34850082 9.40183336 495.35261792 C13.22194223 495.36264444 17.04203539 495.36635576 20.86215556 495.36900723 C24.97886551 495.37290835 29.09556301 495.38248682 33.21226501 495.39122009 C43.15848531 495.41098992 53.10470664 495.42105136 63.05094168 495.42994788 C67.73352959 495.43432992 72.41611637 495.43969695 77.09870338 495.44493675 C92.66252374 495.46194953 108.22634339 495.47644405 123.79017162 495.48368549 C127.82979521 495.48559542 131.86941879 495.48751575 135.90904236 495.48947144 C137.41510564 495.49019705 137.41510564 495.49019705 138.95159445 495.49093731 C155.21904823 495.4992389 171.48642851 495.52457775 187.75385018 495.55705211 C204.4510485 495.59011298 221.14820946 495.60813337 237.84544069 495.61132973 C247.2220311 495.61349573 256.59851432 495.62225748 265.97507286 495.64779091 C273.96008152 495.66948462 281.94495696 495.67755489 289.92999174 495.66782413 C294.0039189 495.66327556 298.0775711 495.66519782 302.15146065 495.68458557 C305.88298603 495.70219058 309.61403535 495.70124153 313.34556559 495.68568828 C315.33081172 495.68218285 317.31606268 495.6983584 319.30123967 495.71529275 C328.51113766 495.64876893 335.4108395 493.92370945 342.14024353 487.19430542 C346.55773369 480.53678484 348.2661388 475.08591285 348.26329136 467.08175182 C348.26528241 465.84564134 348.26727346 464.60953085 348.26932484 463.33596247 C348.26647199 461.96722532 348.2635264 460.59848836 348.26049805 459.22975159 C348.26093413 457.77350639 348.26180973 456.31726127 348.26308721 454.86101657 C348.26532482 450.85894931 348.2613209 446.85690878 348.25630915 442.85484493 C348.25199433 438.53928241 348.25345181 434.22372142 348.25421143 429.90815735 C348.254736 422.43099803 348.25159608 414.95384742 348.24597359 407.47669029 C348.23784967 396.66595015 348.23524245 385.85521423 348.2339856 375.04447136 C348.23179648 357.50513957 348.2251402 339.96581242 348.21568298 322.42648315 C348.20650524 305.38774641 348.19942617 288.34901093 348.19517517 271.31027222 C348.19491245 270.26016339 348.19464972 269.21005456 348.19437904 268.12812426 C348.19307401 262.86008436 348.1918103 257.59204445 348.19056714 252.32400453 C348.1801989 208.61410161 348.1625844 164.90420375 348.14024353 121.19430542 C347.14545486 121.18843918 346.1506662 121.18257294 345.12573242 121.17652893 C335.7247635 121.11917486 326.32402307 121.04634743 316.92328739 120.95859051 C312.09091948 120.91397116 307.25863424 120.87469663 302.4261322 120.84786987 C297.75754246 120.82175251 293.08927228 120.78129099 288.42088127 120.73111916 C286.64485606 120.71450729 284.86877564 120.70295779 283.09268379 120.69669151 C260.82057753 120.61020202 260.82057753 120.61020202 252.64414978 113.00289917 C246.99383517 106.2078455 246.00395135 97.99871273 245.93492126 89.46652222 C245.92502167 88.70501358 245.91512207 87.94350494 245.90492249 87.15892029 C245.87345533 84.65381936 245.84860883 82.1486995 245.82383728 79.64352417 C245.80325497 77.90188619 245.78225817 76.16025307 245.76086426 74.41862488 C245.70577546 69.84350524 245.65630821 65.26834151 245.60801697 60.69314575 C245.55770541 56.02096653 245.50206982 51.34885103 245.44688416 46.67672729 C245.33946402 37.51597449 245.23798344 28.35516626 245.14024353 19.19430542 C213.04573379 19.10303187 180.95126101 19.03225479 148.85665178 18.9900441 C145.06657929 18.98504135 141.27650705 18.97986405 137.48643494 18.97457886 C136.73190788 18.97352962 135.97738083 18.97248037 135.19998932 18.97139934 C122.98685207 18.95399969 110.77379021 18.92246444 98.56069767 18.88569424 C86.0265662 18.84827254 73.49247419 18.82606697 60.95828915 18.81795144 C53.22557609 18.8124662 45.49307617 18.79514901 37.76042873 18.76263955 C31.82848905 18.73897276 25.89665844 18.7364887 19.96467018 18.74187469 C17.53305563 18.74077414 15.10143302 18.73281605 12.66986656 18.71748352 C9.34866073 18.69756826 6.02836517 18.7023727 2.70713806 18.71328735 C1.74603087 18.70163599 0.78492369 18.68998462 -0.20530796 18.67798018 C-6.36684569 18.73267276 -10.62446368 19.95038225 -15.85975647 23.19430542 Z M263.14024353 32.19430542 C263.07061108 40.30482784 263.01736538 48.41522453 262.98480701 56.52597237 C262.96917747 60.29247756 262.94798929 64.05877763 262.91392517 67.82516479 C262.88123418 71.46265544 262.86337013 75.09994927 262.8556118 78.73757553 C262.85008568 80.12260916 262.83929448 81.50763251 262.82305336 82.89258194 C262.80115225 84.83826363 262.80001705 86.78414503 262.79966736 88.72994995 C262.79300552 89.83581451 262.78634369 90.94167908 262.77947998 92.08105469 C263.20356096 95.74071048 264.16784158 98.08976532 266.14024353 101.19430542 C269.35980767 103.63927263 272.52235988 103.43689551 276.46934509 103.4213562 C277.75037109 103.42120514 279.03139709 103.42105408 280.35124207 103.42089844 C281.74445247 103.41068593 283.13766129 103.40025395 284.53086853 103.38961792 C285.96004539 103.38588606 287.38922481 103.3830399 288.81840515 103.38104248 C292.57329924 103.37341961 296.32803772 103.35378281 300.08287048 103.33163452 C303.91707759 103.31114701 307.75130992 103.30203456 311.58555603 103.29196167 C319.10385601 103.27053554 326.62202793 103.23641598 334.14024353 103.19430542 C330.15674805 98.42262068 326.00197203 93.91115074 321.59996033 89.52462769 C320.97646194 88.89937698 320.35296356 88.27412628 319.71057129 87.62992859 C317.67269014 85.58768649 315.6312217 83.54907585 313.58946228 81.51071167 C312.16539137 80.08596658 310.74146889 78.66107311 309.31768799 77.23603821 C306.34634312 74.26322462 303.37321065 71.29221374 300.39878845 68.32247925 C296.57745793 64.50687679 292.76067606 60.68676059 288.94519329 56.86531162 C286.01232886 53.92884579 283.07710198 50.9947508 280.14113808 48.0613842 C278.73171805 46.652633 277.32304529 45.24313379 275.91512108 43.83288765 C273.95699995 41.87224357 271.99573111 39.91480525 270.03355408 37.95822144 C269.44812836 37.37077148 268.86270264 36.78332153 268.25953674 36.17807007 C266.06048884 33.45015603 266.06048884 33.45015603 263.14024353 32.19430542 Z M-62.85975647 137.19430542 C-63.70280334 137.82852417 -64.54585022 138.46274292 -65.41444397 139.11618042 C-75.72658863 147.14744573 -84.97992117 155.7397304 -92.85975647 166.19430542 C-93.58807678 167.15723511 -94.31639709 168.12016479 -95.06678772 169.11227417 C-109.36504128 188.86940563 -118.40017939 211.05710223 -121.85975647 235.19430542 C-122.04280334 236.44082886 -122.22585022 237.68735229 -122.41444397 238.97164917 C-126.60696324 273.72939124 -117.0423038 312.22898883 -95.45350647 339.99508667 C-94.59250369 341.0643859 -93.72779128 342.13070672 -92.85975647 343.19430542 C-92.38924866 343.78002319 -91.91874084 344.36574097 -91.43397522 344.96920776 C-66.74918787 375.4913937 -32.13425432 394.32032485 6.8611908 398.99362183 C43.82808337 402.24876759 80.85107953 392.26622902 110.14024353 369.19430542 C112.86915352 366.89945934 115.51168078 364.55847562 118.10508728 362.11227417 C119.79513692 360.51954025 121.50439114 359.06477949 123.32774353 357.63180542 C148.48532132 335.82857133 163.14071752 299.74987525 166.14024353 267.19430542 C168.22418122 230.69328035 158.9779771 193.58002763 135.14024353 165.19430542 C134.18184585 164.02248305 133.22351626 162.85060498 132.26524353 161.67868042 C108.10243125 132.47951825 73.22355925 114.37279268 35.54161072 110.39498901 C0.90529651 107.50041294 -34.8715756 116.13897669 -62.85975647 137.19430542 Z M152.14024353 351.19430542 C150.70474627 352.78764781 149.34197026 354.44681624 148.01524353 356.13180542 C139.00006901 367.36831895 129.58989213 376.47454989 118.14024353 385.19430542 C119.431569 388.03053741 120.78849663 390.09431018 122.98439026 392.29914856 C123.56456909 392.8864122 124.14474792 393.47367584 124.74250793 394.07873535 C125.37730072 394.71105072 126.01209351 395.34336609 126.66612244 395.99484253 C127.33631409 396.67014511 128.00650574 397.34544769 128.69700623 398.04121399 C130.91511592 400.27322785 133.14058339 402.4977291 135.36680603 404.72164917 C136.91442049 406.2731513 138.46181111 407.82487674 140.00898743 409.3768158 C143.25555113 412.63084438 146.50596766 415.88096585 149.75889587 419.12863159 C153.91666143 423.28061515 158.06298069 427.44382119 162.20621681 431.6102972 C165.40096694 434.81982051 168.6026616 438.02234591 171.80636215 441.22293282 C173.33722942 442.75431191 174.86574831 444.28804249 176.391819 445.82420158 C178.53341155 447.97820434 180.68442806 450.12235412 182.83799744 452.26437378 C183.46064484 452.89466492 184.08329224 453.52495605 184.72480774 454.17434692 C191.44508713 460.81568089 197.74427211 465.27894591 207.39024353 465.44430542 C214.79916694 465.3652769 220.80957483 463.52497412 226.14024353 458.19430542 C230.75895424 452.52832891 232.88508 446.50218881 233.14024353 439.19430542 C231.40590516 424.52926704 217.26315825 414.02115689 207.43321228 404.22164917 C205.90071901 402.68780709 204.3685226 401.15366835 202.83660889 399.61924744 C199.64165981 396.42136349 196.44315512 393.22709138 193.24205017 390.03536987 C189.13151275 385.93629382 185.03011028 381.82821263 180.93126965 377.71744442 C177.77714889 374.55611841 174.61830746 371.39954423 171.45798683 368.24441719 C169.94258477 366.73035183 168.42867398 365.2147924 166.91626549 363.69773674 C164.81236215 361.58878287 162.70220536 359.48629792 160.5901947 357.38546753 C159.96318161 356.75440598 159.33616852 356.12334442 158.69015503 355.47315979 C155.92860246 352.2842719 155.92860246 352.2842719 152.14024353 351.19430542 Z " fill="#ffffff" transform="translate(143.85975646972656,-1.194305419921875)"/>
<path d="M0 0 C36.08933696 -0.97823982 68.66287188 11.46432803 95.12890625 35.8984375 C102.56064758 42.94296095 108.4957791 50.62973006 114.1328125 59.15625 C114.68453125 59.96191406 115.23625 60.76757812 115.8046875 61.59765625 C134.07704923 89.84122612 138.00206494 125.76018532 131.1328125 158.15625 C123.32920211 190.88012232 102.75782168 220.3198333 74.1328125 238.15625 C45.66286489 255.43830242 10.13316609 262.36794854 -22.56738281 254.74267578 C-45.22793938 248.96447441 -67.88478722 238.74146979 -83.8671875 221.15625 C-84.6509375 220.393125 -85.4346875 219.63 -86.2421875 218.84375 C-87.5415625 217.5134375 -87.5415625 217.5134375 -88.8671875 216.15625 C-89.51300781 215.5065625 -90.15882812 214.856875 -90.82421875 214.1875 C-112.73259965 191.16643426 -123.51284057 158.85034531 -123.15039062 127.42895508 C-122.46455389 100.83459671 -115.00967391 74.59295227 -98.8671875 53.15625 C-98.27808594 52.34671875 -97.68898438 51.5371875 -97.08203125 50.703125 C-75.80270728 22.6921253 -45.52087637 6.71765947 -11.19921875 0.6875 C-7.47330146 0.22576843 -3.74996122 0.15151358 0 0 Z M-77.53125 56 C-93.07987312 73.90739257 -103.90212223 97.19046257 -104.8671875 121.15625 C-104.94453125 122.74179688 -104.94453125 122.74179688 -105.0234375 124.359375 C-105.81858846 155.50278769 -94.49943148 183.75391502 -73.19287109 206.23120117 C-52.36105788 227.5318078 -23.98672365 238.78995584 5.6328125 239.53125 C32.64167378 238.80049077 57.63407597 229.94018265 78.1328125 212.15625 C79.19484526 211.32232128 80.25728417 210.48890927 81.3203125 209.65625 C104.0383232 189.46246271 114.05917773 160.06248162 116.41796875 130.59375 C117.24317573 102.46495566 105.76437021 73.94249405 86.734375 53.41796875 C80.42287476 46.83220545 73.96342123 40.90171665 66.1328125 36.15625 C64.58400391 35.17591797 64.58400391 35.17591797 63.00390625 34.17578125 C16.54738852 5.57733175 -41.18958607 17.20713879 -77.53125 56 Z " fill="#ffffff" transform="translate(159.8671875,124.84375)"/>
<path d="M0 0 C0.79618258 -0.0060911 1.59236516 -0.01218221 2.41267449 -0.01845789 C5.08353417 -0.03512185 7.75391887 -0.03030731 10.42481995 -0.0255127 C12.33846025 -0.03285104 14.25209613 -0.04143657 16.16572571 -0.05117798 C21.36611102 -0.07342682 26.56633803 -0.07632299 31.7667644 -0.07443047 C36.10589131 -0.07431093 40.44498448 -0.08286825 44.78410202 -0.09120798 C55.01934461 -0.11045399 65.25450563 -0.11332142 75.48976135 -0.10656738 C86.05424168 -0.0999245 96.61837305 -0.12279828 107.18278259 -0.15988111 C116.24870427 -0.19055118 125.31451353 -0.2019411 134.38048607 -0.1980443 C139.79712399 -0.19597411 145.21349039 -0.20149775 150.63007927 -0.22593689 C155.7232506 -0.24815707 160.81585346 -0.24636556 165.9090271 -0.22600937 C167.77911378 -0.222591 169.64923839 -0.22772387 171.51927376 -0.24199295 C174.07097072 -0.26012112 176.62072593 -0.24748589 179.17236328 -0.22705078 C179.91380551 -0.23956863 180.65524774 -0.25208648 181.41915792 -0.26498365 C185.36409943 -0.19716956 187.00649587 0.27791644 190.10894871 2.80214691 C192.11533846 5.35079461 192.8191052 6.29298769 192.71217346 9.45690918 C192.14967346 13.39440918 192.14967346 13.39440918 190.33717346 15.83190918 C186.2607889 18.74361244 182.3823215 18.54055075 177.57818604 18.53485107 C176.79989765 18.5378222 176.02160927 18.54079332 175.2197364 18.54385448 C172.60351646 18.55254811 169.98734225 18.55405028 167.37110901 18.55554199 C165.49865114 18.56016969 163.62619422 18.56519428 161.7537384 18.57058716 C156.66070077 18.58371765 151.56767632 18.59015736 146.4746244 18.59459782 C143.29371764 18.59752743 140.1128145 18.60163203 136.93190956 18.60610199 C126.98254465 18.61977849 117.03318799 18.62944446 107.08381432 18.63330388 C95.59319956 18.63778547 84.1027037 18.65533742 72.6121251 18.68430448 C63.7339102 18.70591013 54.85572878 18.71600756 45.97748786 18.717345 C40.6732052 18.71839381 35.3690343 18.72431776 30.06477928 18.74216461 C25.07516505 18.75862601 20.0857468 18.76081017 15.09611511 18.7520256 C13.26514982 18.7512542 11.43417408 18.75561153 9.60323524 18.76548386 C7.1026268 18.77817587 4.60271537 18.77234171 2.10211182 18.76190186 C1.3784641 18.76995826 0.65481638 18.77801466 -0.09076005 18.7863152 C-4.72516893 18.74109916 -7.95497451 17.92653728 -11.85032654 15.39440918 C-13.46437747 11.76279458 -14.11122149 9.54234699 -13.22532654 5.64440918 C-9.90366147 0.20895724 -5.99131302 -0.0429238 0 0 Z " fill="#ffffff" transform="translate(163.85032653808594,50.6055908203125)"/>
<path d="M0 0 C1.12302017 -0.0071553 2.24604034 -0.01431061 3.40309143 -0.02168274 C5.26002121 -0.02571609 5.26002121 -0.02571609 7.15446472 -0.02983093 C8.45370377 -0.03640213 9.75294281 -0.04297333 11.09155273 -0.04974365 C14.66189791 -0.06715818 18.23222969 -0.07770663 21.80260682 -0.08594918 C24.03288331 -0.09109839 26.26315563 -0.09717416 28.49342918 -0.10346031 C35.47037057 -0.12251368 42.44730137 -0.13674449 49.42426378 -0.14507228 C57.47999984 -0.15484624 65.53546124 -0.18116903 73.59110051 -0.22157317 C79.81622293 -0.25172544 86.04126657 -0.26654029 92.2664606 -0.26985329 C95.98516594 -0.27220482 99.70357791 -0.28117798 103.42220497 -0.30631447 C107.57141558 -0.33390816 111.72001198 -0.32976683 115.86930847 -0.32279968 C117.71712921 -0.34201477 117.71712921 -0.34201477 119.60227966 -0.36161804 C120.73375931 -0.35467422 121.86523895 -0.34773041 123.03100586 -0.34057617 C124.01196134 -0.34296453 124.99291681 -0.34535288 126.00359821 -0.34781361 C129.51512595 0.29537948 131.18875444 1.65668874 133.70597839 4.14717102 C134.85486357 8.09646381 135.13727235 10.17675961 133.45597839 13.95967102 C131.70597839 16.14717102 131.70597839 16.14717102 128.70597839 18.14717102 C126.25528049 18.3988533 126.25528049 18.3988533 123.28497314 18.40113831 C122.15913315 18.40677795 121.03329315 18.4124176 119.87333679 18.41822815 C118.63740784 18.41417969 117.40147888 18.41013123 116.12809753 18.40596008 C114.82710617 18.40946472 113.52611481 18.41296936 112.18569946 18.4165802 C108.61543667 18.42570711 105.04528931 18.4221585 101.47502446 18.41582203 C97.73994842 18.41076253 94.00488233 18.41545344 90.26980591 18.41859436 C83.99598922 18.4222346 77.72221958 18.41743387 71.44841003 18.40791321 C64.19512121 18.39703327 56.94194486 18.40055062 49.68865877 18.41156602 C43.46267518 18.4206429 37.23672544 18.42192207 31.01073736 18.41668868 C27.29162499 18.41357058 23.57256547 18.41315516 19.8534565 18.41976166 C15.70665456 18.42661306 11.56004635 18.41711578 7.41325378 18.40596008 C6.17934906 18.41000854 4.94544434 18.41405701 3.67414856 18.41822815 C2.54548874 18.4125885 1.41682892 18.40694885 0.25396729 18.40113831 C-0.72661117 18.40038425 -1.70718962 18.3996302 -2.71748257 18.3988533 C-5.43944929 18.13296531 -7.01913524 17.6460139 -9.29402161 16.14717102 C-11.73923275 12.4793543 -12.0163992 9.41263869 -11.29402161 5.14717102 C-7.9187468 0.75931377 -5.35557042 0.0233582 0 0 Z " fill="#ffffff" transform="translate(102.29402160644531,246.8528289794922)"/>
<path d="M0 0 C1.11460602 -0.00571014 2.22921204 -0.01142029 3.37759399 -0.01730347 C4.60619644 -0.01842133 5.83479889 -0.01953918 7.10063171 -0.02069092 C8.39011719 -0.02565582 9.67960266 -0.03062073 11.00816345 -0.03573608 C14.55165564 -0.04886871 18.09512887 -0.05530685 21.6386416 -0.05974674 C23.85216735 -0.06267641 26.0656879 -0.06678105 28.27921104 -0.07125092 C35.20382994 -0.08492885 42.12843699 -0.09459374 49.05306846 -0.09845281 C57.04819451 -0.10293279 65.04314952 -0.12047656 73.03822356 -0.1494534 C79.21663842 -0.17106907 85.39500515 -0.18115704 91.57345742 -0.18249393 C95.26416003 -0.18354215 98.95470194 -0.18945339 102.64536476 -0.20731354 C106.76337179 -0.22685346 110.88102098 -0.22250573 114.99906921 -0.21600342 C116.83286385 -0.22982559 116.83286385 -0.22982559 118.70370483 -0.243927 C120.38830307 -0.23557327 120.38830307 -0.23557327 122.10693359 -0.22705078 C123.08051473 -0.22851734 124.05409586 -0.2299839 125.05717945 -0.2314949 C128.29008472 0.21604607 130.14715985 1.18145705 132.74394226 3.14044189 C134.28418896 6.75667329 134.99665539 9.02850411 134.11894226 12.89044189 C132.5494465 15.45870769 131.30736478 16.57222625 128.74394226 18.14044189 C126.15737247 18.52355194 126.15737247 18.52355194 123.17144775 18.53485107 C122.0372641 18.54620087 120.90308044 18.55755066 119.73452759 18.56924438 C118.49441422 18.56631378 117.25430084 18.56338318 115.97660828 18.56036377 C114.66732361 18.56883331 113.35803894 18.57730286 112.00907898 18.58602905 C108.42019486 18.60824598 104.83154031 18.6111757 101.24259686 18.60928154 C98.24554084 18.60916185 95.24853349 18.61772529 92.25149101 18.62605906 C85.18050098 18.6452936 78.10962902 18.64817672 71.03862 18.64141846 C63.7459713 18.63477659 56.45382826 18.65764724 49.16128212 18.69473219 C42.89787587 18.72542692 36.6346323 18.73678952 30.37115234 18.73289537 C26.63120699 18.73082768 22.89165516 18.73630962 19.15178108 18.76078796 C14.9810703 18.78718462 10.81142764 18.77332915 6.64067078 18.75567627 C5.40258163 18.76893951 4.16449249 18.78220276 2.8888855 18.79586792 C-6.42056935 18.7040935 -6.42056935 18.7040935 -9.52279663 15.73309326 C-12.21778079 11.70187469 -11.93813089 9.91495397 -11.25605774 5.14044189 C-7.89157708 0.76661704 -5.33943232 0.01633298 0 0 Z " fill="#ffffff" transform="translate(324.2560577392578,152.85955810546875)"/>
<path d="M0 0 C1.14362 -0.0071553 2.28723999 -0.01431061 3.46551514 -0.02168274 C7.24564563 -0.03859083 11.02459379 -0.01915285 14.8046875 0.00219727 C17.43115334 0.00136877 20.05761914 -0.00108986 22.68408203 -0.00511169 C28.18861502 -0.00962953 33.69280786 0.00621741 39.19726562 0.03417969 C45.55550115 0.06623066 51.91312328 0.06621514 58.27140236 0.04896492 C64.39519585 0.03308482 70.51872901 0.03994054 76.64251709 0.05690193 C79.24525449 0.06208811 81.84800954 0.0615967 84.45074463 0.05535698 C88.08734226 0.04991165 91.72289624 0.07026049 95.359375 0.09765625 C96.43693054 0.09113037 97.51448608 0.08460449 98.62469482 0.07788086 C105.89929239 0.17114398 105.89929239 0.17114398 109.82470703 2.48475647 C112.249308 5.29019578 112.6796875 6.9285663 112.6796875 10.63110352 C111.46016237 14.1541761 110.75950943 16.09120547 107.36846924 17.78668499 C104.67253374 18.63335017 102.59834539 18.88483596 99.78417969 18.89179993 C98.34588806 18.90242714 98.34588806 18.90242714 96.87854004 18.91326904 C95.83838745 18.91079163 94.79823486 18.90831421 93.7265625 18.90576172 C92.62195679 18.91087265 91.51735107 18.91598358 90.37927246 18.92124939 C86.72935564 18.93514533 83.07962762 18.93418878 79.4296875 18.93188477 C76.89290293 18.93577127 74.35611901 18.94010585 71.81933594 18.94487 C66.50323102 18.95233192 61.1871954 18.95217912 55.87109375 18.94677734 C49.73108513 18.94073426 43.59130547 18.95305964 37.45133591 18.97434741 C31.53692192 18.99409703 25.62257881 18.99713619 19.70812988 18.99361229 C17.19469667 18.99412614 14.68125985 18.99937585 12.16784668 19.00942421 C8.65598834 19.02174252 5.14466214 19.01502445 1.6328125 19.00341797 C0.59265991 19.01106171 -0.44749268 19.01870544 -1.51916504 19.02658081 C-7.95342409 18.97951257 -11.64035953 18.31105649 -16.3203125 13.63110352 C-17.10966269 6.7524804 -17.10966269 6.7524804 -14.49291992 3.03504944 C-9.80921786 -0.51388208 -5.731094 -0.06218621 0 0 Z " fill="#ffffff" transform="translate(346.3203125,306.368896484375)"/>
<path d="M0 0 C1.01521729 -0.00511093 2.03043457 -0.01022186 3.07641602 -0.01548767 C6.42934071 -0.02937757 9.78205973 -0.02842738 13.13500977 -0.02612305 C15.46761654 -0.03001018 17.80022261 -0.03434488 20.13282776 -0.03910828 C25.02102961 -0.04656911 29.90915924 -0.04628007 34.79736328 -0.04101562 C41.05978656 -0.03521991 47.3219142 -0.05215538 53.5842886 -0.0753603 C58.40128812 -0.09009533 63.21821639 -0.09096966 68.03523445 -0.08785057 C70.34409229 -0.08836385 72.65295411 -0.09360287 74.96179008 -0.10366249 C78.1908678 -0.11600538 81.41936894 -0.10924779 84.6484375 -0.09765625 C85.60083817 -0.10529999 86.55323883 -0.11294373 87.53450012 -0.12081909 C92.69680014 -0.07988111 96.49092252 0.24971977 100.88891602 3.2746582 C102.51253157 6.9277932 103.17793295 9.11859049 102.20141602 13.0246582 C100.90099984 15.25394307 99.88381852 16.65314295 97.88891602 18.2746582 C95.79741764 18.65497494 95.79741764 18.65497494 93.34107971 18.66233826 C91.94260803 18.67719521 91.94260803 18.67719521 90.5158844 18.69235229 C89.49502243 18.68785065 88.47416046 18.683349 87.42236328 18.67871094 C85.80737442 18.68900581 85.80737442 18.68900581 84.15975952 18.69950867 C80.5914806 18.71784911 77.02363832 18.7139287 73.45532227 18.70825195 C70.98054358 18.71281031 68.50576616 18.71811483 66.0309906 18.72413635 C60.83994408 18.73308175 55.64905129 18.73062804 50.45800781 18.72070312 C43.79835156 18.70921254 37.13943004 18.72941918 30.47981358 18.75862026 C25.36777869 18.77694705 20.25587166 18.77669678 15.14381218 18.77098274 C12.68816319 18.77082909 10.23250576 18.77690928 7.77688789 18.78927422 C4.3458726 18.80411514 0.91584713 18.79355687 -2.51513672 18.77636719 C-3.53397446 18.78603516 -4.55281219 18.79570312 -5.6025238 18.80566406 C-12.45324278 18.73361996 -12.45324278 18.73361996 -15.71473694 16.45814514 C-17.70617384 13.34410807 -18.04653181 10.95413204 -18.11108398 7.2746582 C-16.89530804 4.23521834 -15.9847782 2.76736654 -13.12583923 1.15510559 C-8.74473239 -0.12437939 -4.54207632 -0.01178995 0 0 Z " fill="#ffffff" transform="translate(356.111083984375,203.725341796875)"/>
<path d="M0 0 C1.07680527 -0.00700928 2.15361053 -0.01401855 3.26304626 -0.02124023 C6.82601635 -0.0388598 10.38819357 -0.02718275 13.95117188 -0.01367188 C16.42452141 -0.01636563 18.89786992 -0.02024708 21.37121582 -0.02526855 C26.55633623 -0.031169 31.74118113 -0.02258265 36.92626953 -0.00390625 C43.57809143 0.01888337 50.22899875 0.00576344 56.88083649 -0.01819611 C61.98859536 -0.03263902 67.09620078 -0.02805491 72.20396423 -0.01768494 C74.65681535 -0.01501351 77.10968032 -0.01830196 79.56251526 -0.02760315 C82.98866772 -0.03774345 86.41376968 -0.02230144 89.83984375 0 C90.85711044 -0.00809692 91.87437714 -0.01619385 92.92247009 -0.02453613 C99.7832083 0.05834403 99.7832083 0.05834403 103.02648926 2.39758301 C104.67496854 4.90561101 105.27339777 6.51383389 105.41992188 9.51757812 C104.44266002 12.93799463 103.25941296 15.33335422 100.41992188 17.51757812 C97.59088605 18.39772005 95.02928397 18.64625505 92.07572937 18.65802002 C91.21368896 18.66373016 90.35164856 18.66944031 89.46348572 18.67532349 C88.05686424 18.67700027 88.05686424 18.67700027 86.62182617 18.67871094 C85.62786835 18.68367584 84.63391052 18.68864075 83.60983276 18.6937561 C80.32126168 18.70836233 77.03273882 18.71517711 73.74414062 18.72070312 C71.4573415 18.72645574 69.17054239 18.73221346 66.88374329 18.73797607 C62.0879392 18.74848161 57.29215186 18.75432725 52.49633789 18.7578125 C46.35619148 18.76329695 40.21626686 18.78732602 34.07618999 18.81578445 C29.35180518 18.83442304 24.62747367 18.83961709 19.90305519 18.84114838 C17.63967488 18.84417254 15.37629546 18.85219308 13.11295128 18.86533356 C9.94386366 18.88241955 6.77531638 18.88050738 3.60620117 18.87402344 C2.20868874 18.88784561 2.20868874 18.88784561 0.78294373 18.90194702 C-4.76931598 18.86642561 -8.66389589 18.15612231 -13.58007812 15.51757812 C-15.82368153 12.90004082 -15.57965333 11.50568386 -15.45507812 8.01757812 C-13.29634375 -0.61735937 -7.70112348 -0.06129701 0 0 Z " fill="#ffffff" transform="translate(353.580078125,255.482421875)"/>
<path d="M0 0 C2.86942113 2.26533247 3.83907612 3.51722837 5 7 C5.1090766 9.69886663 5.16404539 12.37107541 5.16796875 15.0703125 C5.17296135 16.26380814 5.17296135 16.26380814 5.17805481 17.48141479 C5.18311789 19.16761701 5.18546333 20.85382925 5.18530273 22.54003906 C5.18747414 25.09457435 5.20559417 27.64866697 5.22460938 30.203125 C5.22754661 31.8463527 5.2295292 33.48958244 5.23046875 35.1328125 C5.23765427 35.8862796 5.24483978 36.6397467 5.25224304 37.41604614 C5.21383162 46.53508056 3.77454516 54.16424273 -2.828125 60.8515625 C-9.8690401 67.38187689 -15.92218251 68.31377841 -25.2890625 68.3359375 C-26.76033096 68.3459227 -26.76033096 68.3459227 -28.26132202 68.35610962 C-30.32719047 68.36620327 -32.3930913 68.37092766 -34.45898438 68.37060547 C-37.62163468 68.37499533 -40.78290724 68.41139564 -43.9453125 68.44921875 C-45.95572441 68.45508421 -47.96614292 68.45905541 -49.9765625 68.4609375 C-50.9214151 68.47530853 -51.8662677 68.48967957 -52.8397522 68.50448608 C-59.37467464 68.4588573 -59.37467464 68.4588573 -62.56787109 66.11572266 C-64.31162163 63.53963296 -64.92723588 62.12885702 -65 59 C-63.04890902 52.60475733 -63.04890902 52.60475733 -59.93994141 50.81225586 C-55.95355187 49.71088416 -52.20371818 49.702181 -48.0859375 49.69140625 C-46.33853808 49.66626389 -44.59114232 49.64086563 -42.84375 49.61523438 C-40.10059422 49.5864135 -37.35750167 49.56238085 -34.61425781 49.54370117 C-31.95866683 49.52210135 -29.30378458 49.48268899 -26.6484375 49.44140625 C-25.82652924 49.44129044 -25.00462097 49.44117462 -24.1578064 49.4410553 C-19.94940302 49.49446484 -19.94940302 49.49446484 -16.32241821 47.66246033 C-13.20461226 43.74295237 -13.84816552 39.06084994 -13.82421875 34.31640625 C-13.80102629 32.56704518 -13.77690919 30.81769617 -13.75195312 29.06835938 C-13.71680125 26.31201024 -13.68746893 23.55610688 -13.67407227 20.79956055 C-13.65860754 18.13796249 -13.6184172 15.47766188 -13.57421875 12.81640625 C-13.57612717 11.99338516 -13.57803558 11.17036407 -13.58000183 10.32240295 C-13.457487 4.59577936 -13.457487 4.59577936 -11.08911133 1.51147461 C-7.06131513 -1.40264089 -4.87099361 -1.09177443 0 0 Z " fill="#ffffff" transform="translate(471,410)"/>
<path d="M0 0 C0.8119986 -0.0087616 1.62399719 -0.01752319 2.46060181 -0.02655029 C5.13704314 -0.04850569 7.81182397 -0.03400613 10.48828125 -0.01708984 C12.3524609 -0.02045911 14.21663841 -0.02531265 16.08081055 -0.03158569 C19.98475085 -0.03895177 23.88811853 -0.02826018 27.79199219 -0.00488281 C32.79261351 0.02360496 37.7918931 0.00719954 42.79246521 -0.02274513 C46.64101241 -0.04082537 50.48924224 -0.03505678 54.33779907 -0.02210617 C56.18136759 -0.01877416 58.02496505 -0.02285205 59.86849976 -0.03450394 C62.44696199 -0.04722493 65.02326114 -0.02782029 67.6015625 0 C68.36119293 -0.01012115 69.12082336 -0.02024231 69.9034729 -0.03067017 C73.88017639 0.04869723 75.61970947 0.50038851 78.75073242 3.0350647 C80.94150519 5.82626496 81.80078125 7.11309932 81.80078125 10.64697266 C80.67941775 13.65694838 79.83932363 15.90284584 77.18237305 17.80657959 C73.77226136 19.0099068 70.4541566 18.92514054 66.8828125 18.90576172 C66.08886078 18.90926636 65.29490906 18.912771 64.47689819 18.91638184 C61.85560329 18.92517569 59.23457884 18.91935831 56.61328125 18.91259766 C54.79011992 18.91394498 52.96695893 18.91588608 51.14379883 18.918396 C47.32402117 18.92134408 43.50433709 18.91705975 39.68457031 18.90771484 C34.78846284 18.8963205 29.89257465 18.90288166 24.99647522 18.91485977 C21.23212024 18.92208688 17.46781724 18.91978652 13.70346069 18.91460419 C11.89814223 18.91327005 10.09281905 18.91490717 8.2875061 18.91956329 C5.76446022 18.92464248 3.24176944 18.91689876 0.71875 18.90576172 C-0.40039291 18.91183441 -0.40039291 18.91183441 -1.54214478 18.91802979 C-5.22797322 18.88788999 -8.14818127 18.83929182 -11.19921875 16.64697266 C-13.31134379 13.4787851 -13.53078339 11.51478014 -13.7578125 7.77978516 C-11.9408114 0.84214458 -6.24298037 -0.08318015 0 0 Z " fill="#ffffff" transform="translate(377.19921875,357.35302734375)"/>
<path d="M0 0 C1.07388474 -0.00525696 1.07388474 -0.00525696 2.16946411 -0.01062012 C4.53104407 -0.01940757 6.89232335 -0.01359894 9.25390625 -0.00683594 C10.89770566 -0.00818345 12.54150469 -0.0101247 14.18530273 -0.01263428 C17.62845661 -0.01558149 21.07150664 -0.01130086 24.51464844 -0.00195312 C28.92649095 0.0094412 33.33809012 0.00287957 37.74992371 -0.00909805 C41.14369538 -0.01632753 44.53740944 -0.01402372 47.93118286 -0.00884247 C49.55787179 -0.00750898 51.18456597 -0.00914315 52.81124878 -0.01380157 C55.08524419 -0.01888471 57.35884635 -0.01113168 59.6328125 0 C60.92646729 0.00159119 62.22012207 0.00318237 63.55297852 0.00482178 C66.63896532 0.24498021 68.30777598 0.5055799 70.81640625 2.25878906 C73.2616174 5.92660578 73.53878384 8.99332139 72.81640625 13.25878906 C70.94625531 15.68998529 69.5350228 16.89948079 66.81640625 18.25878906 C64.50484618 18.37157861 62.18997571 18.41819991 59.87573242 18.43579102 C59.16170761 18.44236221 58.4476828 18.44893341 57.71202087 18.45570374 C55.34447122 18.47544548 52.97698503 18.48710139 50.609375 18.49707031 C49.80104029 18.50114584 48.99270557 18.50522137 48.15987587 18.50942039 C43.88124471 18.53028516 39.60264566 18.54458494 35.32397461 18.55395508 C30.905304 18.56501876 26.48713709 18.59941659 22.06864452 18.63912678 C18.67054816 18.66527726 15.27257207 18.67364551 11.87438393 18.67723656 C10.24569612 18.68210683 8.61701385 18.69373346 6.9884243 18.71227455 C4.70696537 18.73663319 2.42681293 18.73570767 0.14526367 18.72875977 C-1.8009362 18.73755913 -1.8009362 18.73755913 -3.78645325 18.74653625 C-7.74681964 18.17792345 -9.37777079 17.05285303 -12.18359375 14.25878906 C-13.57353455 11.47890746 -13.36847579 9.34015646 -13.18359375 6.25878906 C-12.34951448 3.75655126 -11.74484422 2.63540217 -9.55444336 1.16558838 C-6.29814319 -0.07987686 -3.48500591 0.00428653 0 0 Z " fill="#ffffff" transform="translate(283.18359375,101.7412109375)"/>
<path d="M0 0 C1.26496307 -0.00960754 2.52992615 -0.01921509 3.83322144 -0.02911377 C5.21579813 -0.03396169 6.59837693 -0.03824053 7.98095703 -0.04199219 C9.39958701 -0.04774609 10.81821697 -0.0535038 12.23684692 -0.05926514 C15.21096152 -0.06976608 18.18504916 -0.07561471 21.15917969 -0.07910156 C24.96456243 -0.08458541 28.7695872 -0.10861451 32.57485771 -0.13707352 C35.50543246 -0.15572433 38.43592137 -0.16090678 41.36655045 -0.16243744 C42.76914553 -0.16545884 44.1717393 -0.17347011 45.57427597 -0.18662262 C47.53902828 -0.20373273 49.50392866 -0.19995088 51.46875 -0.1953125 C52.58555145 -0.19895813 53.70235291 -0.20260376 54.85299683 -0.20635986 C58.28272106 0.21226972 60.13783163 1.05937228 62.86376953 3.16113281 C64.40401624 6.7773642 65.11648266 9.04919503 64.23876953 12.91113281 C62.6523258 15.50713165 61.47699643 16.60164943 58.86376953 18.16113281 C55.87281799 18.55554199 55.87281799 18.55554199 52.33862305 18.58105469 C51.69258118 18.58952423 51.04653931 18.59799377 50.38092041 18.60671997 C48.25130374 18.63006525 46.12241058 18.63111283 43.99267578 18.62988281 C42.50821139 18.6369859 41.02374974 18.64468512 39.53929138 18.6529541 C36.42984381 18.66639313 33.32065011 18.66797038 30.21118164 18.66210938 C26.23174356 18.65621331 22.25352556 18.68680155 18.27432346 18.72722626 C15.20901458 18.7531105 12.14399922 18.75598011 9.07859612 18.75233459 C7.61179475 18.75402517 6.14497973 18.76366191 4.6782856 18.78147888 C2.62413654 18.80368675 0.57245316 18.79396299 -1.48168945 18.77636719 C-2.64876938 18.77842163 -3.8158493 18.78047607 -5.01829529 18.78259277 C-9.09439534 17.9701535 -10.58977201 16.38174171 -13.13623047 13.16113281 C-13.82200655 8.89408163 -13.63646161 6.9546029 -11.32373047 3.28613281 C-7.78894346 -0.14766028 -4.72565492 0.02893336 0 0 Z " fill="#ffffff" transform="translate(138.13623046875,297.8388671875)"/>
<path d="M0 0 C0.96928185 -0.01073296 0.96928185 -0.01073296 1.95814514 -0.02168274 C4.0828538 -0.03851861 6.20543675 -0.01920191 8.33007812 0.00219727 C9.81311212 0.00136807 11.29614602 -0.00109322 12.7791748 -0.00511169 C15.88285076 -0.00796614 18.98580365 0.00669542 22.08935547 0.03417969 C26.06084262 0.06826316 30.03103733 0.06224164 34.00258636 0.04351711 C37.06364651 0.03293103 40.12440769 0.04189927 43.18544006 0.05690193 C44.64941011 0.06207249 46.11341152 0.06161561 47.57737732 0.05535698 C49.62648262 0.04988475 51.67375955 0.07033848 53.72265625 0.09765625 C54.88671997 0.10385483 56.05078369 0.11005341 57.25012207 0.11643982 C61.01728211 0.73961311 62.68236591 1.95368307 65.36132812 4.63110352 C66.67291581 8.4019181 66.54788721 10.12052076 65.17382812 13.88110352 C63.23592472 16.82137075 62.56361751 17.4424885 59.36132812 18.63110352 C56.48426819 18.89179993 56.48426819 18.89179993 53.11157227 18.90576172 C51.84668472 18.91529373 50.58179718 18.92482574 49.27857971 18.93464661 C47.90121432 18.93438517 46.52384891 18.93344807 45.14648438 18.93188477 C43.72928238 18.93577357 42.31208154 18.94010862 40.8948822 18.94487 C37.92670918 18.95232493 34.95865512 18.95204625 31.99047852 18.94677734 C28.19293876 18.94098361 24.39588688 18.95791437 20.59842777 18.98112202 C17.67212594 18.99587725 14.74594113 18.99672865 11.81960869 18.99361229 C10.41981477 18.99412461 9.02001415 18.99934555 7.62025642 19.00942421 C5.66036853 19.02180451 3.70038186 19.01304529 1.74047852 19.00341797 C0.62669327 19.00404739 -0.48709198 19.00467682 -1.6346283 19.00532532 C-5.05101335 18.57973703 -6.89503395 17.68205763 -9.63867188 15.63110352 C-12.13898842 11.8806287 -12.17470742 10.07254086 -11.63867188 5.63110352 C-8.05376935 1.07091795 -5.74294682 0.00474488 0 0 Z " fill="#ffffff" transform="translate(136.638671875,195.368896484375)"/>
</svg>
