<svg width="21" height="21" viewBox="0 0 21 21" fill="none" xmlns="http://www.w3.org/2000/svg">
<path d="M10.0499 0.29409C9.69905 0.416126 9.34026 0.752777 9.20471 1.08943C9.16883 1.18621 8.74227 2.54964 8.25989 4.11507L7.38682 6.96397L4.37695 6.97659C1.68998 6.98922 1.34713 6.99763 1.19564 7.06075C0.282713 7.42686 -0.020268 8.66826 0.617587 9.40889C0.697319 9.50567 1.81755 10.3936 3.10124 11.3741C4.38492 12.3588 5.44137 13.171 5.44934 13.1794C5.45731 13.1878 5.05865 14.5133 4.56432 16.1293C4.06998 17.7452 3.65139 19.1549 3.63943 19.2601C3.60753 19.5 3.70321 19.9292 3.83477 20.1396C4.19356 20.7161 4.83142 20.977 5.42542 20.7961C5.6686 20.7203 5.68854 20.7077 8.75423 18.3596C9.67912 17.6484 10.4565 17.0677 10.4804 17.0677C10.5004 17.0677 11.5727 17.8756 12.8604 18.8603C14.1481 19.8492 15.2803 20.6951 15.3799 20.7414C15.7826 20.9307 16.3367 20.8676 16.7035 20.5941C17.1141 20.2869 17.3174 19.8703 17.3055 19.3611C17.3015 19.1002 17.2018 18.7425 16.4005 16.1545C15.9062 14.5554 15.4995 13.2299 15.4995 13.2088C15.4995 13.192 16.552 12.3714 17.8317 11.3909C19.1154 10.4104 20.2356 9.52251 20.3273 9.42151C20.6383 9.06803 20.7419 8.59251 20.6263 8.10437C20.5107 7.62464 20.2157 7.26274 19.7891 7.07759C19.5898 6.98922 19.534 6.98922 16.5759 6.97659L13.566 6.96397L12.693 4.11507C12.2106 2.54964 11.7761 1.16938 11.7242 1.05155C11.6126 0.790649 11.3017 0.47504 11.0425 0.353004C10.8073 0.239386 10.2931 0.209929 10.0499 0.29409Z" fill="#D3DE4E"/>
</svg>
