<svg width="44" height="45" viewBox="0 0 44 45" fill="none" xmlns="http://www.w3.org/2000/svg">
<g filter="url(#filter0_d_647_460)">
<path d="M24 36H20V23.5L11.5 33L9 30.5L17.5 21H5V16.5H17.5L9 7.5L11.5 4.5L20 13.5V1H24V13.5L32.5 4L35.5 7.5L27 16.5H39V21H27L35 29.5L32.5 32.5L24 23.5V36Z" fill="#DFFC65"/>
<path d="M24 36H20V23.5L11.5 33L9 30.5L17.5 21H5V16.5H17.5L9 7.5L11.5 4.5L20 13.5V1H24V13.5L32.5 4L35.5 7.5L27 16.5H39V21H27L35 29.5L32.5 32.5L24 23.5V36Z" stroke="#DFFC62" stroke-width="0.2"/>
</g>
<defs>
<filter id="filter0_d_647_460" x="0.900002" y="0.900002" width="42.2" height="43.2" filterUnits="userSpaceOnUse" color-interpolation-filters="sRGB">
<feFlood flood-opacity="0" result="BackgroundImageFix"/>
<feColorMatrix in="SourceAlpha" type="matrix" values="0 0 0 0 0 0 0 0 0 0 0 0 0 0 0 0 0 0 127 0" result="hardAlpha"/>
<feOffset dy="4"/>
<feGaussianBlur stdDeviation="2"/>
<feComposite in2="hardAlpha" operator="out"/>
<feColorMatrix type="matrix" values="0 0 0 0 0 0 0 0 0 0 0 0 0 0 0 0 0 0 0.25 0"/>
<feBlend mode="normal" in2="BackgroundImageFix" result="effect1_dropShadow_647_460"/>
<feBlend mode="normal" in="SourceGraphic" in2="effect1_dropShadow_647_460" result="shape"/>
</filter>
</defs>
</svg>
