<?xml version="1.0" encoding="UTF-8"?>
<svg version="1.1" xmlns="http://www.w3.org/2000/svg" width="350" height="319">
<path d="M0 0 C0.58523437 0.44214844 1.17046875 0.88429688 1.7734375 1.33984375 C6.08608359 4.72835139 9.54045468 8.77794265 13 13 C13.71414062 13.85335937 14.42828125 14.70671875 15.1640625 15.5859375 C32.78302626 37.68532503 37.75399928 64.99458214 34.69970703 92.7265625 C33.90341937 97.64427281 32.57855332 102.27913899 31 107 C30.79632813 107.63115723 30.59265625 108.26231445 30.3828125 108.91259766 C27.28852715 118.29811903 22.66533131 126.03508594 16.9765625 134.05078125 C14.8144234 136.6851798 14.8144234 136.6851798 15 139 C14.34 139 13.68 139 13 139 C12.87882813 139.58007812 12.75765625 140.16015625 12.6328125 140.7578125 C12.38144531 141.92957031 12.38144531 141.92957031 12.125 143.125 C11.96257812 143.89070312 11.80015625 144.65640625 11.6328125 145.4453125 C11 148 11 148 9.96875 150.6328125 C8.61489652 155.33854516 8.52285595 159.87266873 8.375 164.75 C8.33487793 165.84094971 8.29475586 166.93189941 8.25341797 168.0559082 C8.0159501 175.644086 7.9930316 183.21782114 8.046875 190.80859375 C8.05498703 192.21297195 8.05498703 192.21297195 8.06326294 193.64572144 C8.09185034 198.35326474 8.13786395 203.05955898 8.21240234 207.76660156 C8.22807435 209.52538594 8.24323333 211.28417498 8.2578125 213.04296875 C8.27648376 213.84310898 8.29515503 214.64324921 8.31439209 215.46763611 C8.33801994 220.72423774 7.71246277 224.43612286 5 229 C0.32501469 232.00223259 -3.80271587 232.43224941 -9.22094727 232.38818359 C-10.02333832 232.39344055 -10.82572937 232.39869751 -11.6524353 232.40411377 C-14.29062674 232.41726035 -16.92820925 232.40859566 -19.56640625 232.3984375 C-21.40673437 232.40045958 -23.2470617 232.40337213 -25.08738708 232.40713501 C-28.93813735 232.41155095 -32.78867841 232.40515009 -36.6394043 232.39111328 C-41.57132114 232.37400978 -46.5027486 232.38387455 -51.43464756 232.40183067 C-55.23251525 232.41267796 -59.03026715 232.40921803 -62.82813835 232.4014473 C-64.64658606 232.39944853 -66.46504433 232.4018932 -68.28347969 232.40888596 C-70.82541844 232.41651736 -73.36656725 232.40487346 -75.90844727 232.38818359 C-76.65715591 232.39425629 -77.40586456 232.40032898 -78.17726135 232.40658569 C-82.63200345 232.35248577 -85.44150478 231.71281311 -89 229 C-91.70922237 225.78906979 -92.20286531 222.91803741 -92.75 218.875 C-93.8286643 212.21424797 -96.86845572 207.25904586 -101 202 C-101.37237793 201.43192627 -101.74475586 200.86385254 -102.12841797 200.27856445 C-103.64839552 198.29785956 -104.77829414 197.16290713 -107 196 C-111.34014737 195.91794166 -115.40441638 196.86634192 -119.625 197.8125 C-130.17994667 200.11795475 -138.38042848 200.44380163 -148.18359375 195.34375 C-148.92738281 194.7353125 -149.67117187 194.126875 -150.4375 193.5 C-151.19933594 192.9121875 -151.96117187 192.324375 -152.74609375 191.71875 C-161.2120672 181.50676123 -160.77483967 170.41045179 -160.8125 157.8125 C-160.83568227 155.98369463 -160.86105525 154.15491566 -160.88867188 152.32617188 C-160.95104344 147.88401587 -160.98375724 143.44255435 -161 139 C-162.0058313 138.98598145 -162.0058313 138.98598145 -163.03198242 138.97167969 C-166.08455567 138.91783404 -169.13561982 138.83421505 -172.1875 138.75 C-173.24259766 138.73582031 -174.29769531 138.72164062 -175.38476562 138.70703125 C-183.24121011 138.45919388 -183.24121011 138.45919388 -187.17578125 136.078125 C-190.04135564 132.81370193 -190.36166172 130.43975048 -190.29492188 126.08203125 C-189.80375095 122.61455971 -187.97535137 120.63123306 -185.75 118 C-184.82792721 116.876229 -183.90742421 115.7511686 -182.98828125 114.625 C-182.50053223 114.03847656 -182.0127832 113.45195312 -181.51025391 112.84765625 C-178.34719908 108.97795064 -175.37266175 104.95949449 -172.41992188 100.92797852 C-170.12977714 97.80359867 -167.84310635 94.77206632 -165.23828125 91.90234375 C-157.27399671 82.41271743 -158.29288859 73.53202645 -158.9309082 61.67089844 C-159.07744741 56.00609667 -158.57761285 50.48747612 -156.3125 45.25 C-155.96058594 44.42757812 -155.60867187 43.60515625 -155.24609375 42.7578125 C-154.62927734 41.39269531 -154.62927734 41.39269531 -154 40 C-153.49597656 38.88367188 -152.99195313 37.76734375 -152.47265625 36.6171875 C-150.38079132 32.04474924 -148.27486884 27.48474144 -146 23 C-145.34 23 -144.68 23 -144 23 C-143.74476563 22.27554688 -143.48953125 21.55109375 -143.2265625 20.8046875 C-139.70255557 12.74660795 -132.78834565 6.38611981 -126 1 C-125.27039063 0.41863281 -124.54078125 -0.16273437 -123.7890625 -0.76171875 C-118.31585082 -5 -118.31585082 -5 -116 -5 C-116 -5.66 -116 -6.32 -116 -7 C-77.78459794 -27.72786949 -35.10384773 -27.38557502 0 0 Z M-113 17 C-113.99 17.66 -114.98 18.32 -116 19 C-116 19.66 -116 20.32 -116 21 C-116.598125 21.226875 -117.19625 21.45375 -117.8125 21.6875 C-120.59195736 23.35517441 -121.40392638 25.20687116 -123 28 C-123.91072266 28.84884766 -123.91072266 28.84884766 -124.83984375 29.71484375 C-127.5378568 32.56898052 -129.26170052 35.73510023 -131.0625 39.1875 C-131.40087891 39.80947266 -131.73925781 40.43144531 -132.08789062 41.07226562 C-133.12074854 43.02410738 -134.07497853 44.99489846 -135 47 C-135.44786865 47.94987793 -135.44786865 47.94987793 -135.90478516 48.91894531 C-139.1619367 56.98959285 -138.36788522 66.00351696 -138.20947266 74.56542969 C-138.04855357 84.96220226 -139.56430925 91.50731973 -146 100 C-146.33 100.99 -146.66 101.98 -147 103 C-147.66 103 -148.32 103 -149 103 C-150.66115258 104.90309664 -152.18075244 106.79341169 -153.6875 108.8125 C-154.33041992 109.63331055 -154.33041992 109.63331055 -154.98632812 110.47070312 C-156.3663755 112.2525725 -156.3663755 112.2525725 -158 115 C-157.67 115.99 -157.34 116.98 -157 118 C-156.33613281 118.02578125 -155.67226562 118.0515625 -154.98828125 118.078125 C-149.48233744 118.43179146 -145.95813608 118.7865003 -142 123 C-140.79112422 125.41775157 -140.87549353 126.94533541 -140.87402344 129.64575195 C-140.87021667 130.61047928 -140.86640991 131.5752066 -140.86248779 132.56916809 C-140.86146057 133.61497543 -140.86043335 134.66078278 -140.859375 135.73828125 C-140.84104761 137.94206763 -140.82147736 140.14584396 -140.80078125 142.34960938 C-140.77179649 145.83244758 -140.7499997 149.31464071 -140.74951172 152.79760742 C-140.74617994 156.15341768 -140.71164309 159.50773058 -140.671875 162.86328125 C-140.6789447 163.9030159 -140.6860144 164.94275055 -140.69329834 166.01399231 C-140.6128843 170.7862201 -140.56227886 173.22845686 -137.69091797 177.16845703 C-133.40046654 180.08870441 -129.58889263 179.47025026 -124.73925781 178.58935547 C-122.35712575 178.07761227 -119.99240977 177.51329836 -117.625 176.9375 C-110.71202569 175.35225689 -105.05708338 174.6117213 -98 176 C-98 176.66 -98 177.32 -98 178 C-96.74459223 178.98552542 -95.44271751 179.91198371 -94.125 180.8125 C-83.73898683 188.69210936 -77.07889249 199.76332252 -73 212 C-65.32463373 212.02312821 -57.64927104 212.04091753 -49.97387791 212.05181217 C-46.41022578 212.05703995 -42.84659743 212.06413569 -39.28295898 212.07543945 C-35.18993903 212.08834176 -31.0969442 212.09322906 -27.00390625 212.09765625 C-25.71851456 212.10281754 -24.43312286 212.10797882 -23.10877991 212.11329651 C-21.92763107 212.11337204 -20.74648224 212.11344757 -19.52954102 212.11352539 C-18.48363297 212.115746 -17.43772491 212.11796661 -16.36012268 212.12025452 C-14.04310705 212.26650985 -14.04310705 212.26650985 -13 211 C-12.88758404 209.40680265 -12.84323665 207.80873981 -12.82641602 206.21166992 C-12.80618126 204.67823189 -12.80618126 204.67823189 -12.78553772 203.11381531 C-12.77509933 201.99731094 -12.76466095 200.88080658 -12.75390625 199.73046875 C-12.72092998 197.37304369 -12.68771906 195.0156219 -12.65429688 192.65820312 C-12.60714301 188.93695659 -12.56280035 185.21571951 -12.52319336 181.49438477 C-12.48309855 177.9062597 -12.43160583 174.31842788 -12.37890625 170.73046875 C-12.3704921 169.63623093 -12.36207794 168.5419931 -12.35340881 167.41459656 C-12.19308081 157.23185194 -11.0077506 147.38922625 -7.25 137.875 C-6.98759521 137.19469727 -6.72519043 136.51439453 -6.45483398 135.81347656 C-4.20268153 130.15453187 -1.33493332 125.09365438 2 120 C13.8212292 101.76903763 18.40221689 80.05058976 13.97314453 58.55102539 C11.52088667 48.56864031 6.90782757 36.74929099 0 29 C-0.66 29 -1.32 29 -2 29 C-2.22171875 28.28457031 -2.4434375 27.56914063 -2.671875 26.83203125 C-8.36863494 14.68452844 -24.85559682 6.8769656 -36.625 2.125 C-63.25888988 -6.68329318 -91.63110851 -0.87816749 -113 17 Z " fill="#030303" transform="translate(236,69)"/>
<path d="M0 0 C9.29109552 11.0482198 12.61223135 27.01735183 12.0078125 41.04296875 C10.78921586 53.56127971 5.96839022 64.10945656 0.1328125 75.04296875 C-0.8571875 75.04296875 -1.8471875 75.04296875 -2.8671875 75.04296875 C-3.0940625 75.59984375 -3.3209375 76.15671875 -3.5546875 76.73046875 C-5.24268786 79.70456463 -7.33395267 81.7630574 -9.8671875 84.04296875 C-10.5271875 84.04296875 -11.1871875 84.04296875 -11.8671875 84.04296875 C-11.8671875 84.70296875 -11.8671875 85.36296875 -11.8671875 86.04296875 C-12.8571875 86.53796875 -12.8571875 86.53796875 -13.8671875 87.04296875 C-13.88177002 87.94015625 -13.89635254 88.83734375 -13.91137695 89.76171875 C-13.9728183 93.12427575 -14.0470388 96.48606578 -14.12963867 99.84814453 C-14.16267553 101.29693156 -14.19077205 102.74584074 -14.21362305 104.19482422 C-14.38414211 114.72346941 -14.9620315 123.45818021 -21.8671875 132.04296875 C-29.34490713 138.85452182 -36.56531895 141.5153113 -46.61328125 141.1953125 C-47.64582031 141.14503906 -48.67835938 141.09476563 -49.7421875 141.04296875 C-50.76699219 141.02363281 -51.79179687 141.00429687 -52.84765625 140.984375 C-60.80078367 140.65088935 -67.81266979 138.8032529 -73.77807617 133.27075195 C-79.89255128 126.60085995 -82.02873716 120.08271738 -81.83203125 111.1875 C-81.82599758 109.82878554 -81.82283572 108.47005586 -81.82226562 107.11132812 C-81.82055397 104.9876522 -81.80511732 102.86958428 -81.74047852 100.74682617 C-81.40867251 91.95985768 -81.40867251 91.95985768 -85.03271484 84.19995117 C-87.54617155 81.96057677 -90.14951362 80.02367761 -92.8671875 78.04296875 C-103.84401768 66.2421406 -109.59365987 51.10684265 -109.0859375 35.0078125 C-108.13998523 22.18678078 -104.72836717 11.30617555 -96.8671875 1.04296875 C-96.5371875 0.05296875 -96.2071875 -0.93703125 -95.8671875 -1.95703125 C-93.39216373 -4.50612057 -90.61133038 -6.70394552 -87.8671875 -8.95703125 C-87.25617188 -9.4778125 -86.64515625 -9.99859375 -86.015625 -10.53515625 C-77.98308112 -17.02955343 -68.10890232 -21.53163795 -57.8671875 -22.95703125 C-57.01382813 -23.11300781 -56.16046875 -23.26898438 -55.28125 -23.4296875 C-33.41433762 -26.51501897 -14.49750472 -15.1950834 0 0 Z M-79.8671875 12.04296875 C-82.77423153 15.43452011 -83.8671875 17.40213998 -83.8671875 22.04296875 C-84.5271875 22.04296875 -85.1871875 22.04296875 -85.8671875 22.04296875 C-87.73399547 26.79959546 -88.25299783 31.16668418 -88.2421875 36.23046875 C-88.24130127 36.9771582 -88.24041504 37.72384766 -88.23950195 38.49316406 C-88.06103034 46.89673118 -85.57929228 54.06756955 -80.8671875 61.04296875 C-80.2071875 61.04296875 -79.5471875 61.04296875 -78.8671875 61.04296875 C-78.6196875 61.62046875 -78.3721875 62.19796875 -78.1171875 62.79296875 C-76.67325051 65.39205533 -75.13196763 67.12133713 -72.8671875 69.04296875 C-71.8771875 69.04296875 -70.8871875 69.04296875 -69.8671875 69.04296875 C-69.8671875 69.70296875 -69.8671875 70.36296875 -69.8671875 71.04296875 C-66.2371875 71.04296875 -62.6071875 71.04296875 -58.8671875 71.04296875 C-58.8671875 63.78296875 -58.8671875 56.52296875 -58.8671875 49.04296875 C-59.5271875 49.04296875 -60.1871875 49.04296875 -60.8671875 49.04296875 C-60.8671875 48.38296875 -60.8671875 47.72296875 -60.8671875 47.04296875 C-62.54678588 45.26625178 -62.54678588 45.26625178 -64.6796875 43.48046875 C-65.38738281 42.86042969 -66.09507812 42.24039063 -66.82421875 41.6015625 C-68.87992218 39.85872121 -68.87992218 39.85872121 -71.8671875 39.04296875 C-71.8671875 38.38296875 -71.8671875 37.72296875 -71.8671875 37.04296875 C-72.5271875 37.04296875 -73.1871875 37.04296875 -73.8671875 37.04296875 C-73.92165797 35.62673659 -73.96019258 34.20988684 -73.9921875 32.79296875 C-74.01539063 32.0040625 -74.03859375 31.21515625 -74.0625 30.40234375 C-73.84429928 27.76647901 -73.29685819 26.25848492 -71.8671875 24.04296875 C-68.80039222 21.99843856 -66.86694369 21.39771728 -63.1953125 21.4453125 C-59.04926154 22.50965108 -56.20748887 25.39940379 -53.06640625 28.1953125 C-50.91781232 30.2306082 -50.91781232 30.2306082 -47.8671875 31.04296875 C-47.8671875 30.38296875 -47.8671875 29.72296875 -47.8671875 29.04296875 C-47.3103125 28.81609375 -46.7534375 28.58921875 -46.1796875 28.35546875 C-43.65561268 27.10231253 -43.65561268 27.10231253 -41.6796875 24.41796875 C-38.21120781 21.48903034 -36.41783708 21.49249473 -32.02734375 21.734375 C-29.41628644 22.10738319 -27.21013403 22.83370602 -24.8671875 24.04296875 C-24.32477637 30.68750514 -24.91760131 34.59894454 -28.8671875 40.04296875 C-30.50075701 41.4166522 -32.1596877 42.7623439 -33.8671875 44.04296875 C-33.8671875 44.70296875 -33.8671875 45.36296875 -33.8671875 46.04296875 C-34.5271875 46.04296875 -35.1871875 46.04296875 -35.8671875 46.04296875 C-39.69875961 50.54413598 -39.25122997 55.20507342 -39.1171875 60.79296875 C-39.10945313 62.10587891 -39.10945313 62.10587891 -39.1015625 63.4453125 C-39.40981785 67.57092581 -39.40981785 67.57092581 -37.8671875 71.04296875 C-36.07881128 71.16821334 -34.28490536 71.21870551 -32.4921875 71.23046875 C-31.02652344 71.25173828 -31.02652344 71.25173828 -29.53125 71.2734375 C-26.63931728 71.23838858 -26.63931728 71.23838858 -23.8671875 69.04296875 C-23.8671875 68.38296875 -23.8671875 67.72296875 -23.8671875 67.04296875 C-22.97 66.64078125 -22.97 66.64078125 -22.0546875 66.23046875 C-14.10146919 61.91300738 -11.55229263 53.09828415 -8.8671875 45.04296875 C-7.97613859 32.30535153 -9.17629756 21.99814131 -17.40234375 11.69921875 C-19.54193112 9.27936387 -19.54193112 9.27936387 -21.8671875 7.04296875 C-22.5271875 7.04296875 -23.1871875 7.04296875 -23.8671875 7.04296875 C-23.8671875 6.38296875 -23.8671875 5.72296875 -23.8671875 5.04296875 C-26.09271008 3.88955177 -28.32214719 2.74515716 -30.5546875 1.60546875 C-31.49344727 1.11723633 -31.49344727 1.11723633 -32.45117188 0.61914062 C-49.90747542 -8.24610254 -67.09422667 -0.9330957 -79.8671875 12.04296875 Z M-61.8671875 91.04296875 C-61.98362054 94.93854963 -62.05451659 98.83368133 -62.1171875 102.73046875 C-62.15070313 103.83326172 -62.18421875 104.93605469 -62.21875 106.07226562 C-62.27374874 110.62341146 -62.29688591 114.0902594 -60.41015625 118.2734375 C-56.64333784 120.89458764 -53.41865628 120.77613667 -48.9296875 120.66796875 C-48.13111328 120.68730469 -47.33253906 120.70664063 -46.50976562 120.7265625 C-42.53736748 120.69365116 -40.29142096 120.29456806 -36.82421875 118.23828125 C-33.84419314 113.37269054 -34.29347407 108.87750122 -34.4921875 103.29296875 C-34.50636719 102.22691406 -34.52054688 101.16085938 -34.53515625 100.0625 C-34.18911895 95.20122605 -34.18911895 95.20122605 -35.8671875 91.04296875 C-37.79386257 90.95548668 -39.72370611 90.93599541 -41.65234375 90.9453125 C-42.82216797 90.94853516 -43.99199219 90.95175781 -45.19726562 90.95507812 C-46.42896484 90.96345703 -47.66066406 90.97183594 -48.9296875 90.98046875 C-50.16525391 90.98498047 -51.40082031 90.98949219 -52.67382812 90.99414062 C-55.73832867 91.00597267 -58.80273471 91.02245702 -61.8671875 91.04296875 Z " fill="#030303" transform="translate(221.8671875,104.95703125)"/>
<path d="M0 0 C3.125 1.8125 3.125 1.8125 6 4 C6.78375 4.53625 7.5675 5.0725 8.375 5.625 C8.91125 6.07875 9.4475 6.5325 10 7 C10 7.66 10 8.32 10 9 C10.66 9 11.32 9 12 9 C13.18411119 10.15027944 14.36183025 11.30815053 15.5 12.50390625 C17.6717055 14.66995627 20.05628626 16.55724909 22.44921875 18.47265625 C24.74484933 20.73359216 25.92707566 22.75542465 26.1171875 26 C25.71318881 29.33624722 25.27402618 31.57251917 23.4375 34.4375 C20.00932173 36.63505017 17.01226796 37.55001213 13 37 C9.69814054 35.3626247 6.88562378 33.27812404 4 31 C3.25234375 30.47921875 2.5046875 29.9584375 1.734375 29.421875 C1.16203125 28.95265625 0.5896875 28.4834375 0 28 C0 27.34 0 26.68 0 26 C-0.5775 25.731875 -1.155 25.46375 -1.75 25.1875 C-4.05550043 23.97070811 -6.02056192 22.69666121 -8 21 C-8 20.34 -8 19.68 -8 19 C-8.99 18.67 -9.98 18.34 -11 18 C-13.2862453 14.57063205 -14.00898343 12.52103881 -13.9375 8.375 C-12.91501484 4.69405342 -12.002389 3.29594453 -9 1 C-5.64870516 -0.11709828 -3.51689744 -0.34479387 0 0 Z " fill="#030303" transform="translate(54,39)"/>
<path d="M0 0 C3.29601343 2.14240873 3.86372354 3.54858423 5 7.3125 C5 12.11093578 3.64876349 14.06698754 1 18 C0.34 18 -0.32 18 -1 18 C-1 18.66 -1 19.32 -1 20 C-6.47619048 25 -6.47619048 25 -9 25 C-9 25.66 -9 26.32 -9 27 C-13.02558014 31.03382927 -17.53396956 35.23730188 -23.3125 36.1875 C-27.25075582 35.9872497 -28.98116916 35.48609598 -32 33 C-34.2012803 29.69807955 -34.76868654 27.93232882 -35 24 C-33.33447275 18.78134796 -30.04034892 15.99346928 -25.9375 12.61328125 C-23.98786748 11.05300581 -23.98786748 11.05300581 -22.375 9.29296875 C-21 8 -21 8 -19 8 C-19 7.34 -19 6.68 -19 6 C-17.34928604 4.97388051 -15.68029994 3.97691857 -14 3 C-12.98131338 2.01904252 -11.97648017 1.02297922 -11 0 C-7.50204133 -1.74897934 -3.71969784 -0.84057229 0 0 Z " fill="#040404" transform="translate(291,40)"/>
<path d="M0 0 C2.6961358 1.67597631 3.70474834 3.09231203 4.68359375 6.1015625 C6.0899922 12.21212128 7.00201599 18.77097276 6 25 C3.06031519 28.54491404 -0.48412425 30.17055343 -5 31 C-9.15596245 29.53318972 -11.83566866 27.87301398 -14 24 C-15.55430229 17.80483768 -16.96452818 8.86079091 -13.98828125 3.01171875 C-9.72460392 -1.3287816 -5.62853059 -1.28369996 0 0 Z " fill="#030303" transform="translate(103,20)"/>
<path d="M0 0 C2.76926565 2.57146096 3.00707243 4.05481133 3.5 7.875 C3.30215504 11.40982996 2.54216734 14.1578112 0.0078125 16.80078125 C-5.43042972 20.04891425 -12.651827 20.49826775 -18.80859375 19.58203125 C-22.10228112 18.60311924 -24.44053327 17.47469904 -27.0625 15.25 C-28.72443777 11.26134936 -28.63241709 7.54151664 -27 3.5625 C-26.67 3.046875 -26.34 2.53125 -26 2 C-25.34 2 -24.68 2 -24 2 C-24 1.34 -24 0.68 -24 0 C-6.32298321 -3.70060912 -6.32298321 -3.70060912 0 0 Z " fill="#030303" transform="translate(55,90)"/>
<path d="M0 0 C2.47676311 1.93308341 3.61720953 3.23441906 5 6 C5.28904029 9.25170328 5.1405454 11.59710317 4.0625 14.6875 C0.8713854 18.26541637 -2.28618925 19.35750563 -7 20 C-12.47824461 19.91506597 -18.23605491 19.69923473 -23.0078125 16.765625 C-25.43534515 14.18550459 -26.01502308 11.89296059 -26.5 8.4375 C-25.96980455 4.79240629 -25.29088372 2.86360465 -23 0 C-16.35899598 -4.02102986 -7.06743809 -2.28801953 0 0 Z " fill="#040404" transform="translate(304,90)"/>
<path d="M0 0 C3.83156341 6.15372305 2.91594628 14.48813444 1.375 21.4375 C-0.23801719 24.97077576 -1.53803759 26.42390977 -4.9375 28.3125 C-8.7891359 28.79395449 -11.17339622 28.63512159 -14.75 27.125 C-17.90623115 24.50983705 -18.76794134 21.76585994 -19.23828125 17.734375 C-19.26515601 11.60692963 -19.04049329 5.74857094 -15.9375 0.3125 C-10.57858869 -3.82847692 -5.71096884 -3.28076933 0 0 Z " fill="#040404" transform="translate(245.9375,21.6875)"/>
<path d="M0 0 C1.32 0.66 2.64 1.32 4 2 C3.67 3.32 3.34 4.64 3 6 C2.0925 6.0825 1.185 6.165 0.25 6.25 C-3.40077839 7.09248732 -4.63384583 8.17881618 -7 11 C-5.5140084 6.40693504 -3.14985318 3.56430755 0 0 Z " fill="#0A0A0A" transform="translate(59,176)"/>
<path d="M0 0 C0.66 0.33 1.32 0.66 2 1 C0.33784732 2.33895632 -1.32963607 3.67130142 -3 5 C-3.70125 5.598125 -4.4025 6.19625 -5.125 6.8125 C-5.74375 7.204375 -6.3625 7.59625 -7 8 C-7.99 7.67 -8.98 7.34 -10 7 C-7.01767477 3.67356033 -4.13629913 1.70847138 0 0 Z " fill="#0B0B0B" transform="translate(148,87)"/>
<path d="M0 0 C0 3 0 3 -1 5 C-1.66 5 -2.32 5 -3 5 C-3 5.66 -3 6.32 -3 7 C-5.97 6.505 -5.97 6.505 -9 6 C-6.11964908 3.75972706 -3.15133488 1.83827868 0 0 Z " fill="#0A0A0A" transform="translate(135,54)"/>
<path d="M0 0 C0.99 0.33 1.98 0.66 3 1 C1.60746468 4.48133831 0.36823784 5.47886033 -3 7 C-3.33 7.66 -3.66 8.32 -4 9 C-4.66 8.67 -5.32 8.34 -6 8 C-4.02 5.36 -2.04 2.72 0 0 Z " fill="#090909" transform="translate(68,164)"/>
<path d="M0 0 C2.19510603 0.25361783 4.38228739 0.57765908 6.5625 0.9375 C8.35880859 1.22947266 8.35880859 1.22947266 10.19140625 1.52734375 C11.11824219 1.68332031 12.04507813 1.83929688 13 2 C13 2.33 13 2.66 13 3 C11.22950311 3.05410687 9.45853151 3.09284119 7.6875 3.125 C6.20830078 3.15980469 6.20830078 3.15980469 4.69921875 3.1953125 C2 3 2 3 -1 1 C-0.67 0.67 -0.34 0.34 0 0 Z " fill="#0A0A0A" transform="translate(173,65)"/>
<path d="M0 0 C-0.5775 0.268125 -1.155 0.53625 -1.75 0.8125 C-4.06461975 1.93880119 -4.06461975 1.93880119 -6.0625 3.6875 C-6.701875 4.120625 -7.34125 4.55375 -8 5 C-8.99 4.67 -9.98 4.34 -11 4 C-7.35237315 0.18657193 -5.28949249 -0.11498897 0 0 Z " fill="#0B0B0B" transform="translate(288,39)"/>
<path d="M0 0 C0.89130413 2.6739124 1.47731534 5.23723823 2 8 C1.01 8.33 0.02 8.66 -1 9 C-1.66 9.66 -2.32 10.32 -3 11 C-2.69078116 9.54096742 -2.37751201 8.08279278 -2.0625 6.625 C-1.88847656 5.81289062 -1.71445313 5.00078125 -1.53515625 4.1640625 C-1 2 -1 2 0 0 Z " fill="#0A0A0A" transform="translate(228,207)"/>
<path d="" fill="#000000" transform="translate(0,0)"/>
</svg>
