<?xml version="1.0" encoding="UTF-8"?>
<svg version="1.1" xmlns="http://www.w3.org/2000/svg" width="512" height="512">
<path d="M0 0 C9.33608718 7.35421604 17.27755959 15.00636435 24.54199219 24.44482422 C25.18652344 25.23888672 25.83105469 26.03294922 26.49511719 26.85107422 C39.6457483 43.74375484 47.37986927 63.63420965 51.54199219 84.44482422 C78.60199219 84.77482422 105.66199219 85.10482422 133.54199219 85.44482422 C133.87199219 82.80482422 134.20199219 80.16482422 134.54199219 77.44482422 C135.24707031 75.2265625 135.24707031 75.2265625 136.07324219 73.51513672 C136.38430908 72.86996094 136.69537598 72.22478516 137.01586914 71.56005859 C137.35448975 70.90328125 137.69311035 70.24650391 138.04199219 69.56982422 C138.57602661 68.52665039 138.57602661 68.52665039 139.12084961 67.46240234 C146.70817867 53.2169399 159.25862839 43.41846171 174.54199219 38.44482422 C189.91811235 34.26724392 206.20281068 35.92485083 220.41699219 43.13232422 C234.89479868 51.78422659 245.52438607 65.41615043 249.97558594 81.69482422 C253.23252732 97.50783618 251.4107354 113.43327401 242.79980469 127.23779297 C241.10733756 129.69659178 239.3698756 132.0853416 237.54199219 134.44482422 C236.92453125 135.27111328 236.30707031 136.09740234 235.67089844 136.94873047 C227.10897099 146.98739403 215.38281436 152.61042105 202.54199219 154.44482422 C202.54199219 175.89482422 202.54199219 197.34482422 202.54199219 219.44482422 C206.99699219 220.92982422 206.99699219 220.92982422 211.54199219 222.44482422 C241.48388946 235.40174389 265.10712491 259.40158227 279.29199219 288.56982422 C279.79496826 289.58036865 279.79496826 289.58036865 280.30810547 290.61132812 C282.52442698 295.42271719 283.00137557 299.1507109 282.54199219 304.44482422 C280.74835308 307.25485882 279.52318283 308.9542289 276.54199219 310.44482422 C274.55371094 310.71826172 274.55371094 310.71826172 272.22949219 310.81982422 C271.47023438 310.86880859 270.71097656 310.91779297 269.92871094 310.96826172 C266.27911268 310.16785883 264.90181587 308.29016186 262.54199219 305.44482422 C261.07506576 302.97899902 259.86779462 300.42362393 258.66699219 297.81982422 C245.44215612 270.48395173 224.13231737 250.41228277 195.54199219 239.44482422 C164.51237815 228.69123011 131.90502325 230.51577674 102.38476562 244.796875 C94.86284162 248.6076717 88.0853771 253.14167518 81.54199219 258.44482422 C80.5790625 259.22470703 79.61613281 260.00458984 78.62402344 260.80810547 C55.41348922 280.81041352 42.15744941 310.18947336 39.54199219 340.44482422 C37.56275399 369.92505631 47.2443826 398.00547492 65.37792969 421.00341797 C67.48817806 423.59290231 67.48817806 423.59290231 70.54199219 425.44482422 C70.94289063 424.62240234 71.34378906 423.79998047 71.75683594 422.95263672 C79.05283167 408.62535257 89.81801001 396.65000453 105.54199219 391.44482422 C106.53199219 391.44482422 107.52199219 391.44482422 108.54199219 391.44482422 C107.9503125 390.62240234 107.35863281 389.79998047 106.74902344 388.95263672 C95.12203212 372.61186729 88.71462046 356.78047386 91.22949219 336.25732422 C94.33924868 317.90566913 103.51307044 303.37044889 118.45605469 292.52294922 C133.43964631 282.43273309 150.58557909 279.28049723 168.35449219 282.44482422 C181.30533994 285.53454709 192.34972902 291.82541128 201.54199219 301.44482422 C202.48945312 302.36328125 202.48945312 302.36328125 203.45605469 303.30029297 C215.35106161 315.58830672 219.05636462 332.01817132 218.96411133 348.58129883 C218.55357129 363.59360395 213.02448688 376.16639916 203.74121094 387.88623047 C202.46130901 389.44703345 202.46130901 389.44703345 201.54199219 391.44482422 C202.2703125 391.56857422 202.99863281 391.69232422 203.74902344 391.81982422 C215.99205912 394.55952451 226.35204487 404.53583592 233.54199219 414.44482422 C238.54199219 423.06157549 238.54199219 423.06157549 238.54199219 426.44482422 C243.05620178 423.23435747 245.86382172 419.59716266 248.91699219 415.06982422 C249.39668457 414.36519043 249.87637695 413.66055664 250.37060547 412.93457031 C254.74075463 406.38448792 258.2228534 399.58705481 261.54199219 392.44482422 C262.45022053 390.52414461 263.36603035 388.60701761 264.29199219 386.69482422 C264.65808594 385.91623047 265.02417969 385.13763672 265.40136719 384.33544922 C266.54199219 382.44482422 266.54199219 382.44482422 269.54199219 380.44482422 C274.10251214 379.71035846 277.56110293 379.85220362 281.54199219 382.25732422 C284.1065087 385.06226416 284.49910851 386.89336694 284.79199219 390.65966797 C284.51086097 394.91617036 283.31885268 398.19774287 281.54199219 402.00732422 C281.22584961 402.70132324 280.90970703 403.39532227 280.58398438 404.11035156 C265.2631494 437.10502512 238.49043269 463.51955148 204.26074219 476.51904297 C199.08100234 478.37951902 193.8455202 479.97793657 188.54199219 481.44482422 C187.52830566 481.73292969 187.52830566 481.73292969 186.49414062 482.02685547 C167.13071869 487.24890029 140.78499918 486.91398596 121.54199219 481.44482422 C120.7450293 481.22439453 119.94806641 481.00396484 119.12695312 480.77685547 C101.49921906 475.75743289 84.80011174 468.10109714 70.54199219 456.44482422 C69.9920459 455.99880859 69.44209961 455.55279297 68.87548828 455.09326172 C50.17802835 439.8375213 35.7829523 421.1243757 26.79199219 398.63232422 C26.52241699 397.97079346 26.2528418 397.3092627 25.97509766 396.62768555 C22.9461949 388.68777996 21.53074994 380.89704467 19.54199219 372.44482422 C-7.51800781 372.11482422 -34.57800781 371.78482422 -62.45800781 371.44482422 C-62.78800781 374.08482422 -63.11800781 376.72482422 -63.45800781 379.44482422 C-64.16308594 381.66308594 -64.16308594 381.66308594 -64.98925781 383.37451172 C-65.30032471 384.0196875 -65.6113916 384.66486328 -65.93188477 385.32958984 C-66.27050537 385.98636719 -66.60912598 386.64314453 -66.95800781 387.31982422 C-67.31403076 388.01527344 -67.67005371 388.71072266 -68.03686523 389.42724609 C-75.62419429 403.67270854 -88.17464402 413.47118673 -103.45800781 418.44482422 C-118.78207473 422.60826203 -134.99124431 420.94973547 -149.20800781 413.88232422 C-164.72652566 404.60393327 -174.64447017 390.86417052 -179.24316406 373.47607422 C-182.5765133 357.0521548 -178.99099076 341.1662263 -170.22753906 327.08935547 C-162.61580754 315.71376553 -151.63883586 307.44009551 -138.45800781 303.44482422 C-136.14800781 303.11482422 -133.83800781 302.78482422 -131.45800781 302.44482422 C-131.45800781 280.99482422 -131.45800781 259.54482422 -131.45800781 237.44482422 C-135.91300781 235.95982422 -135.91300781 235.95982422 -140.45800781 234.44482422 C-165.4029333 223.65027126 -185.73225784 205.06227446 -200.45800781 182.44482422 C-201.06515625 181.53474609 -201.67230469 180.62466797 -202.29785156 179.68701172 C-219.83455114 151.77144912 -225.5245149 113.49763564 -218.77050781 81.31982422 C-218.08329447 78.33432883 -217.30274584 75.3892603 -216.45800781 72.44482422 C-216.18512939 71.44660645 -216.18512939 71.44660645 -215.90673828 70.42822266 C-213.04001533 60.14491085 -208.51783866 50.79047561 -203.45800781 41.44482422 C-202.96429688 40.52958984 -202.47058594 39.61435547 -201.96191406 38.67138672 C-191.52710266 20.40307667 -176.25518567 4.60104922 -158.45800781 -6.55517578 C-157.83845215 -6.94398926 -157.21889648 -7.33280273 -156.58056641 -7.73339844 C-108.32368986 -37.466691 -44.9746103 -34.61675539 0 0 Z M-156.45800781 18.44482422 C-157.31265625 19.16283203 -158.16730469 19.88083984 -159.04785156 20.62060547 C-181.35995263 39.9760953 -195.21357142 65.21573009 -199.45800781 94.44482422 C-201.18244325 127.5069546 -194.9677342 157.52052755 -173.50097656 183.40576172 C-171.55185078 185.35116068 -169.98741004 186.41032713 -167.45800781 187.44482422 C-167.05710938 186.62240234 -166.65621094 185.79998047 -166.24316406 184.95263672 C-157.90429759 168.57744768 -146.72527063 158.88296173 -129.45800781 152.44482422 C-130.28300781 151.45482422 -131.10800781 150.46482422 -131.95800781 149.44482422 C-144.68015524 132.43159618 -148.71153006 113.75938685 -145.98925781 92.84326172 C-142.60048094 77.5534232 -133.1351034 63.59206984 -120.45800781 54.44482422 C-103.73117004 44.57519719 -86.62551171 41.38082814 -67.45800781 45.44482422 C-51.03318066 50.21991537 -37.84427653 59.79000471 -29.02441406 74.50341797 C-20.36675176 90.76082374 -18.53964131 107.74886079 -23.08300781 125.56982422 C-26.21132438 135.68018066 -31.87509753 144.2463279 -38.45800781 152.44482422 C-37.31525391 152.88181641 -37.31525391 152.88181641 -36.14941406 153.32763672 C-18.1900483 160.45757219 -7.9517009 171.17021171 0.54199219 188.44482422 C22.07630353 167.47423831 32.18254008 138.51587021 32.91699219 108.88232422 C32.13900651 77.69524611 20.10732776 49.80887592 -1.45800781 27.44482422 C-2.17730469 26.65076172 -2.89660156 25.85669922 -3.63769531 25.03857422 C-20.15605452 7.33587983 -45.64661459 -3.85143049 -69.45800781 -6.55517578 C-70.57046875 -6.68923828 -71.68292969 -6.82330078 -72.82910156 -6.96142578 C-102.36383178 -9.7591182 -133.85153201 -1.05541827 -156.45800781 18.44482422 Z M160.23339844 73.06982422 C153.49768411 82.52782493 152.3537993 93.13931848 153.54199219 104.44482422 C156.15959969 115.45154453 163.1875924 123.97150381 172.66699219 129.94482422 C181.78677352 134.88121962 191.42233473 136.03904777 201.61230469 133.75732422 C212.46078859 130.13109005 221.11843311 122.72563843 226.85449219 112.81982422 C230.83825677 104.05899128 231.75889796 93.52868588 228.54199219 84.44482422 C224.17362209 73.66951131 218.18122789 65.54045816 207.54199219 60.44482422 C189.80539024 53.81357214 172.42619594 58.48773104 160.23339844 73.06982422 Z M-115.48925781 77.24951172 C-124.22921033 86.99525242 -127.1219058 97.81824041 -126.79785156 110.70263672 C-125.73989617 122.35230644 -120.52431236 131.90035232 -111.91503906 139.76904297 C-100.82259765 148.42851022 -89.22986437 150.80656743 -75.45800781 149.44482422 C-64.16685444 147.05058969 -54.00853356 139.90298129 -47.45800781 130.44482422 C-41.41358638 120.3172032 -39.02004663 108.53700476 -41.70019531 96.96826172 C-45.17742901 85.38943197 -52.06043651 75.51177984 -62.53613281 69.19091797 C-80.84097657 59.72409992 -100.52841506 62.99334634 -115.48925781 77.24951172 Z M53.54199219 106.44482422 C52.55199219 115.68482422 51.56199219 124.92482422 50.54199219 134.44482422 C42.37046892 170.88540097 22.94681738 203.33356916 -8.97363281 223.7722168 C-40.86815224 243.52661356 -73.48830129 247.55256939 -110.45800781 243.44482422 C-110.45800781 262.91482422 -110.45800781 282.38482422 -110.45800781 302.44482422 C-106.16800781 303.76482422 -101.87800781 305.08482422 -97.45800781 306.44482422 C-89.35774782 309.8605965 -83.66414803 314.24945855 -77.45800781 320.44482422 C-76.88050781 321.01072266 -76.30300781 321.57662109 -75.70800781 322.15966797 C-68.19584654 330.16090224 -65.29387303 340.04665176 -62.45800781 350.44482422 C-36.05800781 350.44482422 -9.65800781 350.44482422 17.54199219 350.44482422 C18.53199219 341.20482422 19.52199219 331.96482422 20.54199219 322.44482422 C25.70826139 298.28491822 35.4826585 277.242959 51.54199219 258.44482422 C52.22777344 257.62498047 52.91355469 256.80513672 53.62011719 255.96044922 C74.62855552 231.62693431 105.08452573 217.11293109 136.54199219 212.44482422 C137.83943359 212.24759766 137.83943359 212.24759766 139.16308594 212.04638672 C153.33661426 210.27768335 167.4120548 211.87483118 181.54199219 213.44482422 C181.54199219 193.97482422 181.54199219 174.50482422 181.54199219 154.44482422 C177.25199219 153.12482422 172.96199219 151.80482422 168.54199219 150.44482422 C160.4417322 147.02905193 154.7481324 142.64018989 148.54199219 136.44482422 C147.67574219 135.59597656 147.67574219 135.59597656 146.79199219 134.72998047 C139.27983092 126.7287462 136.3778574 116.84299668 133.54199219 106.44482422 C107.14199219 106.44482422 80.74199219 106.44482422 53.54199219 106.44482422 Z M-141.89160156 183.32763672 C-146.68331198 189.80421289 -149.59754185 196.44048969 -150.45800781 204.44482422 C-122.89632791 222.61476731 -91.46139385 229.63966999 -58.84277344 222.98388672 C-44.37943789 219.71453323 -29.09746086 213.84592091 -17.45800781 204.44482422 C-17.90172648 194.68301345 -23.14821677 185.64305658 -30.25878906 179.12841797 C-41.17862464 170.76882803 -52.9715822 170.13448882 -66.23925781 170.17919922 C-67.66215074 170.17784868 -69.08504321 170.17590492 -70.50793457 170.17340088 C-73.47652622 170.17046789 -76.44499675 170.17468802 -79.41357422 170.18408203 C-83.19591161 170.19547553 -86.97796504 170.18890621 -90.76029205 170.1769371 C-93.69445896 170.1696689 -96.62855986 170.17202906 -99.56272888 170.17719269 C-100.95641616 170.17851551 -102.35010968 170.17693011 -103.74378967 170.17223358 C-118.22616451 170.13412582 -131.56479004 172.12988928 -141.89160156 183.32763672 Z M121.58496094 317.90966797 C114.13154109 327.15874919 111.19610565 337.77604288 111.66699219 349.57763672 C113.08594347 360.8996855 118.54136248 371.96895288 127.60449219 379.05810547 C138.93230776 386.9836431 150.40769495 390.33253553 164.26074219 387.98388672 C174.50690005 385.22779995 184.95443178 379.02543375 190.54785156 369.78271484 C196.90978211 358.30170672 199.66070621 347.29987118 196.85839844 334.26513672 C192.71976858 322.14118369 184.89677601 312.59984917 173.54199219 306.56982422 C154.91935281 298.0212556 135.45687998 303.20297858 121.58496094 317.90966797 Z M-150.20800781 336.31982422 C-157.21741071 344.81413479 -159.82258401 354.03526668 -159.34082031 365.14794922 C-157.75110002 375.20536329 -152.59554387 385.22494522 -144.45800781 391.44482422 C-134.96977174 397.90602976 -124.36798387 401.11544473 -112.95800781 398.97607422 C-102.30465713 396.17956967 -93.85045239 390.42082029 -87.45800781 381.44482422 C-81.94186199 371.46779525 -80.61853648 360.17957683 -83.25878906 349.07763672 C-87.54868152 337.7263749 -95.61236872 329.6667986 -106.45800781 324.44482422 C-122.52282718 317.64816987 -139.05883632 324.27304994 -150.20800781 336.31982422 Z M102.54199219 417.44482422 C101.67574219 418.02232422 100.80949219 418.59982422 99.91699219 419.19482422 C94.11128846 424.69496459 90.24559394 431.6291776 88.54199219 439.44482422 C88.54199219 440.76482422 88.54199219 442.08482422 88.54199219 443.44482422 C90.72038106 445.14427653 92.71976259 446.46993868 95.10449219 447.81982422 C95.78125 448.21194092 96.45800781 448.60405762 97.15527344 449.00805664 C124.77314953 464.59745267 156.97890195 468.29656079 187.47949219 459.81982422 C199.7225569 456.17711764 210.92221872 450.52467319 221.54199219 443.44482422 C220.29549239 433.34387755 216.11282092 425.06009146 208.66699219 418.04638672 C200.6995976 412.04154889 192.65917731 409.34052899 182.79907227 409.28369141 C182.14140869 409.2787265 181.48374512 409.2737616 180.80615234 409.26864624 C178.64126517 409.25410335 176.47645134 409.24723467 174.31152344 409.24169922 C173.5673435 409.23887184 172.82316357 409.23604446 172.05643272 409.23313141 C168.11566186 409.21816802 164.17492731 409.20892148 160.23413086 409.20458984 C156.18717023 409.19911961 152.14054848 409.1751143 148.09369373 409.14661789 C144.96132984 409.12788123 141.82904565 409.12278001 138.69663048 409.12125397 C137.20606325 409.11825006 135.71549666 409.11029912 134.22498512 409.09706879 C122.07301173 408.99693047 112.57587999 410.29708841 102.54199219 417.44482422 Z " fill="#ffffff" transform="translate(220.4580078125,27.55517578125)"/>
<path d="M0 0 C3.125 1.875 3.125 1.875 5 5 C5.98876625 10.02622846 5.7769173 13.70513784 3.125 18.125 C-1.29486216 20.7769173 -4.97377154 20.98876625 -10 20 C-13.125 18.125 -13.125 18.125 -15 15 C-15.98876625 9.97377154 -15.7769173 6.29486216 -13.125 1.875 C-8.70513784 -0.7769173 -5.02622846 -0.98876625 0 0 Z " fill="#ffffff" transform="translate(507,363)"/>
</svg>
